<?xml version="1.0" encoding="UTF-8"?>
<svg id="Layer_1" xmlns="http://www.w3.org/2000/svg" version="1.1" viewBox="0 0 470.71 67.1">
  <!-- Generator: Adobe Illustrator 30.2.1, SVG Export Plug-In . SVG Version: 2.1.1 Build 1)  -->
  <defs>
    <style>
      .st0 {
        fill: #383838;
      }
    </style>
  </defs>
  <path class="st0" d="M8.6,60.59c-.74,0-1.36-.57-1.41-1.31-.74-9.76.91-18.41,4.9-25.69C23.62,12.5,55.1,2.79,108.32,3.88c46.58.97,103.56,9.79,158.67,18.33,95.56,14.81,185.82,28.79,199.28-2.17,2.16-4.96,2.14-11.09-.05-18.22-.23-.75.19-1.54.94-1.77.75-.23,1.54.19,1.77.94,2.4,7.79,2.38,14.58-.05,20.18-6.6,15.19-29.05,21.53-70.67,19.96-36.45-1.37-82.69-8.54-131.64-16.12C211.54,16.49,154.65,7.68,108.26,6.72,56.2,5.65,25.55,14.87,14.57,34.94c-3.72,6.8-5.25,14.91-4.56,24.12.06.78-.53,1.46-1.31,1.52-.04,0-.07,0-.11,0Z"/>
  <polygon class="st0" points="0 42.6 2.64 41.55 9.47 58.82 15.33 41.2 18.02 42.1 9.7 67.1 0 42.6"/>
</svg>