<?xml version="1.0" encoding="UTF-8"?>
<svg id="Layer_1" xmlns="http://www.w3.org/2000/svg" version="1.1" viewBox="0 0 84.47 17.66">
  <!-- Generator: Adobe Illustrator 30.2.1, SVG Export Plug-In . SVG Version: 2.1.1 Build 1)  -->
  <defs>
    <style>
      .st0 {
        fill: #383838;
      }
    </style>
  </defs>
  <path class="st0" d="M1.42,15.26c-.62,0-1.19-.41-1.36-1.04-.21-.75.23-1.54.98-1.75,13.64-3.81,27.74-5.75,41.9-5.75.08,0,.15,0,.23,0,11.36.02,22.75,1.29,33.85,3.77.76.17,1.25.93,1.07,1.69-.17.76-.93,1.24-1.69,1.07-10.9-2.44-22.08-3.69-33.23-3.71h-.23c-13.9,0-27.74,1.9-41.14,5.64-.13.04-.26.05-.38.05Z"/>
  <polygon class="st0" points="58.39 17.66 57.98 14.85 76.35 12.16 60.55 2.41 62.04 0 84.47 13.84 58.39 17.66"/>
</svg>