<?xml version="1.0" encoding="UTF-8"?>
<svg id="Layer_1" xmlns="http://www.w3.org/2000/svg" version="1.1" viewBox="0 0 1389.77 925.79">
  <!-- Generator: Adobe Illustrator 30.2.1, SVG Export Plug-In . SVG Version: 2.1.1 Build 1)  -->
  <defs>
    <style>
      .st0 {
        fill: #f0eece;
      }
    </style>
  </defs>
  <path class="st0" d="M638.62,747.64l-1.07-.5-.37,1.16c-.13.25-.19.55-.31.86-1.25-2.79-4.19-6.66-11.03-9.66l-1.06-.45-.39,1.05c-.05.07-.09.13-.13.25-1.05-2.65-3.24-6.48-8.04-9.73l-1.06-.74-.55,1.14c-.08.19-.22.39-.3.57-1.08-1.83-3.33-4.44-8.15-7.46-5-3.1-9.5-9.82-9.56-9.87l-3.39-5.06,1.46,5.93c.31,1.1.54,2.39.84,3.78,1.01,5.03,2.3,11.27,5.14,15.86,1.48,2.46,3.84,4.7,5.73,6.21-.51.03-1.03.07-1.52.21l-.89.22.05.92c.37,5.66,7.01,10.15,10.16,11.96l-1.03.7.19.72c.03.17.97,4.16,4.35,6.92,2.1,1.71,4.44,2.85,6.07,3.55-.51.38-1.19.79-1.96,1.33l-.78.49.38.86c2.4,5.07,8.96,7.78,12.74,8.9-.47.31-.87.62-1.26,1.03l-.69.7.65.75c5.33,5.88,10.44,7.97,13.63,8.68-.26.16-.48.26-.69.35l-1.34.59.95,1.1c3.19,3.65,5.22,5.32,8.27,6.86,1.27.64,2.68,1.08,3.95,1.38l-.75.36.76,1.02c.08.1,2.57,3.42,5.99,5.06,1.52.77,3.4,1.25,5.02,1.59l-1.32.7,1.45,1.01c.59.42,5.62,3.97,8.19,4.73,1.29.41,3.77.72,5.89.92l-2.22,1.15,1.4,1.02c.21.19,6.22,4.73,10.11,5.49,1.62.35,3.87.64,5.87.81l-1.73.71,2.04,1.08c.25.13,6.53,3.52,9.2,4.55,1.93.76,4.49.88,6,.9l-.09.82c-.85-.25-1.59-.47-2.36-.62l-2.09-.38.56,1.17c-1.26-.59-2.76-1.19-4.1-1.58-3.29-.92-8.99-.77-10-.59l-1.69.24.56.88c-2.68-.74-6.96-1.42-11.72.12l-1.04.3.3,1.04c.08.1.09.16.11.27-2.65-.57-7.15-.87-12.85,1.59l-1.55.68,1.24,1.11c-2.64-.22-6.07.04-9.45,1.8l-.9.45.4.91c.12.38.37.8.68,1.21-2.19.04-5.36.43-8.21,2.27-4.57,2.9-10.17,8.52-10.42,8.74l-1.67,1.68,2.35.22c.41.04,10.22.9,14.13.73,2.93-.12,6.19-1.27,8.33-2.23l-.86,2.29,1.3.17c.24.02,5.16.7,8.77-.75.97-.4,2.02-1,2.96-1.57l-1.36,3.42,1.31.23c.19.08,4.65.79,8.32-1.02.95-.52,1.74-.95,2.42-1.36l-.95,3.75,1.38-.02c.4-.01,8.5,0,13.66-3.82-.14.49-.21.79-.21.79l-.38,1.45,1.53-.16c.68-.06,6.99-.72,9.32-2.87.9-.8,1.9-2.02,2.84-3.22l-.26,1.49,1.51-.27c.45-.08,4.32-.77,5.88-1.74.46-.31.93-.63,1.38-1-.16.43-.37.87-.52,1.31-2.01,4.98-3.87,9.77-4.27,11.11-.58,1.95-12.06,29.1-16.48,39.37l-.33.75.67.52c1.42,1.14,4.36,3.39,6.66,4.25.74.27,1.47.43,2.54.94,1.45-.32,2.31-2.61,5.95-19.22,1.17-5.41,2.3-10.47,2.94-12.09.41-.94,1.19-3.05,2.28-5.73,2.36-5.91,5.71-14.38,8.14-20.59,1.1,3.91,2.8,8.29,4.36,10.85l.82,1.36,1-1.22c.14-.2.28-.4.43-.54.65,3.01,2.29,7.69,6.81,10.99l.93.7,1.25-2.07c.24,1.06.73,2.18,1.49,3.2,2.04,2.7,4.65,4.03,4.77,4.07l1.2.6.39-1.4c.62,1.22,1.58,2.67,2.91,3.99,3.29,3.23,6.72,4.59,6.84,4.63l2.49,1-.85-1.87c2.26,2.32,4.86,4.23,4.99,4.32l1.4,1.02.33-1.74c.57.94,1.21,1.92,1.9,2.55,1.53,1.46,4.85,3.19,4.98,3.28l1.59.82v-.98c.84,1.18,1.81,2.39,2.62,3.06,1.96,1.56,3.93,2.6,4,2.64l1.08.56.24-.62c.59,1.05,1.5,2.28,2.72,3.28.29.3.62.58,1.02.86,2.69,2.12,7.15,5.73,8.35,8.58l2.11,5.06-.05-5.49c-.11-8.08-.87-11.07-2.47-15.52-.93-2.61-2.88-4.81-4.41-6.27.95-.17,1.94-.46,2.4-1.12l.37-.53-.28-.59c-.64-1.33-1.84-3.2-3.3-4.56-.55-.48-1.2-.89-1.9-1.22l1.01-.47-.59-1.05c-.15-.2-2.85-4.99-7.79-7.06.06-.01.11-.02.11-.02l1.34-.59-.95-1.1c-.21-.19-3.84-4.35-8.91-5.88.58-.33.84-.5.84-.5l1.25-.8-1.14-.9c-.21-.19-4.59-3.69-8.72-4.81.16-.09.2-.15.2-.15l1.09-1-1.29-.75c-.25-.13-5.41-3.09-10.05-4.17l.4-.36-1.01-.8c-.07-.05-.74-.56-1.72-1.2,3.93,1.61,7.02,3.03,7.08,3.08l2.59,1.22-1.85-4.24c2.77,1.24,7.03,3.09,9,3.43,3.11.55,5.91.05,6.02.03l1.29-.23-.13-.38c1.61.93,3.6,2.02,5.14,2.56,6.4,2.16,8.54,1.49,9.96,1.06.22-.1.38-.13.55-.16l1.18-.21-.32-1.16c-.05-.28-.14-.49-.18-.72,3.74,2.51,9.85,5.3,16.84,2.96l.92-.34-.24-1c-.06-.34-.18-.66-.23-.94,1.7,1.09,4.14,2.45,6.6,2.99,4.4,1.01,9.44.4,9.67.36l1.47-.2-.66-1.44c2.68,1.08,6.86,2.48,9.79,2.36,4.47-.22,8.81-1.86,8.96-1.94l1.46-.55-.73-.85c1.8.37,4.03.56,5.95-.02,3.79-1.14,5.55-2.32,5.59-2.38l.71-.53-1.01-2.42c2.85,1.05,7.46,1.97,11.35-.92l.72-.53-.37-.8c-.19-.43-.39-.91-.65-1.39,2.9,1.05,7.46,1.62,12.5-1.59l.98-.64-.39-.57c3.07.32,8.16.69,12.8-.2,5.87-1.16,17.65-7.07,18.13-7.33l3.61-1.8-4.03-.21c-2.81-.19-7.82-1.67-12.22-3.03-3.85-1.17-7.46-2.26-9.64-2.51-2.37-.33-4.87-.06-6.9.24l.59-.57-1.72-.56c-.25-.07-6.11-1.86-9.17-1.78-.69,0-1.31.12-1.87.22l.62-.75-1.43-.56c-.68-.23-7.04-2.51-10.07-1.97-.73.13-1.45.32-2.2.62l.91-1.09-1.26-.58c-.19-.08-5.61-2.59-9.59-2.23-1.37.13-2.75.49-3.94.93l.96-1.44-1.46-.38c-.25-.07-6.92-1.83-11.11-.68-.82.26-1.53.5-2.18.74l1.81-2.52-1.68-.34c-.3-.06-7.18-1.33-12.27-.36-1.01.18-1.95.4-2.83.68l1.73-1.64-2.61-.06c-.29,0-7.77-.12-12.93,1.43-1.49.44-2.72.95-3.85,1.44l.94-1.21-2.25.05c-.22.04-3.17.04-7.14,1.15,4.05-1.3,7.44-3.35,7.6-3.43l1.68-.99-1.72-.91s-.51-.26-1.21-.65c10.99-.63,16.7-6.61,16.93-6.89l1.06-1.17-1.55-.59c12.04-1.22,16.4-6.97,16.58-7.23l.75-1-1.4-.73c1.6-.11,3.4-.37,5.02-1.01,4.23-1.62,10.79-8.92,11.09-9.2l1.11-1.24-2.28-.81c1.73-.37,3.6-.87,5.04-1.59,3.39-1.76,8.33-6.8,8.53-7.01l1.07-1.12-3.35-1.6c2.07-.37,4.63-.94,6.43-1.9,3.54-1.9,10.28-9.52,10.56-9.86l1.01-1.16-2.11-.84c.6-.22,1.24-.51,1.94-.81,3.26-1.51,9.4-8.9,10.13-9.72l1-1.22-1.53-.48s-.07-.05-.38-.16c4.59-2.15,7.26-7.94,7.38-8.25l.45-1.06-1.5-.6c1.3-.52,2.74-1.18,3.75-2,2.48-2,10.81-17.89,11.49-19.28l1.96-3.93-3.59,2.6c-2.87,2.07-6.06,3.33-9.2,4.53-4.5,1.72-9.2,3.55-12.88,7.9-.02-.46-.05-.92-.06-1.32l-.09-1.49-1.35.53c-4.99,1.87-7.88,4.12-9.53,5.92.01-.23.1-.42.12-.6l.38-1.46-1.48.15c-4.45.33-8.17,3.48-10.45,5.97l.24-2.53-1.63.58c-.21.1-4.62,1.69-7.76,3.52-1.31.75-2.55,1.9-3.57,3.01l.68-3.65-1.96.99c-.06.01-3.98,2.04-8.5,4.23-2.71,1.35-4.85,3.64-6.26,5.45-.06-.63-.1-1.2-.13-1.71l-.09-1.49-1.41.54c-7.54,2.79-11.72,7.93-13.91,11.84,0-.69-.05-1.26-.12-1.66l-.26-1.46-1.33.64c-7.95,4.07-11.92,10.33-13.82,14.66-.13-.73-.25-1.4-.34-1.91l-.31-1.39-1.27.69c-7.13,3.81-11.32,11.15-13.26,15.49l-.42-2.01-1.38,1c-.2.15-4.96,3.66-8.3,8.3-1.49,2.06-3.38,5.69-4.69,8.41l-.49-3.73-1.58,1.84c-.06,0-3.93,4.57-6.75,7.27-1.34,1.22-2.57,3.12-3.59,4.86l.19-3.5-2.08,2.28c-.09.13-2.06,2.39-3.78,4.43l-1.13.14c1.45-1.3,3.09-2.8,4.22-4.22,2.51-3.11,4.83-7.34,4.91-7.52l1.05-1.92-1.41.19c1.67-1.34,3.57-3.01,4.6-4.69,2.21-3.52,4.03-8.87,4.1-9.12l.54-1.54-3.32.19c1.98-1.57,4.58-3.82,6.23-5.97,3.38-4.42,6.31-11.01,6.44-11.27l.79-1.76-4.08.49c2.41-1.7,5.35-4.07,7.01-6.45,3.05-4.3,6.24-11.4,6.36-11.71l.58-1.32-3.34-.56c2.39-1.87,6.2-5.15,8.21-9.15,3.04-5.98,3.63-10.82,3.65-11l.16-1.36-2.83.33c1.76-1.82,4.16-4.56,5.51-7.05,2.31-4.23,4.13-10.28,4.2-10.52l.52-1.65-3.99.65c1.53-1.78,3.57-4.34,4.74-6.86,2.09-4.54,3.77-10.04,3.84-10.28l.43-1.46-3.9.17c1.2-1.37,2.62-3.47,3.86-6.59,2.69-6.67,2.98-8.92,2.96-9.03l.17-1.3-3.55.17c1.27-1.32,2.78-3.21,3.75-5.24,1.8-3.85,3.2-8.67,3.28-8.85l.46-1.64-4.21.69c.73-.77,1.55-1.66,2.23-2.71,2.55-3.87,3.61-10.59,3.67-10.89l.21-1.43-2.54.34c1.02-1.11,2.1-2.51,2.77-3.91,1.39-2.91,2.44-7.09,2.47-7.26l.41-1.58-1.97.29c.71-.88,1.45-1.94,2.03-3.2,1.34-2.9,2.29-5.96,2.33-6.08l.62-2.02-2.79.9c2.43-3.9,6.36-11.72,6.46-21.56.04-3.65,2.05-14.48,2.09-14.6l1.25-6.64-3.23,5.9c-.05.07-2.94,5.27-6.72,10.33-5.97,8.06-9.14,18.17-10.39,22.9-.15-.2-.25-.42-.41-.68l-.78-1.48-1.03,1.34c-2.62,3.47-3.5,7.33-3.72,9.97l-.54-.77-.88.56c-3.68,2.39-4.79,7.85-5.1,11.32-.24-.36-.48-.73-.72-1.14l-.72-1.14-.99.93c-4.1,3.97-4.72,8.88-4.52,12.31-.23-.31-.4-.62-.57-.94l-.55-1.12-1.03.7c-5.26,3.6-5.98,10.95-5.72,16.29l-2.3-4.51-1.06,1.17c-.33.41-7.36,8.37-7.61,17.72-.73-1.2-1.16-1.99-1.16-1.99l-.75-1.31-1.01,1.16c-.3.28-6.16,7.34-6.88,12.68-.21,1.72-.29,3.23-.31,4.45l-2.19-2.91-1.08,1.7c-1.62,2.6-5.46,8.66-6.28,13.15-.38,2.09-.46,4.25-.37,6.02l-1.68-2.3-.79,1.7c-.17.38-4.16,9.13-5.34,15.81-.34,1.68-.36,3.19-.3,4.51l-1.35-1.73-.76,1.58c-.27.45-5.36,10.84-5.54,16.02-.03,2.72.38,5.37.83,7.25l-1.96-1.27-.47,1.24c-.12.31-3.03,8-2.15,13.28.39,2.53,1.03,5.14,1.61,7.12l-1.29-1.1-.47,1.59c-.12.31-2.37,8.46-2.3,11.75.07,1.72.37,3.69.7,5.25l-1.47-1.13-.34,1.68c-.02.23-.77,3.78-1.05,7.13-.02-.11-.08-.16-.1-.27l-.64-1.62-.48.55c.39-4,.8-9.8.07-12.27l-.47-1.65-1.3,1.16c-.05,0-.16.09-.2.15,1.48-4.37,2.7-11.18-.8-16.86l-.66-1.1-.7.59c1-2.84,2-5.97,2.01-7.88.02-3.82-1.39-12.36-1.45-12.7l-.36-2.02-3.02,2.85c1.14-4.31,1.42-11.18-3.61-19.02l-.72-1.14-.98.98c-.34.35-.82.9-1.34,1.57.66-3.12,1.13-6.97.39-10.13-1.29-5.61-4.55-10.64-4.7-10.85l-.72-1.14-1.95,2.02c.93-4.21.76-10.66-4.89-17.41l-.73-.85-.85.73c-.31.23-.69.64-1.08,1.06.42-2.21.58-4.85-.28-7.12-1.77-4.77-5.83-9.66-5.98-9.87l-.88-1.06-.84,1.13c-.23-1.93-.77-4.32-1.95-6.07-2.1-3.04-4.22-5.5-4.29-5.6l-.87-1-1.74,2.28c-.13-3.33-1.32-8.38-6.06-13.61l-1-1.09-.75,1.29c-.09.13-.13.25-.22.39-.59-2.32-1.87-5.62-4.65-8.89-4.96-5.77-15.65-13.18-16.05-13.51,0,0,2.49,8.81,3.68,14.21,1.13,5.06,2.28,10.24,4,14.04-.81-.32-1.26-.59-1.26-.59l-1.47-.78-.11,1.64c-.02.23-.46,6.21.89,9.9.57,1.58,1.56,3.25,2.49,4.59-.31-.12-.61-.18-.98-.29l-1.52-.42.16,1.53c.75,8.77,3.66,14.73,5.88,18.1-.62-.24-1.17-.43-1.6-.53l-1.1-.33-.26,1.14c-1.29,6.07,1.95,12.26,4.31,15.77l-3.69-1.25-.11,1.35c-.01.23-.63,7.17,1.56,11.69,1.02,2.19,2.28,4.05,3.33,5.37l-4.32-.56.19,1.41c.06.34,1.13,7.32,4.08,12.17.96,1.51,1.87,2.73,2.74,3.68-.49-.14-.85-.25-1.04-.33l-2.13-.95.69,2.25c.17.61.28,1.22.46,1.94.71,3,1.66,7.05,5.47,10.94,1.07,1.14,2.29,2.14,3.41,2.92l-2.23-.18.12,1.31c.04.22.61,5.04,4.56,10.35,1.75,2.35,3.71,4.26,5.33,5.59l-3.68-.5.97,1.85c.26.48,6.05,11.59,10.58,14.6.98.64,1.83,1.18,2.61,1.68l-2.04-.1.5,1.53c.03.17,1.46,4.31,4.55,7.35.61.53,1.11,1.02,1.65,1.44l-2.92-.17,1.19,1.81c.16.26,4.06,6.22,8.09,9.72.75.62,1.3,1.16,1.79,1.59l-3.25-.69,2.06,2.47s.72.8,1.74,2c-.34-.29-.62-.58-.95-.81l-.88-.71-.7.93c-1.12-2.75-3.46-7.42-8.3-12.17l-.97-.93-.73,1.11c-.04.12-.31.52-.62,1.09-2.42-7.09-3.94-9.13-9.67-14.7l-.98-.98-.72,1.17c-1.28-2.66-4.09-7.08-9.76-10l-1.08-.56-.44,1.12c-.12.31-.24.62-.4,1-1.25-2.79-4.03-7.03-9.92-10.26l-.71-.39-.59.57c-.25.22-.52.67-.83,1.19-1.29-2.72-4.28-7.45-10.22-11.31l-1.23-.76-.39,1.4c-.07.24-.2.5-.26.8-1.49-2.51-4.82-5.97-12.41-9.59ZM783.23,818.96l-.22-1.23.85-.73-.85-.89c1.61-.06,3.85-.16,6.56-.53.85-.09,1.74-.31,2.57-.51-2.73.89-5.85,2.25-8.88,4.36,0-.29-.01-.4-.02-.46ZM776.42,820.69c-1.4.6-2.84,1.26-4.18,1.84l.58-.33-.99-.69c1.75-.25,3.26-.52,4.6-.82ZM749.59,808.98c.43-.54.86-1.02,1.25-1.44-.45.72-.83,1.53-1.2,2.35l-.05-.92ZM717.01,817.32l-.05.7c-.58-1-1.3-2.08-2.07-3.16.66.81,1.39,1.66,2.11,2.46ZM650.8,760.25l-.06.18c0-.06-.02-.13-.04-.2l.09.02Z"/>
  <path class="st0" d="M83.25,750.27l-1.69.09.32,1.72c.01.41.14.83.2,1.3-3.46-2.66-9.8-5.53-20.44-4.67l-1.64.16.22,1.59c-.01.11-.03.23.01.41-3.12-2.62-8.47-5.96-16.73-6.79l-1.83-.21.08,1.81c.03.29-.01.64,0,.93-2.6-1.57-7.21-3.32-15.32-3.85-8.4-.5-18.62-5.9-18.74-5.92l-7.7-4.07,5.87,6.47c1.14,1.18,2.3,2.64,3.63,4.19,4.69,5.64,10.55,12.63,17.24,16.47,3.53,2.09,8.02,3.3,11.43,3.92-.62.39-1.25.78-1.77,1.3l-.97.87.68,1.12c4.31,6.87,15.71,8.01,20.91,8.14l-.82,1.59.72.78c.15.19,4.05,4.58,10.18,5.75,3.8.72,7.53.57,10.05.34-.38.82-.96,1.8-1.56,3.01l-.65,1.14,1.06.82c6.47,4.74,16.56,3.7,22.08,2.53-.37.71-.68,1.37-.88,2.16l-.39,1.35,1.33.5c10.7,3.78,18.56,2.94,23.05,1.66-.22.38-.42.65-.63.91l-1.29,1.65,1.95.74c6.5,2.43,10.19,3.14,15.07,3.01,2.04-.06,4.11-.46,5.91-.95l-.69.97,1.65.77c.17.08,5.56,2.55,10.98,2.3,2.44-.07,5.13-.74,7.41-1.41l-1.19,1.77,2.52.29c1.03.12,9.78,1.18,13.52.39,1.9-.36,5.23-1.66,8.03-2.85l-2.02,2.96,2.45.34c.4.1,11.05,1.73,16.46.03,2.28-.67,5.31-1.83,7.93-2.97l-1.69,2.07,3.31-.03c.41-.01,10.61,0,14.67-.52,2.94-.36,6.25-1.95,8.16-2.95l.45,1.1c-1.25.26-2.32.49-3.4.83l-2.89.95,1.5,1.1c-1.99.12-4.27.38-6.24.79-4.76,1.08-11.83,5.13-12.98,6.04l-1.96,1.46,1.31.73c-3.87.89-9.73,2.94-14.67,8.11l-1.11,1.09,1.09,1.11c.17.08.22.14.32.27-3.72,1.08-9.59,3.77-15.09,10.73l-1.49,1.91,2.31.56c-3.48,1.51-7.61,4.17-10.67,8.69l-.83,1.18,1.12.88c.42.4,1.01.75,1.67,1.06-2.73,1.54-6.45,4.18-8.79,8.44-3.79,6.75-7.01,17.63-7.17,18.07l-.95,3.25,3.11-1.32c.55-.23,13.48-5.82,18.27-8.69,3.6-2.13,6.93-5.81,8.97-8.47l.47,3.47,1.76-.67c.31-.14,6.97-2.62,10.53-6.91.94-1.17,1.86-2.62,2.66-3.98l.62,5.23,1.81-.6c.29-.02,6.39-2.16,9.78-6.93.85-1.3,1.55-2.37,2.12-3.35l1.35,5.37,1.73-.96c.5-.29,10.69-5.79,14.6-14.09.15.71.28,1.13.28,1.13l.52,2.09,1.82-1.24c.82-.54,8.3-5.66,9.78-9.95.59-1.61,1.02-3.83,1.38-5.99l.69,2.05,1.72-1.37c.51-.41,4.91-3.9,6.22-6.19.37-.71.74-1.42,1.06-2.2.1.65.13,1.35.23,2,.86,7.63,1.76,14.93,2.18,16.88.6,2.85,4.59,44.81,6.01,60.74l.1,1.17,1.19.2c2.55.47,7.79,1.3,11.27.83,1.12-.16,2.14-.45,3.83-.54,1.61-1.38,1.14-4.85-5.57-28.23-2.2-7.61-4.22-14.74-4.52-17.21-.12-1.46-.57-4.64-1.02-8.75-1.05-9.05-2.58-21.97-3.75-31.44,4.04,4.17,9.16,8.53,12.86,10.69l1.95,1.15.43-2.21c.04-.34.08-.69.17-.97,2.86,3.34,8.11,8.12,16.04,9.2l1.65.25.17-3.46c1.02,1.16,2.41,2.25,4.06,3.02,4.41,2.01,8.59,1.91,8.77,1.87l1.92-.07-.46-2.02c1.61,1.11,3.8,2.29,6.37,3.05,6.34,1.83,11.57,1.21,11.75,1.18l3.82-.43-2.35-1.78c4.42,1.38,8.98,2.02,9.21,2.04l2.45.34-.77-2.41c1.36.79,2.83,1.6,4.13,1.92,2.92.8,8.26.72,8.49.74l2.56-.05-.67-1.24c1.87.91,3.91,1.78,5.38,2.07,3.52.64,6.71.6,6.83.61l1.74-.03-.12-.94c1.46.92,3.44,1.85,5.65,2.27.56.18,1.18.31,1.87.39,4.83.84,12.89,2.35,16.34,5.12l6.1,4.93-3.79-6.87c-5.62-10.09-8.61-13.33-13.66-17.85-2.94-2.66-6.89-4.09-9.81-4.89,1.08-.86,2.13-1.9,2.26-3.04l.1-.91-.75-.55c-1.71-1.24-4.49-2.78-7.25-3.5-1.02-.23-2.11-.3-3.22-.25l.96-1.28-1.46-.92c-.33-.16-6.98-4.34-14.6-3.59.06-.05.13-.1.13-.1l1.29-1.65-1.94-.74c-.39-.1-7.78-2.87-15.21-1.34.5-.81.72-1.19.72-1.19l1.03-1.85-2.05-.35c-.4-.1-8.29-1.53-14.24-.13.14-.22.15-.33.15-.33l.69-2.01-2.14-.07c-.41.01-8.9-.21-15.48,1.58l.26-.72-1.82-.32c-.11-.01-1.31-.21-2.98-.34,6.04-.64,10.89-.95,11-.94l4.09-.23-5.21-4.07c4.33-.32,10.94-.89,13.65-1.8,4.28-1.42,7.47-3.95,7.6-4.06l1.46-1.16-.42-.4c2.66.07,5.9.1,8.2-.28,9.52-1.63,11.75-3.93,13.26-5.43.21-.27.4-.42.59-.57l1.34-1.06-1.19-1.24c-.25-.32-.52-.53-.72-.78,6.42.62,16-.02,23.2-7.71l.93-1.05-.98-1.1c-.3-.38-.67-.71-.93-1.03,2.87.21,6.87.27,10.34-.72,6.23-1.72,12.16-5.91,12.41-6.11l1.71-1.25-1.81-1.37c4.11-.46,10.32-1.54,13.93-3.68,5.48-3.31,9.82-8.32,9.96-8.53l1.47-1.69-1.5-.58c2.52-.75,5.45-2.04,7.48-4.07,4-4.01,5.4-6.68,5.42-6.8l.54-1.16-2.92-2.36c4.3-.61,10.73-2.59,13.65-8.87l.54-1.16-1.01-.75c-.53-.41-1.11-.88-1.76-1.3,4.36-.66,10.49-3.03,14.65-10.49l.81-1.47-.88-.45c4.08-1.68,10.74-4.68,15.98-8.95,6.59-5.44,17.41-20.9,17.83-21.54l3.32-4.72-5.21,2.47c-3.67,1.67-10.98,3.2-17.44,4.49-5.64,1.15-10.92,2.22-13.83,3.4-3.21,1.2-6.17,3.24-8.52,4.99l.36-1.12-2.54.46c-.36.08-8.96,1.81-12.75,3.99-.87.48-1.57,1.04-2.2,1.54l.27-1.36-2.18.27c-1,.17-10.56,1.63-14,4.36-.83.66-1.61,1.38-2.35,2.28l.4-1.98-1.99.12c-.29.02-8.81.55-13.58,3.71-1.63,1.09-3.13,2.48-4.33,3.85l.22-2.47-2.09.51c-.36.08-9.95,2.39-14.44,6.69-.86.89-1.59,1.67-2.25,2.41l.56-4.4-2.34.72c-.42.13-9.93,3.21-15.69,7.88-1.15.91-2.18,1.84-3.1,2.77l1.07-3.24-3.32,1.7c-.37.19-9.86,5.13-15.3,10.59-1.57,1.56-2.78,3.04-3.87,4.42l.36-2.16-2.79,1.59c-.25.2-3.96,2.21-8.2,6.3,4.21-4.39,7.09-9.27,7.23-9.49l1.43-2.39-2.79.03s-.81.02-1.97,0c13.41-8.26,16.52-19.67,16.63-20.17l.54-2.2-2.35.31c14.33-9.71,15.9-19.91,15.96-20.37l.26-1.77-2.26.03c1.94-1.23,4.03-2.78,5.64-4.68,4.22-4.91,7.52-18.56,7.7-19.11l.55-2.31-3.42.53c1.92-1.63,3.94-3.55,5.26-5.42,3.07-4.52,5.86-14.22,5.97-14.62l.59-2.13-5.31.26c2.36-1.87,5.19-4.33,6.8-6.75,3.16-4.8,6.47-18.96,6.59-19.59l.48-2.15-3.23.38c.6-.69,1.21-1.48,1.89-2.33,3.08-4.11,5.78-17.59,6.13-19.12l.43-2.21-2.25.44s-.11-.01-.58.05c4.32-5.82,3.74-14.93,3.68-15.4l-.16-1.64-2.29.26c1.28-1.53,2.65-3.35,3.36-5.06,1.76-4.2,1.46-29.86,1.36-32.07l-.21-6.28-2.74,5.71c-2.2,4.56-5.36,8.31-8.5,11.95-4.48,5.22-9.17,10.72-10.84,18.7-.34-.56-.68-1.12-.97-1.62l-1.13-1.81-1.34,1.58c-5.01,5.74-7.12,10.54-7.97,13.92-.14-.3-.17-.6-.25-.84l-.51-2.09-1.76,1.19c-5.38,3.44-7.92,9.93-9.09,14.6l-1.41-3.35-1.66,1.84c-.2.27-4.66,5.26-7.37,9.7-1.14,1.84-1.92,4.13-2.45,6.21l-1.62-5.05-1.8,2.57c-.06.05-3.62,5.27-7.82,11.1-2.49,3.54-3.63,7.87-4.17,11.11-.5-.75-.94-1.44-1.33-2.06l-1.12-1.81-1.41,1.64c-7.6,8.63-9.36,17.94-9.46,24.36-.48-.87-.92-1.56-1.28-2l-1.32-1.66-1.24,1.71c-7.24,10.53-7.98,21.11-7.43,27.84-.66-.83-1.27-1.59-1.72-2.17l-1.33-1.54-1.13,1.73c-6.38,9.64-6.66,21.72-6.17,28.5l-1.89-2.24-1.06,2.2c-.15.33-3.75,7.97-4.8,16.08-.47,3.6-.39,9.46-.19,13.77l-3.15-4.36-.74,3.39c-.06.05-1.84,8.43-3.55,13.74-.86,2.45-1.11,5.67-1.21,8.55l-2.15-4.54-1.07,4.28c-.02.23-.97,4.41-1.75,8.15l-1.33.95c.94-2.62,1.98-5.63,2.45-8.18,1.05-5.62,1.09-12.51,1.06-12.8v-3.13s-1.63,1.2-1.63,1.2c1.19-2.82,2.45-6.21,2.6-9.03.39-5.92-.96-13.9-1.03-14.26l-.37-2.3-4.05,2.49c1.43-3.32,3.17-7.93,3.78-11.74,1.25-7.86.46-18.15.45-18.55l-.2-2.75-4.79,3.39c1.88-3.78,3.96-8.76,4.43-12.88.92-7.49.11-18.59.04-19.06l-.17-2.05-4.58,1.56c1.73-3.98,4.3-10.69,4.11-17.09-.23-9.59-2.79-16.08-2.88-16.33l-.72-1.82-3.34,2.34c.98-3.48,2.14-8.56,2.14-12.62.04-6.89-1.79-15.74-1.86-16.09l-.47-2.43-4.58,3.53c.72-3.28,1.54-7.88,1.3-11.85-.46-7.12-2.08-15.19-2.16-15.55l-.45-2.14-4.79,2.87c.58-2.54.94-6.15.38-10.91-1.14-10.22-2.3-13.25-2.41-13.38l-.67-1.76-4.36,2.63c.69-2.53,1.32-5.93,1.17-9.14-.35-6.07-1.86-13.08-1.89-13.37l-.54-2.38-4.83,3.73c.4-1.46.82-3.15.97-4.93.58-6.6-2.65-15.78-2.78-16.2l-.7-1.94-2.97,2.15c.53-2.08.93-4.59.84-6.8-.22-4.61-1.74-10.57-1.83-10.82l-.55-2.27-2.28,1.71c.3-1.59.51-3.42.39-5.4-.29-4.55-1.16-9.06-1.2-9.24l-.59-2.96-2.9,3.03c.4-6.56.04-19.06-6.53-31.52-2.43-4.62-7.26-19.61-7.29-19.79l-2.94-9.2-.06,9.61c-.01.11-.12,8.62-1.44,17.57-2.03,14.2.84,29.08,2.49,35.87-.33-.16-.59-.36-.98-.58l-1.99-1.33-.39,2.39c-.94,6.15.58,11.6,2.09,15.08l-1.21-.6-.73,1.31c-3.01,5.51-.7,13.13,1.27,17.71-.54-.3-1.09-.59-1.69-.95l-1.69-.95-.62,1.84c-2.46,7.78.09,14.38,2.68,18.57-.5-.23-.93-.51-1.36-.79l-1.45-1.04-.82,1.59c-4.18,8.1-.08,17.84,3.87,24.38l-5.96-4.1-.54,2.2c-.14.74-3.58,15.53,2.47,27.47-1.74-1.01-2.82-1.71-2.82-1.71l-1.84-1.14-.48,2.15c-.18.56-2.76,13.42-.05,20.63.9,2.3,1.83,4.26,2.64,5.81l-4.74-2.17-.21,2.87c-.27,4.37-.98,14.61,1.03,20.81.94,2.89,2.31,5.65,3.62,7.83l-3.68-1.76.16,2.68c.05.59.97,14.31,4.02,23.53.72,2.34,1.72,4.25,2.69,5.87l-2.87-1.26.12,2.51c-.03.75.63,17.28,3.92,23.92,1.81,3.45,4.12,6.5,5.97,8.57l-3.33-.27.25,1.88c.06.47,1.62,12.12,6.32,18.17,2.21,2.92,4.79,5.77,6.86,7.86l-2.38-.51.49,2.32c.06.47,2.77,12.26,5.08,16.35,1.26,2.12,2.97,4.4,4.45,6.13l-2.62-.42.72,2.34c.14.31,1.59,5.28,3.52,9.68-.1-.13-.21-.14-.31-.27l-1.9-1.61-.23,1.02c-2.23-5.3-5.65-12.88-8.25-15.49l-1.71-1.76-.85,2.34c-.06.05-.14.21-.15.33-1.11-6.5-4.2-15.9-12.46-20.67l-1.57-.93-.49,1.22c-.67-4.25-1.53-8.87-2.82-11.28-2.58-4.82-10.15-14.61-10.45-14.99l-1.82-2.3-1.86,5.64c-1.49-6.2-5.81-15.04-17.47-21.48l-1.69-.95-.57,1.91c-.19.67-.43,1.69-.62,2.88-1.29-4.38-3.31-9.54-6.39-13.02-5.43-6.19-12.96-10.3-13.29-10.45l-1.69-.95-1.08,3.87c-1.7-5.93-6.28-13.93-17.98-18.58l-1.5-.58-.58,1.5c-.23.49-.44,1.28-.64,2.07-.98-3.07-2.56-6.5-5.19-8.77-5.48-4.8-13.9-8.2-14.23-8.36l-1.83-.73-.29,2c-1.59-2.27-3.9-4.91-6.58-6.32-4.71-2.4-9.04-4.05-9.21-4.13l-1.78-.67-.64,4.04c-2.43-4.1-7.35-9.65-16.88-13.01l-2.01-.69-.07,2.14c-.03.23.01.41-.01.64-2.32-2.53-6.17-5.81-11.89-8.03-10.16-3.89-28.64-5.95-29.38-6.1,0,0,9.12,9.39,14.29,15.38,4.86,5.6,9.83,11.33,14.57,14.94-1.23.15-1.98.12-1.98.12l-2.38.02.97,2.14c.14.31,3.65,8.13,7.85,11.86,1.79,1.6,4.17,3.03,6.26,4.08-.47.06-.89.19-1.43.3l-2.2.5,1.24,1.82c6.91,10.53,14.62,16.05,19.69,18.78-.94.12-1.77.26-2.37.42l-1.6.34.45,1.62c2.5,8.52,10.78,14.11,16.14,16.92l-5.5.93.78,1.77c.14.3,4.07,9.45,9.91,13.65,2.78,2.06,5.62,3.54,7.83,4.49l-5.82,2.23,1.2,1.65c.3.38,6.39,8.44,13.4,12.55,2.23,1.24,4.21,2.17,5.94,2.77-.71.15-1.25.26-1.54.29l-3.33.25,2.39,2.36c.62.65,1.18,1.35,1.9,2.13,2.92,3.29,6.88,7.74,14.32,10.05,2.12.71,4.33,1.13,6.28,1.36l-2.93,1.29,1.04,1.57c.2.25,4.19,5.93,12.77,9.93,3.8,1.77,7.56,2.84,10.51,3.41l-4.97,1.87,2.48,1.67c.65.42,15.49,10.47,23.23,11.19,1.66.14,3.1.24,4.42.34l-2.64,1.26,1.67,1.58c.15.19,4.77,4.43,10.71,6.16,1.13.25,2.08.53,3.05.7l-3.8,1.77,2.73,1.47c.38.22,9.33,5.07,16.79,6.74,1.36.27,2.43.57,3.33.79l-4.56,1.33,4.27,1.7s1.45.51,3.55,1.34c-.62-.13-1.18-.31-1.75-.38l-1.59-.3-.25,1.65c-3.28-2.7-9.4-6.99-18.71-9.68l-1.85-.5-.16,1.89c.04.18-.04.86-.03,1.79-7.86-7.28-11.16-8.82-22.16-11.93l-1.91-.57-.11,1.96c-3.42-2.48-9.96-6.13-19.08-5.96l-1.74.03.21,1.7c.06.47.12.94.17,1.53-3.46-2.66-9.85-6.12-19.46-6.18l-1.16-.02-.36,1.12c-.17.44-.2,1.2-.24,2.06-3.48-2.54-10.44-6.47-20.55-7.28l-2.07-.12.46,2.02c.08.36.09.76.21,1.18-3.58-2.15-10.12-4.24-22.13-3.64ZM313.69,741.76l-1.11-1.4.58-1.5-1.68-.54c1.99-1.16,4.73-2.82,7.89-5.12,1.01-.7,1.98-1.57,2.88-2.39-2.83,2.98-5.82,6.81-8.22,11.52-.19-.37-.29-.5-.34-.56ZM306.3,748.56c-1.35,1.7-2.72,3.51-4.01,5.16l.5-.81-1.72-.2c2.03-1.5,3.75-2.87,5.23-4.15ZM264.57,752.06c.17-.97.39-1.87.59-2.66-.08,1.21,0,2.49.09,3.78l-.68-1.12ZM229.24,784.69l.42.92c-1.41-.86-3.05-1.74-4.75-2.57,1.38.57,2.88,1.14,4.33,1.66ZM107.15,757.86l.05.27c-.06-.07-.12-.15-.18-.23l.13-.04Z"/>
  <path class="st0" d="M367.82,64.79l1.08-.63-.79-1.02c-.14-.26-.37-.5-.57-.78,3.16.58,8.28.34,14.98-3.8l1.02-.66-.68-.97c-.03-.08-.06-.16-.14-.26,2.92.67,7.56,1.07,13.25-1.16l1.27-.48-.66-1.16c-.12-.18-.2-.42-.32-.61,2.23.16,5.84-.24,11.34-2.61,5.68-2.49,14.2-2.37,14.28-2.4l6.42.09-6.02-2.28c-1.14-.39-2.4-.96-3.79-1.53-4.96-2.13-11.16-4.75-16.83-5.02-3.01-.19-6.37.53-8.81,1.26.28-.46.56-.93.73-1.45l.34-.9-.82-.51c-5.13-3.06-12.99.02-16.45,1.67v-1.32s-.73-.27-.73-.27c-.16-.07-4.19-1.65-8.6-.36-2.74.8-5.13,2.15-6.71,3.15-.03-.67.03-1.51.02-2.5l.05-.97-.97-.18c-5.83-.94-12.1,3.13-15.34,5.74,0-.59-.01-1.13-.14-1.71l-.2-1.01-1.04.12c-8.28,1.11-13.16,4.29-15.68,6.64.01-.32.06-.57.1-.81l.29-1.52-1.53.17c-5.08.59-7.74,1.36-10.89,3.08-1.32.72-2.54,1.68-3.56,2.6l.13-.87-1.34.05c-.13,0-4.5.19-7.98,2.17-1.58.86-3.11,2.21-4.39,3.41l.18-1.56-1.75.65c-.71.27-6.81,2.5-9,4.28-1.12.87-2.88,2.84-4.32,4.56l.33-2.62-1.72.6c-.29.07-7.83,2.57-10.81,5.5-1.27,1.2-2.87,2.98-4.21,4.61l.41-1.92-2.16,1.13c-.26.14-6.96,3.56-9.45,5.26-1.81,1.22-3.45,3.37-4.37,4.67l-.66-.57c.73-.59,1.36-1.1,1.95-1.68l1.58-1.59-1.35-.22c1.26-.75,2.68-1.68,3.82-2.61,2.76-2.3,6.04-7.34,6.49-8.32l.8-1.61-1.1-.04c2.24-1.88,5.4-5.19,6.9-10.24l.36-1.09-1.09-.36c-.13,0-.19-.02-.3-.07,2.08-1.96,5.03-5.69,6.3-12.1l.34-1.76-1.7.41c1.77-2.16,3.59-5.29,4.09-9.28l.15-1.05-1.03-.2c-.41-.12-.92-.16-1.45-.14,1.27-1.92,2.83-4.91,2.94-8.48.22-5.7-1.31-13.91-1.35-14.26l-.47-2.45-1.59,1.91c-.28.33-6.89,8.33-9.07,11.83-1.65,2.61-2.59,6.13-3.04,8.57l-1.47-2.12-.93,1.03c-.15.19-3.69,4.06-4.59,8.06-.23,1.08-.34,2.35-.41,3.51l-2.16-3.22-.98,1c-.18.11-3.47,3.56-4.09,7.83-.12,1.13-.22,2.07-.27,2.91l-2.69-3.07-.81,1.21c-.23.36-5.07,7.38-4.85,14.14-.34-.42-.56-.65-.56-.65l-1.04-1.2-.78,1.42c-.35.63-3.55,6.49-3.08,9.8.15,1.26.61,2.85,1.1,4.39l-1.14-1.11-.67,1.47c-.2.44-1.91,4.21-2.01,6.14,0,.59-.01,1.18.04,1.8-.28-.39-.54-.84-.82-1.23-3.13-4.72-6.16-9.2-7.09-10.35-1.35-1.67-18.04-27.86-24.31-37.83l-.46-.74-.85.27c-1.83.55-5.55,1.76-7.67,3.23-.68.48-1.25,1.01-2.33,1.64-.59,1.45.88,3.56,13.12,16.65,4,4.26,7.71,8.25,8.74,9.77.57.92,1.93,2.86,3.61,5.4,3.72,5.58,9.06,13.55,13,19.37-4.05-1.38-8.87-2.52-12.02-2.7l-1.67-.1.46,1.59c.09.24.18.48.21.69-3-1.23-8.04-2.61-13.61-.66l-1.17.39,1.05,2.33c-1.06-.42-2.33-.67-3.67-.62-3.57.16-6.28,1.63-6.38,1.71l-1.24.69.98,1.17c-1.43-.19-3.26-.23-5.2.14-4.77.93-8,3.09-8.1,3.17l-2.36,1.56,2.14.38c-3.36.58-6.57,1.69-6.73,1.75l-1.72.6,1.31,1.32c-1.16-.07-2.39-.1-3.35.12-2.19.46-5.66,2.3-5.82,2.36l-1.66.89.86.59c-1.53.03-3.16.14-4.22.45-2.52.76-4.6,1.86-4.68,1.89l-1.13.6.4.58c-1.27-.11-2.88-.06-4.47.4-.43.07-.88.19-1.35.37-3.45,1.07-9.24,2.78-12.44,2.12l-5.66-1.19,4.79,3.24c7.07,4.73,10.12,5.86,14.95,7.13,2.82.76,5.89.38,8.08-.08-.42.93-.76,1.96-.46,2.76l.24.63.67.11c1.54.24,3.88.31,5.93-.14.75-.19,1.49-.51,2.2-.91l-.2,1.16,1.27.11c.27,0,6.03.5,10.78-2.54-.02.05-.05.11-.05.11l-.29,1.51,1.52-.16c.29-.06,6.07-.73,10.42-4.22-.06.7-.07,1.02-.07,1.02l-.05,1.56,1.46-.46c.29-.07,5.95-1.78,9.39-4.69-.02.19.01.27.01.27l.22,1.55,1.43-.67c.26-.14,5.91-2.85,9.63-6.23l.07.56,1.3-.4c.08-.03.93-.3,2.07-.78-3.75,2.45-6.83,4.28-6.9,4.31l-2.6,1.52,4.79.92c-2.73,1.66-6.88,4.25-8.35,5.76-2.33,2.37-3.57,5.1-3.62,5.21l-.57,1.25.41.12c-1.77.84-3.9,1.92-5.29,2.93-5.7,4.26-6.39,6.52-6.88,8.01-.05.24-.12.41-.19.57l-.52,1.15,1.2.41c.27.12.52.17.73.27-4.42,1.75-10.49,5.38-12.63,12.84l-.26,1,1.01.39c.33.15.68.24.95.37-1.96.82-4.59,2.13-6.54,3.94-3.51,3.22-5.99,7.95-6.09,8.17l-.7,1.39,1.65.29c-2.54,1.68-6.25,4.47-7.9,7.08-2.48,4.01-3.65,8.75-3.67,8.94l-.4,1.6,1.18-.12c-1.4,1.34-2.89,3.17-3.54,5.18-1.28,3.97-1.3,6.2-1.27,6.28l.03.94,2.71.57c-2.62,1.84-6.17,5.3-5.98,10.39l.03.94.92.16c.49.09,1.03.21,1.59.26-2.64,1.89-5.87,5.5-6.09,11.79l-.03,1.24h.72c-2.11,2.47-5.48,6.67-7.48,11.23-2.5,5.78-4.41,19.55-4.47,20.11l-.6,4.21,2.59-3.37c1.85-2.32,6.13-5.78,9.94-8.79,3.31-2.64,6.42-5.12,7.94-6.87,1.7-1.86,2.96-4.19,3.91-6.13l.14.86,1.51-1.16c.21-.17,5.27-4.19,7.02-6.89.41-.6.68-1.21.93-1.75l.28.98,1.34-.91c.6-.45,6.38-4.61,7.72-7.56.32-.71.59-1.45.78-2.29l.4,1.44,1.26-.75c.18-.11,5.6-3.32,7.66-6.99.71-1.26,1.22-2.68,1.55-3.98l.68,1.69,1.2-1.04c.21-.17,5.73-4.91,7.23-9.23.26-.87.48-1.63.67-2.33l1.11,3.08,1.3-1.26c.23-.22,5.44-5.44,7.65-10.43.45-.98.82-1.94,1.1-2.86l.39,2.48,1.61-2.23c.18-.25,4.75-6.67,6.49-12.08.51-1.55.81-2.93,1.05-4.2l.49,1.54,1.3-1.98c.1-.22,1.86-2.78,3.27-6.89-1.29,4.29-1.54,8.46-1.56,8.65l-.14,2.05,1.82-.95s.53-.29,1.29-.66c-6.03,9.91-4.24,18.44-4.15,18.81l.38,1.62,1.44-.99c-6.14,11.18-3.76,18.39-3.64,18.71l.42,1.25,1.48-.78c-.86,1.45-1.71,3.18-2.13,4.96-1.12,4.63,1.29,14.7,1.36,15.12l.41,1.7,2.07-1.5c-.72,1.72-1.4,3.65-1.63,5.32-.5,3.99.92,11.3.99,11.59l.33,1.6,3.39-1.95c-.92,2.02-1.95,4.58-2.2,6.71-.46,4.21,2.12,14.61,2.24,15.06l.41,1.57,1.99-1.33c-.16.65-.3,1.38-.46,2.16-.64,3.73,2.1,13.48,2.39,14.6l.46,1.59,1.33-1.04s.08-.03.37-.23c-.88,5.27,2.55,11.05,2.75,11.34l.65,1.02,1.42-.94c-.32,1.44-.61,3.08-.51,4.45.26,3.35,9.06,20.07,9.86,21.5l2.24,4.05-.12-4.67c-.08-3.73.73-7.25,1.57-10.69,1.19-4.93,2.42-10.11.84-15.9.41.25.82.51,1.18.74l1.35.81.35-1.49c1.36-5.45,1.14-9.3.56-11.81.19.15.31.34.45.47l1.04,1.2.76-1.37c2.38-4.06,1.87-9.17,1.07-12.63l2.05,1.72.47-1.76c.04-.24,1.29-5.01,1.58-8.84.13-1.59-.12-3.35-.47-4.9l2.76,2.77.32-2.29c.03-.06.61-4.67,1.41-9.91.45-3.16-.26-6.38-.99-8.69.58.33,1.1.63,1.56.91l1.35.81.37-1.55c2.09-8.21.13-14.91-1.96-19.15.61.41,1.13.71,1.51.89l1.42.65.24-1.54c1.22-9.33-1.84-16.52-4.46-20.75.71.32,1.37.62,1.86.84l1.39.57.16-1.51c.95-8.47-2.91-16.48-5.51-20.77l1.99.84-.04-1.8c-.01-.27-.21-6.49-2.24-12.16-.9-2.52-2.92-6.34-4.49-9.1l3.53,1.8-.65-2.47c.02-.05-1.62-6.14-2.28-10.2-.26-1.9-1.17-4.09-2.07-6.02l2.93,2.26-.73-3.17c-.06-.16-.84-3.22-1.59-5.93l.55-1.07c.26,2.03.59,4.35,1.14,6.19,1.19,4.04,3.48,8.57,3.6,8.76l1.04,2.06.68-1.34c.16,2.25.47,4.9,1.32,6.8,1.73,4.02,5.29,8.8,5.46,9.01l1.02,1.39,1.82-2.99c.18,2.65.58,6.26,1.45,8.97,1.81,5.57,5.78,12.06,5.93,12.32l1.06,1.73,2.01-3.83c.03,3.11.34,7.08,1.41,9.94,1.91,5.22,6.17,12.23,6.36,12.52l.8,1.29,2.48-2.56c.2,3.19.77,8.46,3.04,12.59,3.37,6.21,7.23,9.62,7.36,9.74l1.08.95,1.41-2.66c.52,2.61,1.47,6.34,2.83,9,2.29,4.53,6.45,9.72,6.62,9.93l1.13,1.44,1.82-3.85c.62,2.39,1.63,5.69,3.12,8.21,2.69,4.52,6.46,9.27,6.63,9.48l1.01,1.25,2.18-3.49c.47,1.86,1.45,4.35,3.41,7.28,4.18,6.32,5.95,7.92,6.06,7.97l1.03.93,1.98-3.19c.39,1.89,1.12,4.34,2.3,6.39,2.26,3.86,5.61,7.96,5.72,8.14l1.15,1.38,1.92-4.07c.23,1.09.52,2.34,1.02,3.56,1.83,4.52,7.03,9.46,7.25,9.7l1.11,1.03,1.23-2.41c.35,1.54.93,3.32,1.73,4.74,1.69,2.95,4.69,6.35,4.83,6.48l1.12,1.3.92-1.89c.34,1.14.81,2.41,1.56,3.68,1.72,2.89,3.8,5.55,3.89,5.66l1.38,1.75.88-2.96c1.93,4.44,6.37,12.52,14.85,18.49,3.14,2.22,11.34,10.43,11.42,10.54l5.02,5.05-3.19-6.33c-.03-.08-2.81-5.7-4.95-12.01-3.43-10-10.3-18.79-13.66-22.7.27,0,.51.04.83.05l1.75.2-.55-1.7c-1.45-4.35-4.27-7.42-6.43-9.19h.99s.04-1.11.04-1.11c.13-4.62-3.95-8.85-6.77-11.19.46.01.91.02,1.42.06l1.43.05-.21-1.41c-.99-5.93-4.88-9.41-7.98-11.28.4-.02.78.03,1.16.07l1.3.19v-1.32c.03-6.71-5.93-11.73-10.71-14.7l5.29.69-.38-1.62c-.15-.53-2.86-11.39-10.83-17.19,1.48.08,2.42.18,2.42.18l1.59.13-.41-1.57c-.07-.43-2.69-9.73-6.89-13.55-1.36-1.21-2.63-2.18-3.68-2.93l3.83-.17-.82-1.96c-1.29-2.96-4.26-9.91-7.65-13.31-1.59-1.58-3.41-2.94-5-3.92l3-.08-1-1.71c-.23-.37-5.43-9.06-10.53-14.09-1.26-1.3-2.55-2.21-3.73-2.95l2.3-.14-.92-1.61c-.23-.5-6.21-11.13-10.59-14.38-2.34-1.66-4.89-2.88-6.79-3.62l2.27-.94-.79-1.15c-.2-.29-5.13-7.41-10.24-9.8-2.43-1.17-5.07-2.18-7.14-2.85l1.73-.46-1.1-1.36c-.2-.29-5.92-7.11-8.81-9.02-1.54-.97-3.42-1.89-4.98-2.53l1.86-.61-1.26-1.3c-.19-.15-2.82-2.93-5.56-5.17.11.05.19.02.3.07l1.79.42-.19-.74c3.24,2.73,8.03,6.55,10.61,7.4l1.71.58-.23-1.82c.02-.05.02-.19-.01-.27,2.91,3.89,8.09,9.02,15.11,9.38l1.35.08-.09-.96c1.87,2.56,3.98,5.3,5.63,6.45,3.31,2.3,11.56,6.18,11.88,6.33l1.97.89-.67-4.32c3.06,3.57,8.85,7.92,18.67,8.23l1.43.05-.27-1.44c-.1-.51-.29-1.25-.56-2.1,2.32,2.44,5.37,5.15,8.56,6.4,5.64,2.24,11.96,2.41,12.22,2.4l1.43.05-.59-2.9c3.1,3.32,8.8,7.03,18.03,6.16l1.18-.12-.12-1.18c-.01-.4-.14-.99-.27-1.57,1.67,1.68,3.86,3.4,6.35,4.01,5.2,1.31,11.87.72,12.14.71l1.44-.13-.48-1.41c1.81.95,4.2,1.91,6.43,1.94,3.89,0,7.29-.37,7.42-.38l1.39-.16-.94-2.87c2.97,1.88,8.06,3.87,15.44,2.87l1.55-.22-.67-1.43c-.06-.16-.14-.26-.2-.42,2.37.88,6,1.74,10.49,1.28,7.97-.85,20.79-5.7,21.32-5.85,0,0-9.14-3.1-14.53-5.3-5.07-2.04-10.25-4.14-14.57-4.92.76-.51,1.26-.74,1.26-.74l1.55-.81-1.36-1.08c-.19-.15-5.12-4.11-9.13-5.14-1.71-.45-3.75-.59-5.47-.58.29-.2.52-.42.83-.68l1.28-1.07-1.42-.78c-8.06-4.59-14.97-5.63-19.22-5.72.58-.4,1.07-.76,1.41-1.07l.94-.76-.84-.91c-4.5-4.75-11.8-5.64-16.26-5.69l3.29-2.45-1.11-.9c-.19-.15-5.84-4.83-11.08-5.63-2.51-.42-4.88-.44-6.64-.32l3.07-3.42-1.34-.68c-.33-.15-7.02-3.39-13-3.74-1.88-.07-3.49,0-4.83.18.42-.34.73-.59.91-.71l2.1-1.28-2.36-.75c-.63-.22-1.23-.49-1.96-.76-3.02-1.18-7.11-2.77-12.76-1.79-1.63.25-3.22.71-4.57,1.21l1.49-1.82-1.21-.68c-.22-.1-4.74-2.48-11.71-2.23-3.08.11-5.91.67-8.04,1.29l2.63-2.89-2.19-.27c-.57-.06-13.67-1.68-18.99.45-1.14.47-2.12.88-3.01,1.26l1.31-1.71-1.63-.48c-.16-.07-4.61-1.31-9.09-.45-.82.22-1.54.35-2.24.57l1.9-2.43-2.28-.05c-.32-.01-7.82-.2-13.27,1.21-.98.28-1.78.44-2.45.6l2.54-2.4-3.37.31s-1.12.15-2.78.31c.45-.12.88-.19,1.28-.34l1.14-.34-.39-1.17c3.06.67,8.51,1.43,15.52.08l1.39-.29-.53-1.3c-.08-.1-.26-.58-.58-1.19,7.6,2.14,10.28,2.04,18.54.4l1.44-.27-.59-1.32c3.08.48,8.59.68,14.51-2.49l1.13-.61-.71-1.05c-.2-.29-.4-.58-.62-.94,3.16.58,8.51.71,14.84-2.47l.77-.38-.14-.85c-.04-.35-.27-.85-.54-1.43,3.13.5,9.02.74,15.93-2.11l1.4-.61-.98-1.17c-.17-.21-.31-.47-.54-.71,3.07.21,8.06-.61,15.74-5.03ZM219.5,147.65l1.2.55.12,1.18,1.28-.21c-.91,1.43-2.16,3.44-3.46,6.01-.43.79-.77,1.69-1.09,2.54.86-2.9,1.54-6.42,1.53-10.31.25.18.36.23.41.25ZM222.06,140.71c.32-1.57.61-3.22.9-4.73l-.06.7,1.19-.45c-.82,1.67-1.5,3.14-2.04,4.48ZM248.26,124.42c.21.69.37,1.36.5,1.94-.35-.82-.84-1.63-1.32-2.45l.82.51ZM260.5,91.16l-.58-.46c1.21.09,2.58.12,3.98.1-1.1.09-2.27.22-3.4.37ZM349.6,67.83l-.12-.16c.06.03.13.06.2.09l-.07.07Z"/>
  <path class="st0" d="M1324.73,225.34l.87.89.8-1.01c.22-.2.39-.48.63-.74.2,3.21,1.67,8.12,7.3,13.62l.88.83.77-.89c.07-.05.14-.1.22-.2.06,3,.79,7.59,4.32,12.58l.77,1.12.96-.92c.15-.16.36-.3.51-.45.38,2.21,1.64,5.61,5.28,10.38,3.79,4.91,5.73,13.2,5.78,13.28l1.46,6.25.76-6.39c.1-1.2.35-2.56.57-4.04.87-5.33,1.91-11.97.81-17.55-.55-2.97-2.05-6.05-3.35-8.25.52.16,1.04.31,1.58.35l.95.12.29-.92c1.73-5.72-3.15-12.61-5.6-15.56l1.28-.31.08-.78c.03-.18.59-4.47-1.73-8.44-1.44-2.46-3.32-4.46-4.67-5.75.64-.19,1.47-.34,2.43-.59l.95-.19-.06-.99c-.49-5.89-5.96-10.99-9.27-13.5.58-.14,1.09-.29,1.63-.55l.94-.44-.36-.98c-3.08-7.77-7.34-11.73-10.23-13.61.32-.06.56-.08.81-.09l1.54-.08-.53-1.44c-1.8-4.79-3.18-7.18-5.62-9.83-1.02-1.1-2.24-2.06-3.38-2.82l.87-.08-.37-1.29c-.04-.13-1.27-4.32-4.03-7.22-1.22-1.32-2.89-2.49-4.37-3.43l1.56-.2-1.06-1.54c-.43-.63-4.07-6-6.32-7.7-1.12-.88-3.45-2.1-5.47-3.09l2.62-.31-1-1.53c-.13-.27-4.38-6.98-7.94-9.16-1.47-.94-3.58-2.07-5.49-2.97l1.97-.06-1.62-1.82c-.2-.22-5.13-5.89-7.38-7.9-1.62-1.46-4.11-2.53-5.59-3.11l.39-.78c.75.57,1.39,1.05,2.1,1.49l1.92,1.15-.12-1.36c1.03,1.05,2.28,2.19,3.46,3.08,2.9,2.12,8.58,4.09,9.64,4.29l1.76.39-.23-1.08c2.37,1.72,6.34,3.98,11.6,4.23l1.14.09.09-1.14c-.04-.13-.03-.19,0-.31,2.4,1.54,6.73,3.51,13.26,3.19l1.78-.1-.81-1.55c2.52,1.2,6,2.21,9.99,1.73l1.06-.11-.05-1.05c.02-.42-.07-.93-.22-1.44,2.17.77,5.44,1.56,8.94.8,5.58-1.16,13.18-4.63,13.51-4.76l2.27-1.04-2.24-1.09c-.39-.19-9.75-4.68-13.67-5.95-2.93-.97-6.58-1.04-9.05-.88l1.7-1.94-1.22-.65c-.23-.1-4.83-2.6-8.93-2.51-1.1.04-2.36.23-3.5.45l2.61-2.87-1.21-.71c-.15-.15-4.29-2.5-8.58-2.08-1.13.16-2.07.29-2.89.44l2.33-3.35-1.37-.5c-.4-.14-8.39-3.14-14.89-1.3.32-.43.5-.7.5-.7l.91-1.3-1.57-.41c-.7-.19-7.16-1.88-10.26-.62-1.18.45-2.62,1.28-4,2.13l.81-1.38-1.59-.3c-.47-.09-4.54-.84-6.45-.46-.57.14-1.15.28-1.73.47.31-.37.68-.73,1-1.1,3.82-4.17,7.44-8.2,8.33-9.38,1.29-1.71,22.68-24.23,30.84-32.72l.6-.62-.47-.76c-.98-1.65-3.05-4.96-4.99-6.66-.63-.54-1.29-.97-2.16-1.86-1.55-.23-3.25,1.72-12.99,16.75-3.16,4.91-6.15,9.48-7.38,10.84-.76.78-2.31,2.56-4.37,4.8-4.52,4.96-10.96,12.06-15.66,17.29.36-4.26.31-9.22-.28-12.32l-.3-1.64-1.44.83c-.21.14-.42.29-.62.37.47-3.21.59-8.43-2.65-13.37l-.66-1.04-2,1.58c.15-1.13.08-2.43-.29-3.71-1.01-3.42-3.09-5.7-3.2-5.78l-.97-1.03-.9,1.24c-.16-1.43-.56-3.22-1.39-5.02-2.05-4.41-4.92-7.01-5.03-7.1l-2.09-1.91.15,2.16c-1.38-3.12-3.23-5.97-3.32-6.11l-1-1.53-.96,1.59c-.22-1.14-.48-2.35-.93-3.22-.97-2.01-3.6-4.94-3.7-5.08l-1.27-1.4-.36.97c-.4-1.48-.9-3.03-1.46-3.99-1.35-2.27-2.92-4.02-2.97-4.09l-.86-.95-.47.52c-.19-1.26-.64-2.8-1.47-4.24-.17-.4-.4-.81-.69-1.22-1.87-3.09-4.93-8.3-5.06-11.56l-.21-5.78-1.98,5.43c-2.89,8.01-3.24,11.24-3.31,16.23-.05,2.92,1.06,5.81,2.03,7.82-1-.19-2.09-.26-2.79.22l-.56.38.06.68c.14,1.55.63,3.84,1.56,5.72.36.68.86,1.32,1.42,1.91l-1.17.09.19,1.26c.07.26.97,5.98,5.07,9.85-.06-.01-.12-.02-.12-.02l-1.54.08.53,1.44c.13.27,2.17,5.71,6.61,9.1-.69.12-1.01.18-1.01.18l-1.53.33.8,1.31c.13.27,3.16,5.35,6.82,7.98-.19.03-.26.07-.26.07l-1.45.59.99,1.22c.2.22,4.19,5.05,8.37,7.84l-.53.21.7,1.17c.05.07.52.83,1.25,1.82-3.28-3.05-5.8-5.59-5.85-5.66l-2.1-2.16.26,4.87c-2.27-2.25-5.79-5.65-7.6-6.72-2.86-1.69-5.81-2.24-5.93-2.26l-1.35-.25-.02.42c-1.25-1.51-2.8-3.33-4.12-4.43-5.51-4.5-7.87-4.63-9.43-4.74-.25.01-.42-.02-.6-.05l-1.24-.23-.11,1.26c-.05.29-.04.54-.09.78-2.76-3.87-7.75-8.88-15.51-9.16h-1.04s-.14,1.06-.14,1.06c-.07.35-.07.72-.13,1.01-1.27-1.7-3.17-3.94-5.41-5.4-3.97-2.63-9.16-3.9-9.4-3.94l-1.52-.34.12,1.67c-2.24-2.06-5.85-4.99-8.78-5.96-4.49-1.44-9.38-1.43-9.56-1.41h-1.65s.4,1.11.4,1.11c-1.64-1.04-3.77-2.04-5.88-2.19-4.16-.28-6.33.23-6.4.28l-.9.26.1,2.76c-2.42-2.1-6.63-4.71-11.53-3.3l-.9.26.07.93c.03.49.05,1.05.13,1.61-2.48-2.11-6.76-4.37-12.92-3.07l-1.21.26.17.7c-2.9-1.45-7.8-3.7-12.7-4.55-6.22-1.03-20.03.44-20.6.51l-4.23.44,3.89,1.7c2.7,1.23,7.09,4.55,10.93,7.52,3.37,2.58,6.52,4.99,8.58,6.05,2.22,1.2,4.78,1.86,6.9,2.32l-.8.34,1.49,1.19c.22.16,5.34,4.1,8.38,5.15.68.25,1.34.37,1.92.48l-.89.51,1.2,1.08c.58.47,6.01,5.08,9.2,5.67.77.14,1.55.23,2.41.2l-1.3.74,1.03,1.04c.15.15,4.57,4.63,8.63,5.75,1.4.38,2.89.54,4.23.54l-1.48,1.07,1.3.91c.22.16,6.15,4.37,10.7,4.79.91.05,1.7.07,2.43.08l-2.72,1.81,1.53.96c.27.17,6.59,3.97,11.97,4.9,1.06.2,2.08.32,3.04.38l-2.32.97,2.55,1.02c.29.11,7.62,3,13.29,3.38,1.63.12,3.04.07,4.33,0l-1.38.84,2.24.78c.23.04,3.15,1.13,7.47,1.51-4.48-.22-8.58.54-8.77.57l-2.02.36,1.36,1.53s.4.44.96,1.09c-11.07-3.46-18.92.34-19.26.52l-1.48.76,1.31,1.16c-12.33-3.26-18.76.79-19.04.99l-1.11.71,1.11,1.24c-1.62-.48-3.5-.89-5.33-.87-4.77.03-13.95,4.8-14.35,4.97l-1.55.81,1.95,1.64c-1.84-.28-3.88-.47-5.56-.3-3.99.48-10.74,3.62-11.01,3.76l-1.47.7,2.71,2.82c-2.18-.4-4.92-.79-7.05-.51-4.19.56-13.67,5.58-14.07,5.81l-1.42.77,1.78,1.61c-.67,0-1.41.04-2.21.08-3.77.28-12.57,5.3-13.59,5.84l-1.44.83,1.33,1.04s.05.07.31.3c-5.32.42-10.11,5.14-10.34,5.41l-.84.88,1.25,1.15c-1.47.03-3.14.15-4.44.58-3.19,1.06-17.29,13.64-18.48,14.76l-3.39,3.15,4.5-1.24c3.6-.98,7.21-1.04,10.75-1.06,5.07-.04,10.39-.09,15.63-3.02-.15.46-.29.92-.43,1.32l-.46,1.5,1.53-.02c5.61,0,9.3-1.14,11.59-2.31-.1.23-.25.38-.34.55l-.91,1.3,1.51.4c4.51,1.33,9.35-.4,12.52-2.01l-1.18,2.41,1.82.03c.25-.02,5.18.04,8.96-.6,1.57-.26,3.22-.93,4.64-1.64l-2.02,3.35,2.3-.24c.06.01,4.68-.54,9.95-1.02,3.17-.33,6.13-1.79,8.19-3.06-.18.64-.35,1.22-.5,1.74l-.46,1.5h1.59c8.47.03,14.5-3.49,18.11-6.54-.25.69-.42,1.26-.5,1.68l-.28,1.53,1.55-.14c9.35-1.07,15.59-5.77,19.06-9.34-.14.77-.27,1.47-.37,2.01l-.21,1.49,1.5-.21c8.45-1.12,15.29-6.81,18.82-10.36l-.33,2.13,1.73-.47c.26-.07,6.25-1.77,11.26-5.11,2.23-1.48,5.45-4.36,7.74-6.56l-.9,3.86,2.24-1.23c.06.01,5.57-3.06,9.35-4.67,1.78-.71,3.69-2.12,5.34-3.46l-1.48,3.39,2.9-1.48c.14-.1,2.92-1.59,5.37-2.97l1.17.28c-1.91.74-4.08,1.62-5.73,2.6-3.63,2.13-7.48,5.45-7.63,5.6l-1.74,1.51,1.47.33c-2.15.7-4.64,1.64-6.28,2.92-3.48,2.65-7.26,7.26-7.43,7.47l-1.1,1.32,3.35,1.05c-2.53.81-5.94,2.07-8.35,3.58-4.97,3.11-10.31,8.52-10.53,8.73l-1.43,1.44,4.2,1.02c-3.01.78-6.78,2.04-9.3,3.77-4.61,3.11-10.38,8.94-10.61,9.2l-1.06,1.09,3.08,1.79c-3.05.96-8.02,2.78-11.49,5.99-5.22,4.77-7.59,9.33-7.68,9.5l-.66,1.28,2.92.72c-2.41,1.14-5.8,2.95-8.05,4.91-3.85,3.31-7.88,8.61-8.04,8.82l-1.12,1.44,4.18.84c-2.17,1.18-5.12,2.96-7.21,5.01-3.74,3.7-7.44,8.51-7.6,8.72l-.97,1.28,3.91,1.27c-1.69.91-3.87,2.46-6.25,5.07-5.12,5.58-6.25,7.69-6.27,7.81l-.65,1.22,3.57,1.15c-1.74.84-3.94,2.14-5.64,3.77-3.2,3.13-6.37,7.36-6.52,7.52l-1.06,1.45,4.41.88c-1,.49-2.15,1.07-3.21,1.85-3.95,2.87-7.49,9.11-7.66,9.38l-.73,1.33,2.63.61c-1.41.71-3,1.7-4.18,2.82-2.45,2.35-5.03,6.08-5.13,6.25l-.99,1.4,2.05.44c-1.03.6-2.15,1.37-3.19,2.4-2.39,2.36-4.47,5.03-4.55,5.14l-1.36,1.76,3.08.14c-3.84,2.95-10.61,9.2-14.36,18.88-1.4,3.59-7.39,13.52-7.47,13.63l-3.69,6.09,5.37-4.62c.07-.05,4.85-4.1,10.46-7.7,8.87-5.74,15.75-14.53,18.73-18.74.07.26.09.5.15.82l.23,1.75,1.51-.94c3.87-2.45,6.17-5.93,7.37-8.46l.25.96,1.08-.23c4.52-.99,7.64-5.97,9.23-9.27.1.45.2.89.29,1.4l.29,1.4,1.32-.55c5.51-2.4,7.95-7.01,9.02-10.47.11.39.16.76.22,1.14l.12,1.3,1.28-.31c6.52-1.6,9.95-8.59,11.68-13.94l.6,5.3,1.48-.76c.48-.28,10.36-5.52,14.07-14.66.28,1.46.41,2.39.41,2.39l.26,1.57,1.42-.77c.4-.17,8.79-4.96,11.49-9.95.85-1.61,1.48-3.08,1.95-4.28l1.09,3.68,1.7-1.27c2.56-1.97,8.59-6.52,11.07-10.64,1.15-1.92,2.03-4.02,2.6-5.8l.81,2.9,1.42-1.39c.3-.31,7.48-7.46,11.13-13.62.95-1.53,1.53-3.01,1.96-4.33l.69,2.2,1.34-1.28c.43-.35,9.3-8.71,11.4-13.75,1.04-2.67,1.62-5.44,1.87-7.46l1.46,1.98.93-1.05c.23-.26,5.95-6.77,7.04-12.3.55-2.64.89-5.45,1.05-7.62l.87,1.56,1.05-1.39c.23-.26,5.47-7.47,6.63-10.73.57-1.73,1.01-3.78,1.25-5.44l1.04,1.66.95-1.53c.1-.22,2.17-3.44,3.67-6.64-.02.12.02.19,0,.31l.03,1.84.68-.36c-1.86,3.8-4.42,9.37-4.62,12.08l-.15,1.8,1.71-.66c.06.01.19-.03.26-.07-3.08,3.76-6.8,10.03-5.46,16.93l.24,1.33.91-.32c-2.04,2.43-4.19,5.14-4.9,7.02-1.43,3.76-3.21,12.71-3.28,13.06l-.39,2.12,4.03-1.69c-2.72,3.83-5.55,10.5-3.48,20.1l.29,1.4,1.33-.61c.47-.22,1.15-.58,1.9-1.05-1.81,2.84-3.7,6.45-4.14,9.85-.81,6.01.55,12.18.62,12.44l.29,1.4,2.68-1.27c-2.48,3.81-4.7,10.23-1.63,18.98l.4,1.11,1.11-.4c.39-.11.92-.38,1.46-.64-1.23,2.03-2.37,4.56-2.36,7.13-.02,5.37,2.16,11.69,2.24,11.95l.48,1.37,1.25-.81c-.49,1.98-.84,4.54-.33,6.71.95,3.78,2.12,6.98,2.16,7.11l.49,1.31,2.56-1.6c-1.11,3.33-1.81,8.76.94,15.67l.59,1.45,1.22-.99c.14-.1.22-.2.36-.3-.28,2.51-.24,6.24,1.29,10.49,2.75,7.53,10.55,18.8,10.83,19.28,0,0,.81-9.61,1.63-15.38.76-5.41,1.54-10.94,1.25-15.33.68.61,1.03,1.04,1.03,1.04l1.16,1.31.72-1.58c.1-.22,2.75-5.96,2.79-10.1.02-1.77-.34-3.78-.76-5.45.26.23.54.4.86.65l1.34.98.41-1.57c2.51-8.93,1.85-15.89.91-20.03.52.46,1,.86,1.38,1.11l.96.73.68-1.03c3.52-5.51,2.62-12.82,1.6-17.16l3.18,2.6.61-1.29c.1-.23,3.28-6.84,2.79-12.11-.2-2.54-.75-4.84-1.29-6.52l4.06,2.16.33-1.46c.07-.35,1.6-7.64.49-13.52-.39-1.84-.83-3.39-1.34-4.64.43.32.75.57.91.72l1.75,1.73.15-2.47c.06-.66.18-1.31.26-2.09.42-3.22.98-7.57-1.34-12.82-.63-1.52-1.47-2.96-2.28-4.15l2.13,1.01.37-1.33c.04-.24,1.27-5.2-.66-11.9-.85-2.97-2.08-5.57-3.19-7.49l3.44,1.86-.27-2.19c-.08-.56-1.67-13.67-5.02-18.32-.73-.99-1.37-1.84-1.95-2.62l1.98.85.07-1.7c.03-.18.15-4.79-1.76-8.93-.41-.75-.71-1.41-1.09-2.03l2.82,1.25-.5-2.23c-.06-.32-1.7-7.64-4.38-12.59-.51-.89-.86-1.62-1.17-2.23l2.95,1.89-1.12-3.2s-.41-1.05-.98-2.62c.23.41.4.81.64,1.16l.6,1.03,1.04-.66c.09,3.13.66,8.6,3.67,15.08l.62,1.27,1.13-.83c.08-.11.5-.4,1.01-.85-.24,7.89.5,10.47,4.09,18.09l.61,1.33,1.14-.89c.28,3.1,1.41,8.5,5.92,13.48l.86.95.84-.94c.23-.26.47-.52.77-.83.2,3.21,1.37,8.43,5.98,13.8l.55.65.79-.34c.33-.12.76-.47,1.26-.86.27,3.16,1.46,8.93,5.89,14.94l.93,1.21.9-1.24c.16-.21.38-.42.56-.69.54,3.03,2.54,7.67,8.68,14.06ZM1208.52,101.4l-.24,1.3-1.11.4.51,1.19c-1.61-.54-3.86-1.26-6.66-1.91-.87-.22-1.83-.34-2.73-.44,3.03.13,6.6-.06,10.38-1-.11.28-.14.4-.15.46ZM1215.87,102.21c1.6-.07,3.27-.19,4.81-.27l-.69.12.72,1.05c-1.82-.4-3.41-.69-4.84-.9ZM1238.01,123.71c-.62.37-1.23.69-1.76.95.71-.54,1.38-1.21,2.06-1.88l-.29.92ZM1273.23,127.56l.31-.68c.2,1.2.51,2.53.87,3.88-.35-1.04-.76-2.15-1.17-3.21ZM1317.38,208.38l.12-.16c-.01.07-.03.14-.04.21l-.08-.05Z"/>
  <path class="st0" d="M1120.57,879.62l-1.07,1.03,1.2.96c.24.26.57.47.88.75-3.83.22-9.69,1.94-16.28,8.63l-1,1.05,1.06.93c.06.08.11.17.24.27-3.58.05-9.05.9-15.02,5.08l-1.34.91,1.09,1.15c.18.18.36.43.54.61-2.63.45-6.7,1.93-12.4,6.23-5.88,4.49-15.77,6.76-15.86,6.81l-7.46,1.71,7.61.94c1.43.13,3.05.44,4.82.7,6.35,1.06,14.26,2.35,20.91,1.06,3.54-.64,7.23-2.41,9.85-3.95-.19.62-.38,1.24-.43,1.88l-.14,1.14,1.1.36c6.81,2.1,15.05-3.69,18.58-6.59l.37,1.53.93.1c.21.04,5.32.72,10.07-2.02,2.94-1.7,5.34-3.94,6.88-5.54.22.77.4,1.75.69,2.9l.22,1.13,1.18-.07c7.02-.56,13.13-7.04,16.14-10.98.16.69.34,1.3.65,1.94l.52,1.12,1.17-.43c9.28-3.62,14.03-8.69,16.29-12.12.07.38.09.67.11.97l.09,1.84,1.72-.62c5.72-2.11,8.58-3.75,11.75-6.65,1.32-1.21,2.47-2.66,3.39-4.02l.09,1.04,1.54-.44c.15-.04,5.16-1.49,8.62-4.77,1.59-1.44,2.98-3.44,4.12-5.19l.23,1.86,1.84-1.25c.75-.51,7.18-4.82,9.22-7.49,1.05-1.33,2.53-4.11,3.71-6.5l.35,3.12,1.83-1.18c.32-.16,8.34-5.19,10.97-9.42,1.13-1.75,2.49-4.26,3.57-6.53l.06,2.34,2.18-1.92c.26-.24,7.06-6.09,9.46-8.76,1.75-1.92,3.04-4.88,3.74-6.64l.93.47c-.68.89-1.26,1.65-1.79,2.5l-1.38,2.29,1.63-.13c-1.25,1.22-2.63,2.7-3.69,4.1-2.55,3.45-4.93,10.2-5.17,11.47l-.47,2.1,1.29-.26c-2.06,2.81-4.78,7.54-5.1,13.81l-.11,1.36,1.36.11c.15-.04.22-.03.36,0-1.85,2.85-4.22,8.01-3.88,15.79l.1,2.13,1.86-.96c-1.44,3-2.67,7.14-2.12,11.9l.12,1.26,1.25-.06c.5.03,1.11-.08,1.72-.25-.93,2.59-1.89,6.48-1.01,10.66,1.35,6.66,5.45,15.74,5.6,16.14l1.23,2.71,1.31-2.66c.23-.47,5.63-11.6,7.17-16.26,1.17-3.49,1.27-7.84,1.1-10.78l2.31,2.04.79-1.45c.12-.27,3.13-5.74,3.04-10.64-.04-1.32-.27-2.82-.52-4.18l3.41,3.12.86-1.44c.18-.18,3.01-5.11,2.53-10.22-.18-1.35-.33-2.46-.51-3.45l3.98,2.8.6-1.63c.16-.48,3.79-9.98,1.63-17.75.51.39.83.59.83.59l1.54,1.09.5-1.87c.23-.83,2.28-8.52.8-12.23-.53-1.41-1.52-3.13-2.51-4.77l1.64.97.36-1.9c.11-.56,1.03-5.41.59-7.68-.16-.68-.32-1.37-.55-2.07.44.38.86.82,1.3,1.19,4.95,4.58,9.74,8.92,11.14,9.98,2.03,1.55,28.76,27.17,38.85,36.95l.74.72.91-.55c1.97-1.15,5.93-3.61,7.97-5.91.65-.75,1.16-1.53,2.24-2.56.28-1.84-2.03-3.88-19.9-15.58-5.83-3.8-11.27-7.38-12.88-8.85-.92-.9-3.04-2.76-5.7-5.24-5.89-5.42-14.32-13.14-20.53-18.76,5.08.46,10.99.42,14.69-.27l1.96-.35-.98-1.72c-.17-.25-.34-.5-.44-.74,3.82.58,10.05.75,15.95-3.08l1.24-.78-1.87-2.4c1.35.19,2.89.11,4.43-.32,4.09-1.19,6.81-3.66,6.91-3.79l1.24-1.15-1.47-1.08c1.71-.18,3.84-.66,5.99-1.63,5.27-2.42,8.39-5.83,8.49-5.96l2.29-2.48-2.58.17c3.73-1.62,7.13-3.81,7.3-3.93l1.83-1.18-1.89-1.16c1.36-.25,2.8-.56,3.85-1.09,2.4-1.15,5.91-4.27,6.07-4.38l1.67-1.5-1.16-.44c1.76-.47,3.62-1.06,4.77-1.71,2.71-1.6,4.81-3.46,4.89-3.51l1.14-1.02-.62-.56c1.5-.22,3.35-.75,5.06-1.73.48-.2.96-.47,1.46-.81,3.7-2.21,9.92-5.83,13.81-5.97l6.89-.22-6.46-2.39c-9.53-3.48-13.38-3.93-19.33-4.04-3.48-.08-6.93,1.23-9.34,2.37.23-1.19.33-2.49-.24-3.32l-.46-.67-.81.06c-1.85.16-4.58.73-6.83,1.83-.81.43-1.58,1.01-2.28,1.68l-.1-1.4-1.5.22c-.31.08-7.13,1.12-11.77,5.99.01-.07.03-.14.03-.14l-.09-1.84-1.72.62c-.32.16-6.82,2.56-10.88,7.83-.13-.83-.21-1.21-.21-1.21l-.38-1.82-1.56.94c-.32.16-6.39,3.74-9.55,8.09-.03-.23-.09-.31-.09-.31l-.69-1.73-1.46,1.18c-.26.24-6.04,4.97-9.39,9.94l-.24-.63-1.39.83c-.08.06-.99.61-2.17,1.48,3.65-3.89,6.7-6.88,6.78-6.94l2.59-2.5-5.81.28c2.7-2.69,6.77-6.87,8.05-9.03,2.03-3.4,2.7-6.91,2.73-7.06l.31-1.61-.51-.02c1.81-1.48,3.98-3.32,5.3-4.89,5.4-6.55,5.56-9.35,5.7-11.22-.02-.3.02-.5.06-.72l.28-1.48-1.5-.14c-.35-.07-.65-.05-.93-.11,4.63-3.27,10.63-9.19,11.01-18.44l.02-1.24-1.28-.17c-.42-.08-.86-.09-1.21-.16,2.03-1.51,4.72-3.76,6.46-6.42,3.15-4.72,4.69-10.91,4.75-11.18l.42-1.81-1.99.13c2.47-2.66,5.98-6.95,7.15-10.44,1.74-5.35,1.76-11.17,1.73-11.39v-1.96s-1.32.47-1.32.47c1.24-1.95,2.45-4.48,2.64-7,.36-4.96-.24-7.55-.3-7.63l-.3-1.08-3.3.1c2.51-2.87,5.65-7.88,3.99-13.73l-.3-1.08-1.11.08c-.59.03-1.25.05-1.92.14,2.53-2.94,5.24-8.03,3.73-15.38l-.31-1.44-.84.2c1.75-3.45,4.46-9.27,5.5-15.12,1.26-7.4-.41-23.89-.5-24.56l-.5-5.04-2.05,4.63c-1.48,3.21-5.46,8.43-9.02,12.99-3.09,4-5.99,7.74-7.25,10.2-1.45,2.64-2.25,5.69-2.8,8.21l-.4-.95-1.43,1.77c-.19.26-4.92,6.35-6.19,9.96-.3.82-.45,1.59-.58,2.29l-.6-1.06-1.29,1.43c-.57.69-6.09,7.14-6.81,10.94-.17.92-.28,1.84-.25,2.87l-.87-1.55-1.25,1.22c-.18.18-5.55,5.42-6.9,10.26-.46,1.66-.66,3.45-.67,5.04l-1.27-1.77-1.09,1.54c-.19.26-5.25,7.3-5.77,12.74-.06,1.08-.09,2.02-.11,2.89l-2.15-3.25-1.15,1.82c-.21.33-4.77,7.83-5.91,14.24-.24,1.26-.4,2.47-.47,3.62l-1.15-2.77-1.23,3.04c-.14.34-3.62,9.07-4.1,15.82-.15,1.94-.11,3.62-.04,5.16l-1-1.65-.94,2.66c-.05.28-1.37,3.74-1.84,8.9.29-5.33-.6-10.24-.63-10.46l-.42-2.41-1.84,1.62s-.53.48-1.31,1.13c4.18-13.18-.3-22.56-.51-22.96l-.9-1.77-1.39,1.55c3.96-14.68-.84-22.37-1.07-22.7l-.84-1.33-1.49,1.32c.59-1.93,1.08-4.16,1.06-6.35-.01-5.68-5.64-16.66-5.84-17.13l-.96-1.85-1.97,2.32c.34-2.19.59-4.62.39-6.63-.55-4.76-4.26-12.82-4.42-13.14l-.83-1.76-3.38,3.22c.49-2.6.97-5.86.65-8.4-.65-5-6.58-16.32-6.85-16.81l-.91-1.7-1.93,2.11c0-.8-.04-1.68-.08-2.64-.31-4.5-6.25-15.02-6.89-16.24l-.98-1.72-1.25,1.58s-.08.06-.36.37c-.47-6.35-6.08-12.08-6.39-12.35l-1.05-1-1.38,1.49c-.03-1.75-.16-3.74-.67-5.3-1.24-3.8-16.16-20.69-17.49-22.11l-3.74-4.06,1.45,5.38c1.15,4.3,1.2,8.6,1.2,12.82.01,6.05.05,12.39,3.52,18.65-.55-.18-1.1-.36-1.58-.52l-1.79-.56.02,1.82c-.03,6.69,1.31,11.1,2.68,13.83-.27-.12-.45-.3-.65-.41l-1.54-1.09-.49,1.8c-1.6,5.37.43,11.15,2.33,14.93l-2.86-1.42-.05,2.18c.02.29-.08,6.17.66,10.68.3,1.88,1.09,3.85,1.93,5.54l-3.98-2.43.28,2.74c-.01.07.61,5.58,1.16,11.87.37,3.78,2.1,7.32,3.6,9.78-.76-.21-1.45-.42-2.07-.61l-1.79-.56v1.9c-.1,10.1,4.07,17.3,7.69,21.63-.82-.3-1.51-.51-2-.6l-1.83-.35.16,1.85c1.23,11.16,6.8,18.62,11.03,22.78-.91-.17-1.76-.33-2.39-.45l-1.77-.26.24,1.79c1.29,10.07,8.03,18.27,12.25,22.5l-2.54-.41.55,2.07c.09.31,2.08,7.46,6.03,13.45,1.75,2.66,5.17,6.52,7.78,9.27l-4.6-1.09,1.46,2.68c-.01.07,3.61,6.66,5.52,11.17.83,2.12,2.51,4.41,4.1,6.39l-4.03-1.79,1.74,3.46c.11.17,1.88,3.49,3.51,6.42l-.34,1.39c-.88-2.28-1.91-4.88-3.07-6.85-2.52-4.34-6.45-8.94-6.64-9.13l-1.79-2.09-.4,1.74c-.82-2.56-1.93-5.54-3.45-7.5-3.14-4.16-8.61-8.7-8.87-8.89l-1.57-1.32-1.27,3.98c-.95-3.02-2.44-7.09-4.22-9.98-3.68-5.94-10.11-12.33-10.35-12.6l-1.71-1.71-1.24,5.01c-.92-3.6-2.39-8.1-4.44-11.11-3.69-5.51-10.6-12.43-10.91-12.7l-1.29-1.26-2.15,3.67c-1.13-3.64-3.28-9.58-7.07-13.73-5.66-6.25-11.09-9.1-11.28-9.21l-1.52-.8-.88,3.47c-1.35-2.88-3.49-6.93-5.81-9.63-3.93-4.6-10.22-9.44-10.47-9.64l-1.71-1.34-1.02,4.98c-1.4-2.59-3.5-6.12-5.93-8.63-4.39-4.48-10.1-8.91-10.36-9.11l-1.53-1.16-1.54,4.66c-1.07-2.02-2.91-4.63-6.01-7.47-6.62-6.14-9.13-7.49-9.27-7.52l-1.45-.79-1.39,4.25c-.99-2.08-2.53-4.7-4.47-6.75-3.71-3.84-8.74-7.63-8.93-7.81l-1.72-1.27-1.07,5.26c-.57-1.2-1.26-2.57-2.18-3.84-3.4-4.72-10.82-8.97-11.14-9.18l-1.58-.88-.74,3.13c-.84-1.69-2.01-3.58-3.34-5-2.79-2.94-7.23-6.03-7.42-6.14l-1.67-1.19-.54,2.45c-.71-1.23-1.62-2.57-2.84-3.82-2.8-2.86-5.97-5.36-6.1-5.46l-2.09-1.63-.19,3.67c-3.49-4.6-10.91-12.7-22.43-17.22-4.27-1.68-16.08-8.88-16.2-8.98l-7.24-4.43,5.48,6.43c.06.08,4.87,5.8,9.12,12.51,6.79,10.61,17.24,18.86,22.24,22.43-.31.08-.6.1-.98.18l-2.09.26,1.11,1.81c2.91,4.63,7.04,7.38,10.04,8.83l-1.15.29.26,1.29c1.16,5.39,7.07,9.14,11.01,11.05-.53.12-1.06.23-1.67.34l-1.67.34.65,1.58c2.83,6.58,8.31,9.52,12.43,10.81-.46.13-.91.19-1.36.25l-1.56.14.37,1.53c1.87,7.78,10.19,11.91,16.56,14l-6.32.69.9,1.77c.33.57,6.53,12.38,17.4,16.85-1.74.33-2.86.48-2.86.48l-1.88.3.91,1.7c.2.47,5.87,10.51,11.8,13.75,1.92,1.02,3.66,1.79,5.09,2.35l-4.39,1.28,1.51,2.03c2.33,3.06,7.73,10.28,12.62,13.25,2.29,1.38,4.78,2.44,6.9,3.13l-3.46.94,1.64,1.69c.37.36,8.85,8.96,16.18,13.34,1.82,1.15,3.58,1.84,5.16,2.36l-2.63.81,1.52,1.6c.41.51,10.33,11.14,16.33,13.66,3.18,1.26,6.47,1.96,8.89,2.27l-2.37,1.73,1.24,1.11c.31.28,8.04,7.13,14.63,8.46,3.15.67,6.49,1.09,9.07,1.29l-1.87,1.03,1.65,1.26c.31.28,8.87,6.57,12.76,7.96,2.05.68,4.5,1.22,6.48,1.53l-1.98,1.23,1.82,1.15c.27.12,4.09,2.6,7.9,4.42-.14-.03-.22.03-.36,0l-2.19.02.43.81c-4.52-2.24-11.15-5.32-14.38-5.57l-2.15-.19.78,2.04c-.01.07.03.22.09.31-4.47-3.69-11.92-8.16-20.15-6.6l-1.58.28.38,1.09c-2.89-2.44-6.11-5.02-8.35-5.88-4.48-1.73-15.13-3.9-15.55-3.98l-2.53-.48,2,4.82c-4.55-3.27-12.49-6.67-23.95-4.26l-1.67.34.72,1.59c.26.56.69,1.37,1.24,2.27-3.37-2.17-7.67-4.44-11.72-4.99-7.16-1-14.53.58-14.84.67l-1.67.34,1.5,3.2c-4.53-2.97-12.18-5.66-22.62-2.04l-1.33.47.48,1.33c.13.46.45,1.1.76,1.75-2.41-1.48-5.43-2.85-8.49-2.85-6.4-.05-13.95,2.52-14.26,2.6l-1.64.56.95,1.49c-2.36-.6-5.41-1.03-8-.43-4.51,1.11-8.34,2.49-8.49,2.54l-1.57.58,1.89,3.05c-3.97-1.34-10.43-2.2-18.69,1.03l-1.73.69,1.18,1.46c.11.17.24.26.35.43-2.99-.35-7.44-.32-12.51,1.48-8.99,3.24-22.47,12.47-23.04,12.8,0,0,11.46,1.01,18.33,2.03,6.45.93,13.04,1.9,18.27,1.58-.74.81-1.25,1.22-1.25,1.22l-1.57,1.38,1.87.87c.27.12,7.09,3.31,12.03,3.38,2.1.04,4.51-.38,6.5-.88-.28.31-.49.64-.78,1.02l-1.18,1.59,1.87.5c10.63,3.04,18.93,2.29,23.87,1.19-.55.62-1.03,1.19-1.33,1.64l-.87,1.14,1.23.82c6.55,4.23,15.27,3.2,20.44,2l-3.12,3.77,1.54.73c.27.12,8.13,3.95,14.43,3.4,3.03-.22,5.77-.87,7.79-1.5l-2.59,4.82,1.74.4c.42.08,9.1,1.95,16.11.66,2.2-.45,4.04-.98,5.54-1.57-.39.51-.68.89-.86,1.08l-2.07,2.08,2.95.2c.79.08,1.56.22,2.49.33,3.83.51,9.02,1.21,15.29-1.53,1.82-.75,3.53-1.73,4.95-2.7l-1.21,2.53,1.59.45c.28.05,6.19,1.54,14.19-.72,3.54-1,6.65-2.45,8.94-3.76l-2.23,4.09,2.61-.31c.67-.09,16.31-1.92,21.87-5.89,1.18-.86,2.2-1.62,3.13-2.32l-1.03,2.35,2.02.09c.21.04,5.71.21,10.66-2.05.89-.49,1.69-.84,2.43-1.29l-1.51,3.35,2.66-.59c.38-.07,9.11-1.98,15.03-5.15,1.06-.6,1.94-1.01,2.67-1.39l-2.27,3.5,3.82-1.32s1.26-.49,3.13-1.15c-.49.27-.96.47-1.38.76l-1.23.71.78,1.24c-3.73.09-10.26.74-18,4.29l-1.52.73.98,1.35c.13.1.47.6,1.01,1.21-9.4-.33-12.48.54-21.59,4.78l-1.59.72,1.05,1.37c-3.7.32-10.14,1.64-16.11,6.98l-1.14,1.02,1.12,1.01c.31.28.62.56.99.92-3.83.22-10.06,1.58-16.49,7.06l-.78.65.4.95c.14.39.56.91,1.02,1.51-3.77.3-10.66,1.69-17.85,6.95l-1.45,1.11,1.47,1.08c.26.19.5.46.82.67-3.61.62-9.16,2.99-16.81,10.27ZM1268.97,741.76l-1.55-.29-.48-1.33-1.43.6c.66-1.91,1.53-4.59,2.31-7.93.27-1.04.41-2.18.55-3.25-.18,3.61.03,7.87,1.14,12.38-.34-.14-.48-.16-.55-.18ZM1267.96,750.52c.07,1.91.21,3.9.29,5.73l-.13-.83-1.25.85c.48-2.16.85-4.06,1.1-5.76ZM1242.21,776.79c-.44-.74-.81-1.47-1.13-2.11.64.85,1.43,1.66,2.23,2.46l-1.1-.36ZM1237.43,818.76l.8.37c-1.43.24-3.02.59-4.63,1.01,1.24-.42,2.57-.89,3.83-1.38ZM1140.83,870.96l.19.15c-.08-.02-.16-.03-.25-.05l.06-.1Z"/>
  <path class="st0" d="M988.28,152.28l.73.32.23-.79c.08-.17.12-.37.19-.58.88,1.84,2.92,4.39,7.56,6.28l.72.28.24-.71s.06-.09.08-.17c.75,1.76,2.28,4.29,5.56,6.38l.72.48.35-.77c.05-.13.14-.26.19-.39.75,1.21,2.31,2.92,5.59,4.85,3.41,1.99,6.53,6.41,6.58,6.44l2.36,3.33-1.08-3.95c-.23-.73-.4-1.59-.63-2.52-.76-3.35-1.74-7.51-3.72-10.54-1.03-1.62-2.66-3.08-3.95-4.06.34-.03.69-.06,1.02-.17l.59-.16-.05-.61c-.35-3.79-4.87-6.68-7.02-7.83l.68-.49-.14-.48c-.02-.11-.72-2.77-3.04-4.56-1.44-1.11-3.03-1.83-4.13-2.27.33-.26.78-.55,1.29-.93l.51-.34-.27-.57c-1.7-3.35-6.14-5.05-8.7-5.74.31-.22.57-.43.83-.71l.45-.48-.45-.49c-3.67-3.85-7.14-5.16-9.29-5.58.17-.11.31-.18.46-.25l.89-.42-.66-.72c-2.2-2.39-3.59-3.47-5.66-4.45-.86-.41-1.81-.68-2.67-.86l.49-.26-.53-.67c-.05-.07-1.78-2.24-4.1-3.29-1.03-.49-2.3-.78-3.39-.98l.87-.49-.99-.65c-.4-.27-3.84-2.56-5.57-3.03-.87-.25-2.54-.41-3.96-.51l1.47-.81-.95-.66c-.14-.13-4.25-3.06-6.87-3.5-1.09-.2-2.61-.36-3.95-.44l1.14-.51-1.39-.69c-.17-.08-4.44-2.25-6.24-2.89-1.3-.47-3.03-.51-4.04-.5l.04-.55c.58.15,1.07.29,1.6.37l1.41.22-.39-.78c.86.37,1.87.75,2.77.99,2.22.56,6.04.36,6.71.22l1.13-.19-.39-.58c1.81.45,4.69.83,7.85-.28l.69-.22-.22-.69c-.05-.07-.06-.1-.08-.18,1.78.34,4.81.46,8.58-1.29l1.03-.48-.85-.72c1.78.1,4.06-.13,6.3-1.37l.6-.32-.28-.6c-.09-.25-.26-.53-.47-.8,1.47-.07,3.58-.38,5.46-1.67,3.01-2.02,6.66-5.89,6.83-6.04l1.09-1.16-1.58-.1c-.28-.02-6.87-.42-9.48-.24-1.96.13-4.13.96-5.55,1.64l.54-1.55-.88-.09c-.16,0-3.47-.38-5.87.66-.64.29-1.34.7-1.96,1.1l.85-2.32-.88-.13c-.13-.05-3.13-.45-5.56.83-.63.36-1.15.66-1.6.95l.57-2.53-.93.03c-.27.02-5.7.15-9.09,2.8.09-.33.12-.53.12-.53l.23-.98-1.02.13c-.46.05-4.67.61-6.2,2.09-.59.55-1.24,1.38-1.85,2.21l.15-1-1.01.21c-.3.06-2.88.59-3.91,1.27-.3.22-.61.44-.91.69.1-.29.23-.59.33-.88,1.26-3.37,2.42-6.61,2.67-7.52.35-1.32,7.57-19.71,10.35-26.67l.21-.51-.46-.33c-.97-.74-2.98-2.19-4.53-2.73-.5-.17-.99-.26-1.72-.58-.97.24-1.5,1.79-3.65,12.98-.69,3.65-1.36,7.06-1.76,8.15-.26.64-.75,2.06-1.43,3.88-1.48,4-3.58,9.73-5.09,13.94-.81-2.6-2.02-5.51-3.11-7.19l-.57-.9-.65.83c-.09.14-.18.27-.28.37-.49-2-1.67-5.11-4.76-7.25l-.64-.45-.8,1.41c-.18-.7-.53-1.45-1.06-2.12-1.42-1.77-3.19-2.62-3.27-2.64l-.82-.38-.23.94c-.44-.81-1.1-1.76-2.02-2.63-2.26-2.11-4.58-2.96-4.66-2.98l-1.69-.63.61,1.24c-1.56-1.51-3.33-2.75-3.42-2.81l-.95-.66-.19,1.17c-.4-.62-.84-1.27-1.32-1.68-1.05-.95-3.3-2.05-3.39-2.11l-1.08-.52.02.66c-.59-.78-1.26-1.57-1.81-2-1.34-1.01-2.68-1.67-2.73-1.7l-.73-.36-.15.42c-.41-.69-1.05-1.5-1.88-2.15-.2-.19-.43-.38-.7-.56-1.84-1.38-4.89-3.71-5.75-5.6l-1.51-3.35.13,3.68c.21,5.41.78,7.4,1.93,10.36.67,1.73,2.01,3.17,3.07,4.13-.63.13-1.29.34-1.59.79l-.24.36.2.39c.45.88,1.29,2.11,2.29,3,.38.31.82.57,1.29.79l-.67.33.41.69c.1.13,2,3.29,5.34,4.59-.04,0-.08.02-.08.02l-.89.42.65.72c.14.13,2.65,2.85,6.07,3.78-.38.23-.55.35-.55.35l-.82.56.78.58c.14.13,3.14,2.4,5.93,3.07-.11.06-.13.11-.13.11l-.72.69.88.48c.17.08,3.68,1.97,6.81,2.62l-.26.25.69.52s.5.36,1.17.77c-2.66-1.01-4.76-1.91-4.8-1.94l-1.76-.77,1.32,2.81c-1.88-.78-4.76-1.95-6.09-2.14-2.09-.31-3.96.07-4.04.09l-.86.18.09.25c-1.1-.59-2.45-1.29-3.49-1.62-4.33-1.33-5.75-.85-6.69-.54-.14.07-.25.09-.37.11l-.79.16.24.77c.04.19.1.33.14.48-2.55-1.62-6.69-3.38-11.33-1.69l-.61.24.18.67c.05.22.13.44.17.63-1.16-.7-2.81-1.57-4.48-1.89-2.97-.6-6.33-.1-6.48-.07l-.98.16.47.96c-1.81-.68-4.64-1.54-6.6-1.41-2.99.22-5.87,1.4-5.97,1.46l-.97.39.5.56c-1.21-.22-2.71-.3-3.99.12-2.52.83-3.68,1.65-3.71,1.69l-.47.37.72,1.61c-1.93-.66-5.04-1.19-7.59.81l-.47.37.26.53c.14.28.28.61.46.92-1.96-.65-5.03-.96-8.35,1.28l-.65.44.27.37c-2.06-.16-5.48-.32-8.58.35-3.91.88-11.71,5.05-12.02,5.23l-2.39,1.27,2.7.07c1.89.08,5.27.99,8.24,1.82,2.6.71,5.04,1.38,6.5,1.51,1.6.18,3.26-.05,4.62-.28l-.39.39,1.16.35c.17.04,4.13,1.14,6.17,1.03.46-.02.88-.1,1.25-.18l-.4.51.97.35c.46.14,4.76,1.56,6.78,1.14.49-.1.97-.24,1.47-.46l-.59.74.86.37c.13.05,3.8,1.64,6.47,1.32.91-.11,1.83-.38,2.62-.69l-.62.98.98.23c.17.04,4.67,1.11,7.46.26.55-.19,1.02-.36,1.45-.53l-1.17,1.72,1.13.2c.2.04,4.83.76,8.23.03.67-.14,1.3-.31,1.88-.5l-1.13,1.13h1.75c.2,0,5.21-.06,8.64-1.19.99-.32,1.81-.68,2.56-1.03l-.61.83,1.5-.07c.15-.03,2.13-.08,4.76-.9-2.69.94-4.93,2.37-5.03,2.43l-1.11.69,1.17.58s.34.16.82.42c-7.36.61-11.07,4.72-11.23,4.91l-.69.8,1.05.37c-8.05,1.03-10.87,4.95-10.99,5.13l-.48.68.95.47c-1.07.1-2.27.31-3.35.76-2.8,1.16-7.08,6.16-7.27,6.36l-.72.85,1.54.5c-1.15.27-2.4.65-3.35,1.15-2.24,1.24-5.46,4.7-5.59,4.85l-.7.77,2.27,1.01c-1.38.28-3.09.71-4.28,1.38-2.34,1.34-6.72,6.56-6.91,6.79l-.65.8,1.43.52c-.4.16-.82.36-1.28.57-2.16,1.07-6.15,6.13-6.62,6.69l-.65.83,1.03.29s.05.03.25.1c-3.04,1.52-4.73,5.45-4.8,5.66l-.28.72,1.01.38c-.86.37-1.82.84-2.48,1.4-1.63,1.39-6.93,12.17-7.36,13.12l-1.25,2.67,2.36-1.81c1.89-1.44,4-2.34,6.08-3.19,2.98-1.23,6.11-2.54,8.49-5.52.02.31.05.61.06.88l.09.99.9-.38c3.31-1.34,5.21-2.9,6.28-4.13,0,.16-.06.28-.07.4l-.23.98.99-.12c2.98-.3,5.42-2.47,6.9-4.18l-.12,1.7,1.08-.42c.14-.07,3.06-1.21,5.14-2.49.87-.53,1.68-1.32,2.34-2.08l-.39,2.46,1.3-.69s2.63-1.43,5.62-2.98c1.79-.95,3.18-2.52,4.1-3.76.05.42.09.8.12,1.14l.09,1,.93-.39c5-2,7.71-5.52,9.12-8.18.02.46.06.85.11,1.11l.2.97.88-.45c5.26-2.87,7.81-7.13,9-10.07.1.49.19.93.26,1.27l.23.93.84-.48c4.71-2.68,7.39-7.67,8.62-10.61l.31,1.34.91-.69c.13-.11,3.26-2.54,5.41-5.71.96-1.4,2.17-3.87,3-5.72l.39,2.49,1.03-1.26s2.55-3.13,4.39-4.99c.88-.84,1.67-2.13,2.32-3.32l-.06,2.35,1.36-1.56c.06-.09,1.34-1.64,2.46-3.04l.76-.12c-.95.9-2.02,1.93-2.76,2.9-1.63,2.13-3.11,5-3.16,5.13l-.67,1.31.94-.15c-1.1.93-2.34,2.08-3,3.23-1.42,2.39-2.55,6.02-2.59,6.18l-.33,1.04,2.22-.18c-1.3,1.08-3.01,2.64-4.07,4.11-2.19,3.02-4.04,7.49-4.12,7.66l-.5,1.19,2.72-.4c-1.59,1.18-3.51,2.82-4.58,4.45-1.97,2.94-3.98,7.75-4.06,7.96l-.36.89,2.25.32c-1.57,1.3-4.06,3.56-5.34,6.28-1.93,4.06-2.24,7.32-2.25,7.44l-.09.91,1.89-.27c-1.15,1.25-2.71,3.13-3.57,4.82-1.48,2.87-2.59,6.96-2.63,7.12l-.32,1.12,2.66-.51c-1,1.22-2.31,2.97-3.05,4.68-1.32,3.08-2.35,6.79-2.39,6.96l-.26.99,2.61-.18c-.78.94-1.7,2.37-2.47,4.48-1.69,4.51-1.84,6.03-1.83,6.1l-.09.88,2.38-.18c-.83.91-1.81,2.2-2.42,3.57-1.14,2.61-1.99,5.86-2.04,5.99l-.28,1.11,2.81-.54c-.48.53-1.01,1.14-1.45,1.86-1.64,2.64-2.23,7.16-2.27,7.36l-.12.96,1.7-.27c-.66.76-1.36,1.72-1.79,2.67-.88,1.97-1.51,4.79-1.53,4.91l-.25,1.06,1.32-.23c-.46.6-.94,1.32-1.31,2.18-.84,1.97-1.43,4.03-1.46,4.12l-.38,1.36,1.85-.65c-1.56,2.66-4.06,7.96-3.95,14.56.03,2.45-1.12,9.74-1.14,9.82l-.72,4.47,2.06-4.01s1.88-3.58,4.32-7.04c3.86-5.51,5.81-12.33,6.56-15.53.1.13.17.28.29.45l.55.98.67-.92c1.7-2.37,2.22-4.97,2.32-6.75l.38.51.58-.39c2.42-1.67,3.07-5.34,3.22-7.67.16.24.33.48.5.75l.51.75.65-.64c2.68-2.73,3.01-6.03,2.81-8.33.16.2.28.41.4.62l.38.74.68-.49c3.46-2.5,3.81-7.44,3.55-11.01l1.62,2.98.69-.8c.22-.28,4.79-5.73,4.79-12.01.51.79.81,1.31.81,1.31l.53.87.65-.8c.19-.2,4-5.03,4.39-8.61.11-1.15.14-2.17.13-2.99l1.52,1.91.7-1.16c1.04-1.77,3.51-5.9,3.98-8.92.22-1.41.23-2.85.14-4.04l1.17,1.51.5-1.16c.1-.26,2.63-6.19,3.3-10.69.2-1.13.18-2.14.12-3.02l.93,1.13.48-1.07c.17-.31,3.4-7.36,3.43-10.83-.02-1.83-.35-3.59-.68-4.85l1.34.82.3-.84c.07-.21,1.89-5.41,1.21-8.94-.31-1.69-.78-3.42-1.2-4.74l.89.71.29-1.07c.07-.21,1.44-5.71,1.34-7.91-.08-1.15-.31-2.47-.56-3.51l1.01.73.2-1.13c0-.16.45-2.55.58-4.79.02.07.06.1.07.18l.46,1.08.31-.38c-.19,2.69-.37,6.58.17,8.23l.34,1.1.85-.8s.1-.06.13-.11c-.91,2.95-1.61,7.54.83,11.28l.46.72.46-.41c-.62,1.92-1.24,4.03-1.21,5.31.06,2.56,1.15,8.26,1.19,8.48l.28,1.35,1.97-1.96c-.69,2.91-.76,7.52,2.75,12.68l.51.75.64-.68c.22-.24.54-.62.87-1.07-.39,2.11-.64,4.69-.09,6.8.96,3.74,3.24,7.05,3.34,7.19l.51.75,1.27-1.39c-.55,2.84-.32,7.16,3.58,11.58l.5.56.56-.5c.2-.16.45-.44.71-.73-.24,1.49-.31,3.26.31,4.77,1.27,3.17,4.07,6.37,4.18,6.51l.61.69.54-.77c.19,1.29.59,2.88,1.41,4.04,1.46,2,2.92,3.61,2.97,3.68l.6.66,1.12-1.55c.15,2.23,1.03,5.59,4.3,9.01l.69.72.48-.88c.06-.09.08-.17.14-.26.43,1.55,1.35,3.74,3.27,5.88,3.42,3.78,10.72,8.56,10.99,8.77,0,0-1.82-5.86-2.72-9.46-.85-3.37-1.71-6.82-2.93-9.34.55.2.85.37.85.37l1,.5.05-1.1c0-.16.2-4.17-.77-6.62-.41-1.05-1.1-2.15-1.75-3.03.21.07.41.11.66.18l1.03.26-.13-1.02c-.66-5.87-2.71-9.81-4.26-12.02.42.15.79.27,1.08.32l.74.2.15-.77c.76-4.09-1.52-8.18-3.16-10.5l2.5.77.05-.91c0-.16.3-4.81-1.25-7.81-.72-1.45-1.6-2.67-2.32-3.54l2.91.3-.15-.94c-.05-.22-.88-4.88-2.94-8.09-.67-.99-1.3-1.8-1.9-2.42.33.09.58.15.71.21l1.45.6-.5-1.49c-.12-.4-.21-.81-.34-1.29-.52-2-1.23-4.7-3.86-7.24-.74-.75-1.57-1.39-2.34-1.9l1.5.08-.1-.88c-.03-.15-.5-3.37-3.24-6.86-1.21-1.54-2.56-2.79-3.67-3.65l2.47.27-.68-1.22c-.18-.31-4.26-7.66-7.34-9.6-.67-.41-1.25-.76-1.78-1.08l1.37.03-.36-1.02c-.02-.11-1.06-2.86-3.17-4.84-.42-.34-.76-.66-1.13-.94l1.96.07-.83-1.19c-.11-.17-2.83-4.1-5.59-6.37-.51-.4-.89-.75-1.22-1.03l2.19.41-1.42-1.62s-.5-.52-1.2-1.31c.23.19.43.38.65.53l.6.46.45-.64c.8,1.82,2.45,4.91,5.77,8.01l.67.6.47-.76c.02-.08.2-.35.39-.74,1.74,4.71,2.8,6.05,6.74,9.68l.68.64.46-.8c.91,1.76,2.87,4.67,6.71,6.53l.74.36.27-.76c.07-.21.15-.42.25-.68.88,1.85,2.82,4.64,6.83,6.7l.48.25.39-.39c.16-.15.34-.46.54-.81.91,1.8,3,4.92,7.05,7.4l.84.49.24-.94c.04-.16.13-.34.16-.54,1.04,1.66,3.33,3.91,8.48,6.21ZM890.13,107.02l.17.82-.56.5.59.58c-1.08.07-2.57.18-4.38.47-.57.08-1.16.24-1.71.39,1.82-.64,3.88-1.61,5.88-3.07,0,.19.02.27.02.31ZM894.66,105.74c.93-.42,1.88-.89,2.77-1.31l-.38.23.68.45c-1.17.2-2.18.41-3.07.63ZM912.85,113.12c-.28.37-.56.7-.81.98.29-.49.53-1.04.76-1.6l.05.61ZM934.53,106.96l.02-.47c.41.66.91,1.37,1.44,2.08-.46-.53-.96-1.09-1.46-1.61ZM979.89,144.04l.03-.12s.02.09.03.13h-.06Z"/>
  <path class="st0" d="M664.77,73.3l.76-.22-.33-.75c-.05-.18-.15-.36-.23-.57,1.86.85,5.06,1.48,9.83-.05l.73-.25-.27-.7c0-.05-.01-.11-.05-.19,1.7.86,4.5,1.82,8.36,1.32l.86-.1-.23-.82c-.04-.13-.06-.29-.1-.42,1.35.44,3.65.75,7.4.13,3.89-.67,9.13.71,9.18.71l3.95,1.04-3.37-2.33c-.64-.42-1.33-.96-2.1-1.52-2.74-2.07-6.16-4.64-9.62-5.68-1.83-.58-4.01-.65-5.63-.57.24-.24.49-.49.67-.78l.35-.5-.43-.44c-2.7-2.68-8.03-1.98-10.41-1.49l.21-.81-.41-.28c-.09-.07-2.34-1.66-5.26-1.54-1.81.07-3.5.54-4.62.91.09-.42.25-.93.39-1.54l.18-.59-.57-.26c-3.46-1.48-7.95.07-10.35,1.19.09-.36.16-.7.17-1.08l.03-.66-.66-.09c-5.28-.59-8.78.63-10.7,1.69.06-.2.12-.34.19-.48l.41-.89-.97-.13c-3.23-.42-4.98-.35-7.2.23-.92.24-1.83.65-2.6,1.06l.21-.51-.84-.17c-.08-.02-2.81-.57-5.26.12-1.11.29-2.26.89-3.23,1.43l.35-.94-1.18.14c-.48.05-4.59.5-6.21,1.26-.83.37-2.21,1.31-3.37,2.15l.61-1.56-1.16.11c-.19,0-5.23.38-7.52,1.74-.97.55-2.23,1.4-3.31,2.2l.55-1.12-1.51.36c-.18.05-4.84,1.13-6.64,1.8-1.3.48-2.65,1.55-3.41,2.21l-.32-.45c.54-.25,1.01-.47,1.46-.74l1.22-.74-.8-.34c.89-.27,1.91-.63,2.76-1.02,2.06-1,4.86-3.6,5.28-4.14l.74-.87-.67-.19c1.67-.82,4.13-2.38,5.83-5.26l.39-.62-.62-.39c-.08-.02-.11-.04-.17-.09,1.58-.89,3.98-2.74,5.74-6.5l.48-1.03h-1.11c1.43-1.07,3.03-2.72,3.95-5.11l.25-.63-.6-.28c-.23-.14-.54-.24-.88-.31,1.08-.99,2.5-2.6,3.12-4.79,1.01-3.48,1.32-8.79,1.35-9.01l.09-1.59-1.28.93c-.23.16-5.53,4.09-7.42,5.91-1.42,1.36-2.54,3.39-3.19,4.82l-.58-1.54-.73.49c-.13.1-2.9,1.94-4.07,4.27-.31.63-.57,1.4-.79,2.1l-.84-2.32-.76.47c-.13.04-2.69,1.67-3.73,4.21-.25.68-.45,1.25-.61,1.76l-1.19-2.31-.69.62c-.2.19-4.27,3.78-5.17,7.98-.14-.31-.25-.49-.25-.49l-.46-.9-.7.76c-.31.33-3.19,3.46-3.4,5.58-.1.8-.06,1.85,0,2.88l-.53-.86-.64.81c-.19.24-1.83,2.3-2.18,3.49-.09.36-.19.73-.25,1.12-.11-.29-.2-.6-.32-.89-1.21-3.39-2.39-6.63-2.79-7.48-.58-1.24-6.86-19.97-9.21-27.09l-.17-.52-.57.04c-1.22.06-3.69.24-5.23.82-.49.19-.93.43-1.69.66-.59.8,0,2.34,5.55,12.29,1.81,3.24,3.5,6.28,3.89,7.37.21.66.75,2.06,1.4,3.89,1.44,4.02,3.51,9.76,5.06,13.95-2.29-1.47-5.09-2.92-7.01-3.51l-1.01-.32.04,1.05c.02.16.04.32.03.46-1.66-1.22-4.57-2.84-8.3-2.49l-.78.06.29,1.6c-.59-.42-1.34-.77-2.17-.95-2.23-.45-4.13.04-4.2.08l-.87.24.43.87c-.85-.34-1.98-.64-3.23-.71-3.09-.16-5.41.68-5.49.71l-1.7.6,1.26.56c-2.16-.16-4.32.04-4.42.05l-1.16.11.61,1.02c-.7-.22-1.46-.43-2.09-.44-1.42-.05-3.85.55-3.96.56l-1.16.3.44.49c-.95-.22-1.97-.4-2.68-.37-1.68.08-3.13.44-3.18.45l-.79.2.16.42c-.76-.26-1.77-.48-2.82-.44-.27-.02-.57-.01-.89.02-2.3.13-6.13.3-8-.6l-3.31-1.6,2.46,2.73c3.64,4.01,5.35,5.17,8.13,6.7,1.63.9,3.58,1.14,5,1.19-.4.51-.77,1.09-.71,1.63l.05.43.4.17c.91.38,2.35.79,3.68.83.49,0,1-.09,1.5-.23l-.3.69.76.27c.17.04,3.65,1.24,7.05.09-.02.03-.05.06-.05.06l-.41.89.97.13c.19,0,3.86.48,7.08-1.01-.14.42-.2.62-.2.62l-.27.96.97-.06c.19,0,3.95-.18,6.52-1.46-.04.11-.03.17-.03.17l-.1.99.98-.19c.18-.05,4.09-.85,6.9-2.37l-.04.36.86-.05c.05,0,.62-.04,1.39-.16-2.69.93-4.87,1.59-4.92,1.6l-1.84.54,2.81,1.31c-1.94.6-4.9,1.57-6.04,2.27-1.8,1.1-2.99,2.6-3.04,2.66l-.54.69.23.14c-1.22.25-2.7.58-3.72,1-4.17,1.76-4.95,3.04-5.47,3.89-.07.14-.14.23-.21.32l-.5.63.68.44c.15.12.29.18.41.28-3,.4-7.3,1.71-9.77,5.99l-.31.58.56.4c.18.14.38.25.53.37-1.33.21-3.16.61-4.64,1.43-2.66,1.45-4.92,3.99-5.01,4.11l-.65.75.97.43c-1.83.65-4.55,1.8-5.97,3.16-2.15,2.09-3.6,4.84-3.64,4.96l-.49.93.74.11c-1.07.61-2.27,1.51-2.98,2.65-1.4,2.25-1.76,3.63-1.75,3.68l-.12.58,1.58.77c-1.9.74-4.62,2.33-5.29,5.5l-.12.58.54.24c.29.13.6.28.94.41-1.92.76-4.47,2.5-5.57,6.35l-.21.76.45.11c-1.68,1.2-4.4,3.28-6.34,5.78-2.43,3.19-5.72,11.39-5.85,11.73l-1.01,2.51,2.11-1.68c1.5-1.15,4.67-2.63,7.48-3.91,2.45-1.12,4.75-2.18,5.95-3.02,1.34-.89,2.47-2.13,3.36-3.19l-.05.55,1.11-.48c.16-.07,3.9-1.78,5.39-3.18.34-.31.61-.64.84-.94l.02.65.96-.36c.44-.19,4.65-1.87,5.93-3.48.31-.39.59-.8.83-1.29l.03.95.89-.27c.13-.04,3.96-1.19,5.8-3.14.63-.67,1.16-1.47,1.56-2.22l.16,1.15.9-.46c.16-.07,4.29-2.15,5.88-4.59.3-.5.55-.93.77-1.34l.21,2.07.99-.58c.18-.1,4.19-2.52,6.32-5.27.43-.54.8-1.07,1.12-1.6l-.14,1.59,1.34-1.13c.15-.13,3.96-3.39,5.86-6.46.55-.88.95-1.68,1.3-2.43l.06,1.02,1.1-1.02c.09-.12,1.57-1.43,3.07-3.75-1.46,2.45-2.25,4.99-2.29,5.1l-.4,1.24,1.27-.31s.37-.1.9-.21c-5.24,5.2-5.45,10.73-5.45,10.98v1.06s1.03-.39,1.03-.39c-5.51,5.96-5.14,10.78-5.12,10.99l.07.83,1.03-.25c-.75.77-1.54,1.7-2.08,2.74-1.4,2.69-1.46,9.27-1.48,9.54v1.11s1.5-.61,1.5-.61c-.7.95-1.42,2.04-1.82,3.04-.92,2.39-1.16,7.12-1.17,7.31l-.04,1.04,2.39-.68c-.88,1.11-1.91,2.53-2.39,3.81-.93,2.53-.93,9.34-.93,9.64v1.03s1.44-.52,1.44-.52c-.2.38-.4.81-.61,1.27-.97,2.2-.77,8.65-.77,9.38l.04,1.05.98-.44s.05,0,.26-.08c-1.35,3.12-.12,7.21-.04,7.42l.25.73,1.02-.36c-.42.84-.85,1.81-1,2.67-.35,2.11,2.51,13.78,2.79,14.78l.76,2.85.64-2.9c.52-2.31,1.56-4.36,2.61-6.36,1.49-2.86,3.05-5.87,2.96-9.69.22.22.43.44.62.64l.71.71.44-.87c1.67-3.15,2.13-5.57,2.16-7.2.1.12.14.25.2.36l.46.9.68-.73c2.09-2.14,2.56-5.38,2.6-7.63l1,1.38.56-1.02c.06-.14,1.57-2.9,2.33-5.21.32-.96.44-2.09.46-3.1l1.28,2.13.55-1.37s1.09-2.79,2.39-5.9c.76-1.88.82-3.98.72-5.52.31.29.58.56.83.8l.71.71.47-.9c2.55-4.75,2.36-9.18,1.73-12.13.31.34.59.61.8.78l.78.62.38-.91c2.18-5.58,1.4-10.48.43-13.5.39.31.75.59,1.02.81l.77.56.33-.91c1.89-5.08.73-10.62-.22-13.67l1.1.82.25-1.12c.03-.17.87-4.04.48-7.85-.17-1.69-.83-4.36-1.38-6.31l1.9,1.65-.02-1.63s-.06-4.04.16-6.65c.13-1.21-.1-2.71-.36-4.03l1.46,1.84.03-2.07c-.01-.11-.03-2.12-.07-3.9l.5-.57c-.15,1.29-.3,2.78-.25,3.99.12,2.68.83,5.83.88,5.96l.33,1.43.62-.72c-.25,1.41-.46,3.1-.23,4.4.45,2.75,1.92,6.24,1.99,6.4l.42,1.01,1.59-1.57c-.3,1.66-.6,3.96-.48,5.76.27,3.72,1.72,8.33,1.77,8.52l.39,1.23,1.83-2.06c-.46,1.93-.88,4.42-.65,6.35.38,3.52,1.93,8.5,2.01,8.71l.3.92,1.93-1.2c-.37,2-.83,5.34-.06,8.24,1.13,4.35,2.99,7.05,3.05,7.15l.52.75,1.28-1.42c-.08,1.69-.07,4.14.36,5.99.72,3.15,2.49,6.99,2.56,7.15l.48,1.06,1.71-2.1c.02,1.57.13,3.76.67,5.55.97,3.2,2.57,6.71,2.64,6.87l.43.93,1.88-1.82c0,1.22.23,2.91.99,5.02,1.61,4.54,2.46,5.8,2.52,5.85l.49.73,1.71-1.66c-.05,1.23.03,2.85.44,4.3.8,2.73,2.24,5.77,2.28,5.9l.5,1.03,1.81-2.22c-.03.71-.04,1.53.08,2.35.44,3.07,2.89,6.92,2.99,7.1l.53.81,1.13-1.3c-.02,1.01.06,2.19.34,3.19.59,2.08,1.92,4.64,1.99,4.74l.49.98.86-1.02c.03.76.13,1.62.4,2.51.62,2.05,1.49,4.01,1.53,4.09l.58,1.29,1-1.69c.51,3.04,2.01,8.71,6.33,13.7,1.6,1.85,5.4,8.18,5.43,8.26l2.32,3.89-1-4.39c0-.05-.86-3.95-1.21-8.17-.58-6.7-3.48-13.18-4.95-16.11.17.04.31.1.51.16l1.05.39-.08-1.13c-.23-2.91-1.5-5.23-2.56-6.66l.61.15.19-.67c.79-2.83-1.08-6.07-2.46-7.95.28.08.56.15.87.25l.87.25.09-.91c.3-3.81-1.57-6.56-3.2-8.19.25.05.48.14.7.22l.77.32.21-.81c1.04-4.14-1.86-8.15-4.36-10.72l3.16,1.24v-1.06c0-.35,0-7.47-4.04-12.28.9.28,1.47.48,1.47.48l.96.32v-1.03c.01-.27-.18-6.42-2.18-9.42-.65-.96-1.29-1.75-1.82-2.37l2.39.48-.21-1.33c-.34-2.03-1.11-6.77-2.68-9.39-.74-1.22-1.65-2.34-2.49-3.19l1.87.41-.36-1.21c-.08-.26-1.96-6.43-4.34-10.31-.58-.99-1.24-1.76-1.85-2.39l1.44.27-.32-1.13c-.07-.35-2.12-7.82-4.33-10.5-1.19-1.38-2.57-2.53-3.64-3.27l1.55-.23-.31-.83c-.08-.21-2.03-5.36-4.82-7.62-1.32-1.1-2.8-2.12-3.97-2.86l1.14-.02-.47-1.01c-.08-.21-2.57-5.3-4.06-6.92-.8-.83-1.82-1.69-2.69-2.33l1.24-.09-.58-.99c-.1-.12-1.29-2.24-2.64-4.04.06.05.11.04.17.09l1.04.53v-.49c1.58,2.18,3.95,5.28,5.41,6.19l.97.62.14-1.16s.04-.11.03-.17c1.2,2.85,3.61,6.81,7.89,8.11l.82.26.09-.61c.76,1.87,1.64,3.89,2.49,4.85,1.69,1.93,6.19,5.59,6.37,5.73l1.08.85.25-2.77c1.34,2.67,4.25,6.25,10.26,7.95l.87.25.06-.93c.02-.33.01-.82-.02-1.38,1.06,1.86,2.53,4,4.3,5.26,3.14,2.25,7.01,3.32,7.18,3.36l.87.25.08-1.88c1.41,2.53,4.35,5.69,10.18,6.57l.75.11.1-.75c.05-.25.06-.63.07-1.01.77,1.3,1.86,2.69,3.3,3.45,3.01,1.61,7.22,2.27,7.38,2.3l.91.14-.08-.94c.97.87,2.3,1.83,3.67,2.18,2.4.59,4.56.89,4.64.91l.88.12-.14-1.91c1.54,1.62,4.38,3.63,9.09,4.14l.99.1-.19-.98c-.01-.11-.05-.18-.06-.29,1.33.91,3.44,1.99,6.28,2.4,5.05.7,13.71-.33,14.06-.34,0,0-5.16-3.32-8.16-5.5-2.82-2.04-5.69-4.13-8.24-5.27.55-.2.89-.27.89-.27l1.08-.26-.67-.87c-.1-.13-2.53-3.32-4.85-4.58-.99-.54-2.23-.94-3.29-1.2.21-.08.39-.18.62-.29l.95-.46-.76-.7c-4.27-4.07-8.38-5.77-10.99-6.48.42-.16.78-.31,1.03-.44l.7-.32-.38-.69c-2.05-3.62-6.42-5.29-9.17-6.01l2.41-1.01-.54-.73c-.1-.12-2.87-3.88-5.98-5.18-1.49-.64-2.94-1.02-4.05-1.22l2.42-1.64-.72-.62c-.18-.14-3.82-3.17-7.45-4.3-1.15-.33-2.15-.54-3.01-.63.31-.14.54-.25.67-.3l1.49-.47-1.34-.82c-.35-.23-.68-.49-1.09-.77-1.69-1.19-3.96-2.8-7.61-3.06-1.04-.1-2.1-.06-3.01.05l1.2-.9-.64-.61c-.12-.09-2.54-2.26-6.89-3.17-1.92-.4-3.75-.49-5.16-.44l2.07-1.38-1.31-.5c-.34-.12-8.19-3.13-11.8-2.63-.77.12-1.44.22-2.06.32l1.07-.86-.93-.55c-.09-.07-2.65-1.51-5.54-1.67-.54,0-1.01-.02-1.47,0l1.54-1.21-1.4-.38c-.2-.06-4.8-1.32-8.38-1.29-.65.02-1.17,0-1.6,0l1.94-1.09-2.13-.32s-.72-.08-1.76-.23c.3,0,.57.02.84-.02l.76-.03-.06-.78c1.79.88,5.03,2.19,9.57,2.43l.9.03-.13-.88c-.04-.08-.07-.4-.18-.82,4.36,2.49,6.03,2.84,11.39,3.09l.93.06-.16-.91c1.83.77,5.2,1.74,9.34.69l.79-.2-.28-.76c-.08-.21-.16-.42-.24-.68,1.86.85,5.15,1.74,9.54.75l.53-.12.05-.55c.03-.22-.04-.57-.11-.97,1.86.79,5.46,1.84,10.16,1.14l.96-.16-.43-.88c-.07-.15-.12-.34-.22-.52,1.86.6,5.07.86,10.49-.69ZM560.48,101.69l.66.52-.1.75.82.07c-.78.74-1.86,1.79-3.06,3.18-.39.42-.74.93-1.06,1.4.98-1.66,1.93-3.73,2.53-6.13.13.15.19.2.22.22ZM563.13,97.8c.44-.92.87-1.89,1.28-2.78l-.14.42.8-.09c-.76.9-1.41,1.71-1.94,2.45ZM581.8,91.77c.03.46.02.89.01,1.28-.09-.56-.27-1.14-.44-1.72l.43.44ZM594.46,73.11l-.29-.38c.73.24,1.58.47,2.44.67-.69-.11-1.44-.22-2.15-.3ZM653.05,72.37l-.05-.12s.07.06.11.09l-.06.03Z"/>
</svg>