<?xml version="1.0" encoding="UTF-8"?>
<svg id="Layer_1" xmlns="http://www.w3.org/2000/svg" version="1.1" viewBox="0 0 502.38 98.81">
  <!-- Generator: Adobe Illustrator 30.2.1, SVG Export Plug-In . SVG Version: 2.1.1 Build 1)  -->
  <defs>
    <style>
      .st0 {
        fill: #f0efce;
        fill-rule: evenodd;
      }
    </style>
  </defs>
  <path class="st0" d="M315.36,84.38c-4.47,5.05-10.92,7.28-21.1,7.28-1.82,0-3.23-.08-4.97-.33-.66-.08-1.24-.74-1.24-1.49v-55.69c0-.74.5-1.41,1.24-1.49,1.57-.17,2.81-.25,4.47-.25,10.51,0,17.71,2.48,22.18,7.36,4.05,4.47,5.96,11.42,5.96,21.6.08,10.34-2.23,18.12-6.54,23ZM278.45,91.66s-.58-13.16-.58-29.38.58-29.38.58-29.38c0,0,.58,13.16.58,29.38s-.58,29.38-.58,29.38ZM303.94,27.36c-7.2,0-14.32.33-21.52.33-4.39,0-8.77-.08-13.16-.25-.74,0-1.41.66-1.41,1.49v.91c0,.74.58,1.41,1.24,1.49l2.07.17c4.05.41,4.3.99,4.3,10.01v45.76c0,3.39-.41,5.05-1.82,5.79l-2.23,1.41c-.41.25-.66.74-.66,1.24,0,.83.66,1.49,1.41,1.49,4.22-.17,8.36-.25,12.5-.25,4.72,0,9.35.33,14.07.33,10.76,0,20.52-4.3,27.31-11.83,6.21-6.87,9.35-15.97,9.35-26.89,0-9.68-2.4-17.71-6.95-22.67-5.13-6.04-12.33-8.52-24.49-8.52Z"/>
  <path class="st0" d="M348.63,91.66s-.58-13.16-.58-29.38.58-29.38.58-29.38c0,0,.58,13.16.58,29.38s-.58,29.38-.58,29.38ZM393.23,80h-1.57c-.66,0-1.24.41-1.41,1.08l-2.23,8.52c-.25.83-5.96,1.74-11.01,1.74l-14.81-.25c-.74,0-1.41-.66-1.41-1.41v-24.58c0-.74.58-1.41,1.32-1.41,2.32-.17,3.97-.25,5.96-.25h7.2c4.14,0,5.88,1.16,6.21,3.81l.08,1.08h2.9c.83,0,1.41-.66,1.41-1.41,0-3.31.08-8.11.17-11.5,0-.83-.66-1.49-1.41-1.49h-1.66c-.74,0-1.32.5-1.41,1.24l-.17,1.08c-.25,1.65-1.66,2.15-6.21,2.15h-7.2c-2.81,0-4.39,0-5.96-.08-.74-.08-1.32-.66-1.32-1.41v-21.76c0-.74.66-1.41,1.41-1.41l14.4-.25c5.96,0,10.59.83,10.67,1.9l.74,6.37c.08.74.66,1.24,1.41,1.24h1.32c.74,0,1.32-.58,1.41-1.24l1.41-13.24-.66-.74c-4.05-.17-6.29-.33-10.34-.33-8.61,0-17.13.33-25.74.33-6.37,0-12.83-.08-19.28-.25-.83,0-1.49.66-1.49,1.41v.99c0,.74.58,1.41,1.32,1.41l2.73.17c4.88.41,5.21.99,5.21,10.01v45.76c0,3.48-.58,5.05-2.15,5.79l-2.73,1.41c-.5.25-.74.74-.74,1.24,0,.83.66,1.49,1.49,1.41,3.97-.17,7.94-.25,11.92-.25,8.19,0,16.47.33,24.66.33,5.96,0,9.02,0,15.23-.33l.33-.5c.17-.17.25-.41.25-.66l1.08-14.23c.17-.83-.5-1.49-1.32-1.49Z"/>
  <path class="st0" d="M213.17,91.25s-.58-13.16-.58-29.38.58-29.38.58-29.38c0,0,.58,13.16.58,29.38s-.58,29.38-.58,29.38ZM258.27,79.75h-1.57c-.66,0-1.24.41-1.41,1.08l-2.23,8.52c-.25.83-5.96,1.74-11.01,1.74l-14.81-.25c-.74,0-1.41-.66-1.41-1.41v-24.58c0-.74.58-1.41,1.32-1.41,2.32-.17,3.97-.25,5.96-.25h7.2c4.14,0,5.88,1.16,6.21,3.81l.08,1.08h2.9c.83,0,1.41-.66,1.41-1.41,0-3.31.08-8.11.17-11.5,0-.83-.66-1.49-1.41-1.49h-1.66c-.74,0-1.32.5-1.41,1.24l-.17,1.08c-.25,1.65-1.65,2.15-6.21,2.15h-7.2c-2.81,0-4.39,0-5.96-.08-.74-.08-1.32-.66-1.32-1.41v-21.76c0-.74.66-1.41,1.41-1.41l14.4-.25c5.96,0,10.59.83,10.67,1.9l.74,6.37c.08.74.66,1.24,1.41,1.24h1.32c.74,0,1.32-.58,1.41-1.24l1.41-13.24-.66-.74c-4.05-.17-6.29-.33-10.34-.33-8.61,0-17.13.33-25.74.33-6.37,0-12.83-.08-19.28-.25-.83,0-1.49.66-1.49,1.41v.99c0,.74.58,1.41,1.32,1.41l2.73.17c4.88.41,5.21.99,5.21,10.01v45.76c0,3.48-.58,5.05-2.15,5.79l-2.73,1.41c-.5.25-.74.74-.74,1.24,0,.83.66,1.49,1.49,1.41,3.97-.17,7.94-.25,11.92-.25,8.19,0,16.47.33,24.66.33,5.96,0,9.02,0,15.23-.33l.33-.5c.17-.17.25-.41.25-.66l1.08-14.23c.17-.83-.5-1.49-1.32-1.49Z"/>
  <path class="st0" d="M147.96,91.66s-.58-13.16-.58-29.38.58-29.38.58-29.38c0,0,.58,13.16.58,29.38s-.58,29.38-.58,29.38ZM192.31,80h-1.57c-.66,0-1.24.41-1.41,1.08l-2.23,8.52c-.25.83-5.96,1.74-11.01,1.74l-14.81-.25c-.74,0-1.41-.66-1.41-1.41v-24.58c0-.74.58-1.41,1.32-1.41,2.32-.17,3.97-.25,5.96-.25h7.2c4.14,0,5.88,1.16,6.21,3.81l.08,1.08h2.9c.83,0,1.41-.66,1.41-1.41,0-3.31.08-8.11.17-11.5,0-.83-.66-1.49-1.41-1.49h-1.65c-.74,0-1.32.5-1.41,1.24l-.17,1.08c-.25,1.65-1.65,2.15-6.21,2.15h-7.2c-2.81,0-4.39,0-5.96-.08-.74-.08-1.32-.66-1.32-1.41v-21.76c0-.74.66-1.41,1.41-1.41l14.4-.25c5.96,0,10.59.83,10.67,1.9l.74,6.37c.08.74.66,1.24,1.41,1.24h1.32c.74,0,1.32-.58,1.41-1.24l1.41-13.24-.66-.74c-4.05-.17-6.29-.33-10.34-.33-8.61,0-17.13.33-25.74.33-6.37,0-12.83-.08-19.28-.25-.83,0-1.49.66-1.49,1.41v.99c0,.74.58,1.41,1.32,1.41l2.73.17c4.88.41,5.21.99,5.21,10.01v45.76c0,3.48-.58,5.05-2.15,5.79l-2.73,1.41c-.5.25-.74.74-.74,1.24,0,.83.66,1.49,1.49,1.41,3.97-.17,7.94-.25,11.92-.25,8.19,0,16.47.33,24.66.33,5.96,0,9.02,0,15.23-.33l.33-.5c.17-.17.25-.41.25-.66l1.08-14.23c.17-.83-.5-1.49-1.32-1.49Z"/>
  <path class="st0" d="M415.82,89.51s-.58-13.16-.58-29.46.58-29.46.58-29.46c0,0,.58,13.16.58,29.46s-.58,29.46-.58,29.46ZM499.9,8.83c-4.14.17-8.28.25-12.41.25s-8.36-.08-12.58-.25c-1.41-.08-2.57,1.08-2.57,2.4,0,1.24.99,2.32,2.23,2.4l2.65.25c5.96.5,6.29,1.32,6.29,12.66v39.97c-.08,5.63-.99,6.04-4.63,2.9l-36.41-43.53c-2.65-2.98-4.97-6.04-12.74-16.22-.5-.66-1.32-.99-2.07-.99-3.23.17-6.54.33-9.76.33-4.39,0-8.85-.08-13.24-.25-1.41-.08-2.57,1.08-2.57,2.4,0,1.24.99,2.32,2.23,2.4l2.65.25c5.96.5,6.29,1.32,6.29,12.66v52.88c0,11.42-.41,12.16-6.29,12.66,0,0-4.88,1.41-4.88,2.65,0,1.41,1.16,2.48,2.57,2.4,4.22-.17,8.44-.25,12.58-.25s8.28.08,12.41.25c1.41.08,2.57-1.08,2.57-2.4,0-1.24-4.88-2.65-4.88-2.65-5.96-.5-6.29-1.16-6.29-12.66v-44.19c0-2.32,2.81-3.31,4.3-1.57l38.56,45.68s14.81,16.88,16.88,19.28c.17.17.33.25.58.25h8.52c.58.08,1.08,0,1.57-.25l.17-.08-.41-13.07V26.54c0-11.42.41-12.16,6.29-12.66l2.65-.25c1.24-.08,2.23-1.16,2.23-2.4.08-1.32-1.16-2.4-2.48-2.4Z"/>
  <path class="st0" d="M22.84,53.27c-4.97-19.94-8.52-36.24-8.52-36.24,0,0,4.47,16.05,9.43,36,4.97,19.94,8.52,36.24,8.52,36.24,0,0-4.55-16.05-9.43-36ZM114.78.64c-3.14-1.08-6.12-.74-8.94.66-2.81,1.41-4.63,4.05-5.79,6.7-1.08,2.65-1.32,5.21-.08,7.61,1.16,2.4,2.9,3.48,5.3,4.3,2.32.83,4.97.74,7.28-.08,2.32-.83,3.89-2.23,4.63-4.47.74-2.32.41-4.3-.74-6.45s-3.06-3.48-5.38-4.3c-1.9-.66-3.72-.5-5.63-.08,2.57-1.57,4.63-2.32,7.7-1.08,5.88,2.32,6.7,7.45,7.36,13.32,0,0,.08,2.48-.25,4.63-2.65,18.37-7.78,31.53-14.07,48.66-6.12-14.98-13.57-30.7-20.36-45.1-3.06-6.54-4.72-11.17-7.28-17.46-2.07,0-4.39.25-6.37-.08-3.64,8.11-3.14,7.28-7.78,17.46-4.88,10.76-14.73,32.02-20.77,44.77-3.97-16.14-7.94-33.18-11.83-49.48-.33-1.57-.58-2.07-.41-3.48.25-2.07,2.07-2.98,4.3-3.23,1.49-.17,4.22-.25,5.88-.41.08-1.57,0-3.23,0-4.8-6.45.25-12.74.41-19.2.41-7.45,0-14.9-.17-22.34-.41v4.8c1.49.5,3.14-.17,4.55.41,3.39,1.41,4.22.99,5.38,5.71,6.37,25.24,13.24,52.13,19.86,77.79,3.31.25,6.79-.25,9.93.25,3.72-8.19,2.65-7.2,7.53-17.54,4.88-10.34,15.72-32.11,21.52-44.69,7.45,15.23,15.06,32.44,21.43,47.91,2.4,5.79,3.14,8.77,5.21,14.15,3.39.08,6.95,0,10.26.33,2.65-7.86,2.15-9.93,5.88-19.28s12.91-34.26,14.48-44.35v-.41c.08-.41.08-.83,0,0v.41c1.57-10.1,2.15-17.29,1.82-18.95-1.49-7.45-5.88-11.67-13.07-14.15Z"/>
</svg>