<?xml version="1.0" encoding="UTF-8"?>
<svg xmlns="http://www.w3.org/2000/svg" version="1.1" xmlns:xlink="http://www.w3.org/1999/xlink" viewBox="0 0 123.4 136.93">
  <!-- Generator: Adobe Illustrator 30.2.1, SVG Export Plug-In . SVG Version: 2.1.1 Build 1)  -->
  <defs>
    <style>
      .st0 {
        fill: #342d28;
      }

      .st1 {
        fill: #ffd863;
      }

      .st2 {
        fill: #fff;
      }

      .st3 {
        fill: url(#radial-gradient);
      }

      .st4 {
        fill: #b18412;
      }

      .st5 {
        isolation: isolate;
      }

      .st6 {
        fill: #f0eece;
      }

      .st7 {
        fill: #fafcf9;
      }

      .st8, .st9 {
        mix-blend-mode: overlay;
      }

      .st9 {
        fill: #fafbf2;
      }

      .st10 {
        fill: #f7c634;
      }
    </style>
    <radialGradient id="radial-gradient" cx="-129.96" cy="-1215.97" fx="-129.96" fy="-1215.97" r="120.83" gradientTransform="translate(-57.21 1233.92) rotate(13.67)" gradientUnits="userSpaceOnUse">
      <stop offset="0" stop-color="#f7c634"/>
      <stop offset="1" stop-color="#b18412"/>
    </radialGradient>
  </defs>
  <g class="st5">
    <g id="Layer_1">
      <g>
        <path class="st0" d="M63.59,128.21c-4.04,0-8.09-.49-12.04-1.44l-9.63-2.34s-.08-.02-.12-.03c-8.55-2.1-16.21-6.26-22.78-12.36-3.41-3.16-6.46-6.82-9.06-10.87-1.55-2.39-2.95-4.98-4.18-7.69C2.14,85.47.14,76.42,0,67.31c-.09-5.89.58-11.86,2.01-17.72C9.01,20.86,33.31,0,59.8,0c4.04,0,8.09.49,12.04,1.44l9.63,2.34c14.71,3.58,26.96,13.38,34.49,27.59,7.47,14.1,9.39,30.88,5.41,47.25-6.99,28.73-31.29,49.59-57.78,49.59,0,0,0,0,0,0Z"/>
        <g>
          <path class="st3" d="M80.83,6.42l-9.63-2.34-.25,1.02c-25.48-.8-49.66,18.68-56.67,47.48-7.01,28.8,5.52,57.21,28.52,68.2l-.25,1.02,9.63,2.34c28.84,7.02,58.64-13.65,66.55-46.15,7.91-32.51-9.06-64.55-37.91-71.56Z"/>
          <path class="st1" d="M109.11,75.64c-7.91,32.5-37.7,53.16-66.54,46.15-8.33-2.03-15.66-6.13-21.7-11.74-3.28-3.04-6.17-6.52-8.63-10.35-1.5-2.32-2.83-4.78-3.99-7.35-3.46-7.6-5.4-16.14-5.53-25.08-.09-5.58.53-11.3,1.93-17.04C12.56,17.72,42.35-2.94,71.2,4.08c7.29,1.77,13.81,5.14,19.37,9.71,6.26,5.14,11.3,11.81,14.81,19.44,1.17,2.54,2.17,5.2,2.99,7.94,1.36,4.49,2.22,9.21,2.53,14.07.44,6.61-.12,13.49-1.79,20.39Z"/>
          <g class="st8">
            <path class="st2" d="M98.79,22.29c19.38,23.99,15.76,61.7-5.55,83.33-3.03,3.08-6.36,5.87-9.97,8.21,3.49-2.53,6.73-5.38,9.62-8.55,20.53-21.98,24-58.51,5.91-83h0Z"/>
          </g>
          <path class="st9" d="M105.38,33.24L8.25,92.35c-3.46-7.6-5.4-16.14-5.53-25.08L90.57,13.79c6.26,5.14,11.3,11.81,14.81,19.44Z"/>
          <path class="st9" d="M110.9,55.25L20.87,110.05c-3.28-3.04-6.17-6.52-8.63-10.35l96.13-58.52c1.36,4.49,2.22,9.21,2.53,14.07Z"/>
          <ellipse class="st4" cx="56.88" cy="62.93" rx="49.4" ry="43.84" transform="translate(-17.72 103.32) rotate(-76.33)"/>
          <ellipse class="st10" cx="58.5" cy="63.33" rx="49.4" ry="42.17" transform="translate(-16.86 105.2) rotate(-76.33)"/>
          <g>
            <path class="st0" d="M35.85,75.87l-12.33-3,1.35-5.55,4.02.98,5.97-24.54-3.14-.76,1.21-4.96,7.57,1.84-7.18,29.5,3.88.94-1.35,5.55Z"/>
            <path class="st0" d="M62.24,69.66c-.88,3.63-2.53,6.42-4.93,8.37-2.4,1.94-4.92,2.59-7.55,1.95-2.47-.6-4.24-2.09-5.31-4.46s-1.3-5.29-.69-8.75l4.31,1.05c-.2,1.64,0,3.06.57,4.26.58,1.21,1.46,1.95,2.64,2.24,1.41.34,2.74-.03,3.99-1.12,1.25-1.09,2.11-2.61,2.58-4.55.49-2.01.43-3.75-.19-5.2-.62-1.46-1.66-2.36-3.12-2.72-1.88-.46-3.48.24-4.77,2.09l-3.44-2.02,6.8-17.84,12.33,3-1.35,5.55-9.09-2.21-2.89,7.13c1.37-1.01,2.89-1.31,4.58-.89,2.37.58,4.08,2.26,5.14,5.04,1.05,2.78,1.18,5.81.38,9.09Z"/>
            <path class="st0" d="M92.53,51.97l-21.61,33.16-2.9-.71,21.61-33.16,2.9.71ZM76.93,47.96c1.71.42,2.98,1.62,3.8,3.61.82,1.99.95,4.17.37,6.54-.58,2.4-1.69,4.28-3.31,5.64-1.62,1.36-3.3,1.83-5.04,1.4s-3-1.61-3.8-3.55c-.79-1.95-.9-4.12-.32-6.52.58-2.37,1.67-4.25,3.29-5.64,1.62-1.39,3.29-1.88,5-1.46ZM77.96,57.34c.3-1.23.25-2.35-.16-3.34s-1.05-1.6-1.95-1.81-1.75.02-2.56.72-1.37,1.66-1.67,2.89-.25,2.34.16,3.31c.41.98,1.06,1.57,1.95,1.79s1.74-.01,2.56-.69c.81-.68,1.37-1.63,1.67-2.87ZM92.03,81.13c-.57,2.34-1.68,4.21-3.32,5.61s-3.32,1.9-5.01,1.49c-1.71-.42-2.98-1.62-3.79-3.6-.81-1.98-.93-4.16-.35-6.53.58-2.4,1.68-4.28,3.29-5.64,1.61-1.36,3.29-1.83,5.02-1.41,1.74.42,3.01,1.61,3.82,3.56.81,1.95.92,4.12.33,6.53ZM88.89,80.37c.29-1.2.24-2.3-.17-3.29-.41-.99-1.04-1.59-1.91-1.81-.92-.22-1.77,0-2.57.66-.8.67-1.35,1.63-1.66,2.9-.29,1.2-.23,2.32.18,3.34.41,1.03,1.05,1.65,1.92,1.86.89.22,1.74-.03,2.55-.75.81-.71,1.36-1.69,1.66-2.92Z"/>
          </g>
          <g>
            <path class="st7" d="M34.23,75.47l-12.33-3,1.35-5.55,4.02.98,5.97-24.54-3.13-.76,1.21-4.96,7.57,1.84-7.18,29.5,3.88.94-1.35,5.55Z"/>
            <path class="st7" d="M60.63,69.26c-.88,3.63-2.53,6.42-4.93,8.37-2.4,1.94-4.92,2.59-7.55,1.95-2.47-.6-4.24-2.09-5.31-4.46-1.08-2.38-1.3-5.29-.69-8.75l4.31,1.05c-.2,1.64,0,3.06.57,4.26.58,1.21,1.46,1.95,2.63,2.24,1.41.34,2.74-.03,3.99-1.12,1.25-1.09,2.11-2.61,2.58-4.55.49-2.01.43-3.75-.19-5.2-.62-1.46-1.66-2.36-3.12-2.72-1.88-.46-3.48.24-4.77,2.09l-3.44-2.02,6.8-17.83,12.33,3-1.35,5.55-9.09-2.21-2.89,7.13c1.36-1.01,2.89-1.31,4.58-.89,2.37.58,4.08,2.26,5.14,5.04,1.05,2.78,1.18,5.81.38,9.09Z"/>
            <path class="st7" d="M90.91,51.57l-21.61,33.16-2.9-.71,21.61-33.15,2.9.71ZM75.31,47.57c1.71.42,2.98,1.62,3.8,3.61.82,1.99.94,4.17.37,6.54-.58,2.4-1.69,4.28-3.31,5.64-1.62,1.36-3.3,1.83-5.04,1.4-1.74-.42-3-1.61-3.8-3.55-.79-1.95-.9-4.12-.32-6.52.58-2.37,1.67-4.25,3.29-5.64,1.62-1.39,3.29-1.88,5-1.46ZM76.35,56.95c.3-1.23.25-2.35-.16-3.34s-1.05-1.6-1.95-1.81c-.89-.22-1.75.02-2.56.72s-1.37,1.66-1.67,2.89-.25,2.34.16,3.31c.41.98,1.06,1.57,1.95,1.79.89.22,1.74-.01,2.56-.69.81-.68,1.37-1.63,1.67-2.87ZM90.41,80.74c-.57,2.34-1.68,4.21-3.32,5.61-1.65,1.4-3.32,1.9-5.01,1.49-1.71-.42-2.98-1.62-3.79-3.6-.81-1.98-.93-4.16-.35-6.53.58-2.4,1.68-4.28,3.29-5.64,1.61-1.36,3.29-1.83,5.02-1.41,1.74.42,3.01,1.61,3.82,3.56.81,1.95.92,4.12.33,6.53ZM87.27,79.97c.29-1.2.24-2.3-.17-3.29-.41-.99-1.04-1.59-1.91-1.8-.92-.22-1.77,0-2.57.66-.8.67-1.35,1.63-1.66,2.9-.29,1.2-.23,2.31.18,3.34.41,1.03,1.05,1.65,1.92,1.86.89.22,1.74-.03,2.55-.75.81-.71,1.36-1.69,1.66-2.92Z"/>
          </g>
        </g>
        <g>
          <g>
            <path class="st0" d="M35.85,75.87l-12.33-3,1.35-5.55,4.02.98,5.97-24.54-3.14-.76,1.21-4.96,7.57,1.84-7.18,29.5,3.88.94-1.35,5.55Z"/>
            <path class="st0" d="M62.24,69.66c-.88,3.63-2.53,6.42-4.93,8.37-2.4,1.94-4.92,2.59-7.55,1.95-2.47-.6-4.24-2.09-5.31-4.46s-1.3-5.29-.69-8.75l4.31,1.05c-.2,1.64,0,3.06.57,4.26.58,1.21,1.46,1.95,2.64,2.24,1.41.34,2.74-.03,3.99-1.12,1.25-1.09,2.11-2.61,2.58-4.55.49-2.01.43-3.75-.19-5.2-.62-1.46-1.66-2.36-3.12-2.72-1.88-.46-3.48.24-4.77,2.09l-3.44-2.02,6.8-17.84,12.33,3-1.35,5.55-9.09-2.21-2.89,7.13c1.37-1.01,2.89-1.31,4.58-.89,2.37.58,4.08,2.26,5.14,5.04,1.05,2.78,1.18,5.81.38,9.09Z"/>
            <path class="st0" d="M92.53,51.97l-21.61,33.16-2.9-.71,21.61-33.16,2.9.71ZM76.93,47.96c1.71.42,2.98,1.62,3.8,3.61.82,1.99.95,4.17.37,6.54-.58,2.4-1.69,4.28-3.31,5.64-1.62,1.36-3.3,1.83-5.04,1.4s-3-1.61-3.8-3.55c-.79-1.95-.9-4.12-.32-6.52.58-2.37,1.67-4.25,3.29-5.64,1.62-1.39,3.29-1.88,5-1.46ZM77.96,57.34c.3-1.23.25-2.35-.16-3.34s-1.05-1.6-1.95-1.81-1.75.02-2.56.72-1.37,1.66-1.67,2.89-.25,2.34.16,3.31c.41.98,1.06,1.57,1.95,1.79s1.74-.01,2.56-.69c.81-.68,1.37-1.63,1.67-2.87ZM92.03,81.13c-.57,2.34-1.68,4.21-3.32,5.61s-3.32,1.9-5.01,1.49c-1.71-.42-2.98-1.62-3.79-3.6-.81-1.98-.93-4.16-.35-6.53.58-2.4,1.68-4.28,3.29-5.64,1.61-1.36,3.29-1.83,5.02-1.41,1.74.42,3.01,1.61,3.82,3.56.81,1.95.92,4.12.33,6.53ZM88.89,80.37c.29-1.2.24-2.3-.17-3.29-.41-.99-1.04-1.59-1.91-1.81-.92-.22-1.77,0-2.57.66-.8.67-1.35,1.63-1.66,2.9-.29,1.2-.23,2.32.18,3.34.41,1.03,1.05,1.65,1.92,1.86.89.22,1.74-.03,2.55-.75.81-.71,1.36-1.69,1.66-2.92Z"/>
          </g>
          <g>
            <path class="st7" d="M34.23,75.47l-12.33-3,1.35-5.55,4.02.98,5.97-24.54-3.13-.76,1.21-4.96,7.57,1.84-7.18,29.5,3.88.94-1.35,5.55Z"/>
            <path class="st7" d="M60.63,69.26c-.88,3.63-2.53,6.42-4.93,8.37-2.4,1.94-4.92,2.59-7.55,1.95-2.47-.6-4.24-2.09-5.31-4.46-1.08-2.38-1.3-5.29-.69-8.75l4.31,1.05c-.2,1.64,0,3.06.57,4.26.58,1.21,1.46,1.95,2.63,2.24,1.41.34,2.74-.03,3.99-1.12,1.25-1.09,2.11-2.61,2.58-4.55.49-2.01.43-3.75-.19-5.2-.62-1.46-1.66-2.36-3.12-2.72-1.88-.46-3.48.24-4.77,2.09l-3.44-2.02,6.8-17.83,12.33,3-1.35,5.55-9.09-2.21-2.89,7.13c1.36-1.01,2.89-1.31,4.58-.89,2.37.58,4.08,2.26,5.14,5.04,1.05,2.78,1.18,5.81.38,9.09Z"/>
            <path class="st7" d="M90.91,51.57l-21.61,33.16-2.9-.71,21.61-33.15,2.9.71ZM75.31,47.57c1.71.42,2.98,1.62,3.8,3.61.82,1.99.94,4.17.37,6.54-.58,2.4-1.69,4.28-3.31,5.64-1.62,1.36-3.3,1.83-5.04,1.4-1.74-.42-3-1.61-3.8-3.55-.79-1.95-.9-4.12-.32-6.52.58-2.37,1.67-4.25,3.29-5.64,1.62-1.39,3.29-1.88,5-1.46ZM76.35,56.95c.3-1.23.25-2.35-.16-3.34s-1.05-1.6-1.95-1.81c-.89-.22-1.75.02-2.56.72s-1.37,1.66-1.67,2.89-.25,2.34.16,3.31c.41.98,1.06,1.57,1.95,1.79.89.22,1.74-.01,2.56-.69.81-.68,1.37-1.63,1.67-2.87ZM90.41,80.74c-.57,2.34-1.68,4.21-3.32,5.61-1.65,1.4-3.32,1.9-5.01,1.49-1.71-.42-2.98-1.62-3.79-3.6-.81-1.98-.93-4.16-.35-6.53.58-2.4,1.68-4.28,3.29-5.64,1.61-1.36,3.29-1.83,5.02-1.41,1.74.42,3.01,1.61,3.82,3.56.81,1.95.92,4.12.33,6.53ZM87.27,79.97c.29-1.2.24-2.3-.17-3.29-.41-.99-1.04-1.59-1.91-1.8-.92-.22-1.77,0-2.57.66-.8.67-1.35,1.63-1.66,2.9-.29,1.2-.23,2.31.18,3.34.41,1.03,1.05,1.65,1.92,1.86.89.22,1.74-.03,2.55-.75.81-.71,1.36-1.69,1.66-2.92Z"/>
          </g>
        </g>
        <path class="st6" d="M114.29,132.11c0,2.66-23.55,4.82-52.6,4.82s-52.6-2.16-52.6-4.82,23.55-4.82,52.6-4.82,52.6,2.16,52.6,4.82Z"/>
      </g>
    </g>
  </g>
</svg>