<?xml version="1.0" encoding="UTF-8"?>
<svg xmlns="http://www.w3.org/2000/svg" version="1.1" xmlns:xlink="http://www.w3.org/1999/xlink" viewBox="0 0 133.68 137.6">
  <!-- Generator: Adobe Illustrator 30.2.1, SVG Export Plug-In . SVG Version: 2.1.1 Build 1)  -->
  <defs>
    <style>
      .st0 {
        fill: #342d28;
      }

      .st1 {
        fill: #ffd863;
      }

      .st2 {
        fill: #fff;
      }

      .st3 {
        fill: #fcfdf6;
      }

      .st4 {
        fill: url(#radial-gradient);
      }

      .st5 {
        fill: #b18412;
      }

      .st6 {
        isolation: isolate;
      }

      .st7 {
        fill: #115d2e;
      }

      .st8 {
        fill: #fafcf9;
      }

      .st9, .st10 {
        mix-blend-mode: overlay;
      }

      .st10 {
        fill: #fafbf2;
      }

      .st11 {
        fill: #f7c634;
      }
    </style>
    <radialGradient id="radial-gradient" cx="-37.94" cy="-1075.19" fx="-37.94" fy="-1075.19" r="70.24" gradientTransform="translate(-96.06 1128.25) rotate(13.67)" gradientUnits="userSpaceOnUse">
      <stop offset="0" stop-color="#f7c634"/>
      <stop offset="1" stop-color="#b18412"/>
    </radialGradient>
  </defs>
  <g class="st6">
    <g id="Layer_1">
      <g>
        <path class="st0" d="M97.78,137.6c-2.44,0-4.89-.29-7.26-.87l-5.6-1.36c-5.19-1.26-9.84-3.78-13.81-7.48-2.05-1.9-3.89-4.1-5.45-6.54-.93-1.43-1.77-2.99-2.51-4.61-2.18-4.79-3.37-10.21-3.46-15.66-.06-3.52.35-7.08,1.2-10.59,4.19-17.2,18.78-29.69,34.69-29.69,2.44,0,4.88.29,7.26.87l5.6,1.36c8.87,2.16,16.25,8.06,20.78,16.61,4.47,8.44,5.62,18.48,3.25,28.26-4.19,17.2-18.78,29.69-34.69,29.69,0,0,0,0,0,0Z"/>
        <g>
          <path class="st3" d="M79.35,15.95v16c0,1.02-.83,1.86-1.86,1.86H17.19c-1.03,0-1.86-.83-1.86-1.86v-16c0-1.02.83-1.86,1.86-1.86h60.3c1.03,0,1.86.83,1.86,1.86Z"/>
          <rect class="st11" x="65.25" y="46.18" width="14.1" height="14.1" rx="2.03" ry="2.03"/>
          <path class="st11" d="M29.43,96.22v10.06c0,1.11-.91,2.02-2.03,2.02h-10.05c-1.11,0-2.03-.91-2.03-2.02v-10.06c0-1.11.91-2.02,2.03-2.02h10.05c1.12,0,2.03.91,2.03,2.02Z"/>
          <path class="st11" d="M54.39,96.22v10.06c0,1.11-.91,2.02-2.03,2.02h-10.05c-1.12,0-2.03-.91-2.03-2.02v-10.06c0-1.11.91-2.02,2.03-2.02h10.05c1.11,0,2.03.91,2.03,2.02Z"/>
          <path class="st11" d="M54.39,71.98v10.05c0,1.12-.91,2.03-2.03,2.03h-10.05c-1.12,0-2.03-.91-2.03-2.03v-10.05c0-1.11.91-2.02,2.03-2.02h10.05c1.11,0,2.03.91,2.03,2.02Z"/>
          <path class="st11" d="M29.43,71.98v10.05c0,1.12-.91,2.03-2.03,2.03h-10.05c-1.11,0-2.03-.91-2.03-2.03v-10.05c0-1.11.91-2.02,2.03-2.02h10.05c1.12,0,2.03.91,2.03,2.02Z"/>
          <rect class="st11" x="15.32" y="46.18" width="14.1" height="14.1" rx="2.03" ry="2.03"/>
          <rect class="st11" x="40.28" y="46.18" width="14.1" height="14.1" rx="2.03" ry="2.03"/>
          <path class="st7" d="M92.13,14.6v91.67c0,6.65-5.41,12.06-12.06,12.06H14.61c-6.65,0-12.06-5.41-12.06-12.06V14.6C2.55,7.95,7.95,2.54,14.61,2.54h65.46c6.65,0,12.06,5.42,12.06,12.06ZM81.89,58.26v-10.05c0-2.52-2.04-4.56-4.56-4.56h-10.05c-2.52,0-4.56,2.04-4.56,4.56v10.05c0,2.52,2.04,4.56,4.56,4.56h10.05c2.52,0,4.56-2.04,4.56-4.56ZM81.89,31.95v-16c0-2.43-1.97-4.4-4.4-4.4H17.19c-2.43,0-4.4,1.97-4.4,4.4v16c0,2.43,1.97,4.4,4.4,4.4h60.3c2.43,0,4.4-1.97,4.4-4.4ZM56.93,106.28v-10.06c0-2.51-2.04-4.56-4.56-4.56h-10.05c-2.52,0-4.56,2.05-4.56,4.56v10.06c0,2.51,2.04,4.56,4.56,4.56h10.05c2.52,0,4.56-2.05,4.56-4.56ZM56.93,82.03v-10.05c0-2.52-2.04-4.56-4.56-4.56h-10.05c-2.52,0-4.56,2.04-4.56,4.56v10.05c0,2.52,2.04,4.56,4.56,4.56h10.05c2.52,0,4.56-2.04,4.56-4.56ZM56.93,58.26v-10.05c0-2.52-2.04-4.56-4.56-4.56h-10.05c-2.52,0-4.56,2.04-4.56,4.56v10.05c0,2.52,2.04,4.56,4.56,4.56h10.05c2.52,0,4.56-2.04,4.56-4.56ZM31.96,106.28v-10.06c0-2.51-2.04-4.56-4.56-4.56h-10.05c-2.52,0-4.56,2.05-4.56,4.56v10.06c0,2.51,2.04,4.56,4.56,4.56h10.05c2.52,0,4.56-2.05,4.56-4.56ZM31.96,82.03v-10.05c0-2.52-2.04-4.56-4.56-4.56h-10.05c-2.52,0-4.56,2.04-4.56,4.56v10.05c0,2.52,2.04,4.56,4.56,4.56h10.05c2.52,0,4.56-2.04,4.56-4.56ZM31.96,58.26v-10.05c0-2.52-2.04-4.56-4.56-4.56h-10.05c-2.52,0-4.56,2.04-4.56,4.56v10.05c0,2.52,2.04,4.56,4.56,4.56h10.05c2.52,0,4.56-2.04,4.56-4.56Z"/>
          <path class="st0" d="M79.35,48.21c0-1.12-.91-2.03-2.03-2.03h-10.05c-1.12,0-2.03.91-2.03,2.03v10.05c0,1.11.91,2.03,2.03,2.03h10.05c1.11,0,2.03-.91,2.03-2.03v-10.05ZM77.32,43.65c2.52,0,4.56,2.04,4.56,4.56v10.05c0,2.52-2.04,4.56-4.56,4.56h-10.05c-2.52,0-4.56-2.04-4.56-4.56v-10.05c0-2.52,2.04-4.56,4.56-4.56h10.05Z"/>
          <path class="st0" d="M40.28,106.28c0,1.11.91,2.02,2.03,2.02h10.05c1.11,0,2.03-.91,2.03-2.02v-10.06c0-1.11-.91-2.02-2.03-2.02h-10.05c-1.12,0-2.03.91-2.03,2.02v10.06ZM52.36,91.66c2.52,0,4.56,2.05,4.56,4.56v10.06c0,2.51-2.04,4.56-4.56,4.56h-10.05c-2.52,0-4.56-2.05-4.56-4.56v-10.06c0-2.51,2.04-4.56,4.56-4.56h10.05Z"/>
          <path class="st0" d="M52.36,84.06c1.11,0,2.03-.91,2.03-2.03v-10.05c0-1.11-.91-2.02-2.03-2.02h-10.05c-1.12,0-2.03.91-2.03,2.02v10.05c0,1.12.91,2.03,2.03,2.03h10.05ZM56.93,82.03c0,2.52-2.04,4.56-4.56,4.56h-10.05c-2.52,0-4.56-2.04-4.56-4.56v-10.05c0-2.52,2.04-4.56,4.56-4.56h10.05c2.52,0,4.56,2.04,4.56,4.56v10.05Z"/>
          <path class="st0" d="M37.75,48.21c0-2.52,2.04-4.56,4.56-4.56h10.05c2.52,0,4.56,2.04,4.56,4.56v10.05c0,2.52-2.04,4.56-4.56,4.56h-10.05c-2.52,0-4.56-2.04-4.56-4.56v-10.05ZM54.39,48.21c0-1.12-.91-2.03-2.03-2.03h-10.05c-1.12,0-2.03.91-2.03,2.03v10.05c0,1.11.91,2.03,2.03,2.03h10.05c1.11,0,2.03-.91,2.03-2.03v-10.05Z"/>
          <path class="st0" d="M27.4,94.21h-10.05c-1.11,0-2.03.91-2.03,2.02v10.06c0,1.11.91,2.02,2.03,2.02h10.05c1.12,0,2.03-.91,2.03-2.02v-10.06c0-1.11-.91-2.02-2.03-2.02ZM17.35,110.85c-2.52,0-4.56-2.05-4.56-4.56v-10.06c0-2.51,2.04-4.56,4.56-4.56h10.05c2.52,0,4.56,2.05,4.56,4.56v10.06c0,2.51-2.04,4.56-4.56,4.56h-10.05Z"/>
          <path class="st0" d="M17.35,84.06h10.05c1.12,0,2.03-.91,2.03-2.03v-10.05c0-1.11-.91-2.02-2.03-2.02h-10.05c-1.11,0-2.03.91-2.03,2.02v10.05c0,1.12.91,2.03,2.03,2.03ZM27.4,86.59h-10.05c-2.52,0-4.56-2.04-4.56-4.56v-10.05c0-2.52,2.04-4.56,4.56-4.56h10.05c2.52,0,4.56,2.04,4.56,4.56v10.05c0,2.52-2.04,4.56-4.56,4.56Z"/>
          <path class="st0" d="M17.35,62.83c-2.52,0-4.56-2.04-4.56-4.56v-10.05c0-2.52,2.04-4.56,4.56-4.56h10.05c2.52,0,4.56,2.04,4.56,4.56v10.05c0,2.52-2.04,4.56-4.56,4.56h-10.05ZM17.35,60.29h10.05c1.12,0,2.03-.91,2.03-2.03v-10.05c0-1.12-.91-2.03-2.03-2.03h-10.05c-1.11,0-2.03.91-2.03,2.03v10.05c0,1.11.91,2.03,2.03,2.03Z"/>
          <path class="st0" d="M77.48,14.09H17.19c-1.03,0-1.86.83-1.86,1.86v16c0,1.02.83,1.86,1.86,1.86h60.3c1.03,0,1.86-.83,1.86-1.86v-16c0-1.02-.83-1.86-1.86-1.86ZM81.89,31.95c0,2.43-1.97,4.4-4.4,4.4H17.19c-2.43,0-4.4-1.97-4.4-4.4v-16c0-2.43,1.97-4.4,4.4-4.4h60.3c2.43,0,4.4,1.97,4.4,4.4v16Z"/>
          <path class="st0" d="M14.61,120.87c-8.05,0-14.61-6.55-14.61-14.61V14.6C0,6.55,6.55,0,14.61,0h65.46c8.05,0,14.61,6.55,14.61,14.6v91.67c0,8.05-6.55,14.61-14.61,14.61H14.61ZM14.61,118.33h65.46c6.65,0,12.06-5.41,12.06-12.06V14.6c0-6.64-5.41-12.06-12.06-12.06H14.61C7.95,2.54,2.55,7.95,2.55,14.6v91.67c0,6.65,5.41,12.06,12.06,12.06Z"/>
        </g>
        <g>
          <path class="st4" d="M107.8,65.67l-5.6-1.36-.14.59c-14.81-.47-28.87,10.86-32.94,27.6-4.07,16.74,3.21,33.25,16.58,39.64l-.14.59,5.6,1.36c16.77,4.08,34.09-7.93,38.68-26.83,4.6-18.89-5.27-37.52-22.04-41.6Z"/>
          <path class="st1" d="M124.23,105.91c-4.6,18.89-21.92,30.9-38.68,26.82-4.84-1.18-9.1-3.57-12.61-6.83-1.91-1.77-3.59-3.79-5.01-6.02-.87-1.35-1.65-2.78-2.32-4.27-2.01-4.42-3.14-9.38-3.21-14.58-.05-3.24.31-6.57,1.12-9.9,4.6-18.9,21.92-30.91,38.68-26.83,4.24,1.03,8.03,2.99,11.26,5.65,3.64,2.99,6.57,6.86,8.61,11.3.68,1.48,1.26,3.02,1.74,4.62.79,2.61,1.29,5.35,1.47,8.18.26,3.84-.07,7.84-1.04,11.85Z"/>
          <g class="st9">
            <path class="st2" d="M118.24,74.89c9.86,11.82,9.76,29.91,1.57,42.61-2.73,4.23-6.33,7.93-10.6,10.6,3.99-2.99,7.39-6.74,9.94-11.01,7.71-12.74,7.84-29.92-.92-42.2h0Z"/>
          </g>
          <path class="st10" d="M122.07,81.26l-56.46,34.36c-2.01-4.42-3.14-9.38-3.21-14.58l51.07-31.09c3.64,2.99,6.57,6.86,8.61,11.3Z"/>
          <path class="st10" d="M125.28,94.06l-52.33,31.85c-1.91-1.77-3.59-3.79-5.01-6.02l55.88-34.01c.79,2.61,1.29,5.35,1.47,8.18Z"/>
          <ellipse class="st5" cx="93.88" cy="98.52" rx="28.72" ry="25.48" transform="translate(-24.04 166.45) rotate(-76.33)"/>
          <ellipse class="st11" cx="94.82" cy="98.75" rx="28.72" ry="24.51" transform="translate(-23.55 167.54) rotate(-76.33)"/>
          <g>
            <path class="st0" d="M81.67,106.06l-7.17-1.74.79-3.23,2.33.57,3.47-14.26-1.82-.44.7-2.89,4.4,1.07-4.17,17.15,2.25.55-.79,3.23Z"/>
            <path class="st0" d="M97.02,102.45c-.51,2.11-1.47,3.73-2.86,4.86-1.4,1.13-2.86,1.51-4.39,1.14-1.43-.35-2.46-1.21-3.09-2.59-.63-1.38-.76-3.08-.4-5.09l2.5.61c-.11.95,0,1.78.33,2.48.34.7.85,1.14,1.53,1.3.82.2,1.59-.02,2.32-.65.73-.63,1.23-1.51,1.5-2.65.28-1.17.25-2.18-.11-3.03-.36-.85-.96-1.37-1.81-1.58-1.09-.27-2.02.14-2.77,1.21l-2-1.17,3.95-10.37,7.17,1.74-.79,3.23-5.28-1.29-1.68,4.15c.79-.59,1.68-.76,2.66-.52,1.38.33,2.37,1.31,2.99,2.93s.69,3.38.22,5.28Z"/>
            <path class="st0" d="M114.62,92.16l-12.56,19.27-1.68-.41,12.56-19.27,1.68.41ZM105.55,89.84c1,.24,1.73.94,2.21,2.1.48,1.15.55,2.42.21,3.8-.34,1.4-.98,2.49-1.93,3.28-.94.79-1.92,1.06-2.93.82-1.01-.25-1.75-.93-2.21-2.07-.46-1.13-.52-2.4-.18-3.79.34-1.38.97-2.47,1.92-3.28.94-.81,1.91-1.09,2.91-.85ZM106.15,95.29c.17-.72.14-1.36-.09-1.94-.24-.58-.61-.93-1.13-1.05-.52-.13-1.02.01-1.49.42-.48.41-.8.96-.97,1.68-.17.72-.14,1.36.1,1.93.24.57.62.91,1.13,1.04.52.13,1.01,0,1.49-.4.47-.39.79-.95.97-1.67ZM114.33,109.11c-.33,1.36-.97,2.45-1.93,3.26-.96.82-1.93,1.1-2.91.87-1-.24-1.73-.94-2.2-2.09-.47-1.15-.54-2.42-.2-3.8.34-1.39.98-2.49,1.91-3.28.94-.79,1.91-1.06,2.92-.82,1.01.25,1.75.94,2.22,2.07.47,1.13.53,2.4.19,3.79ZM112.51,108.67c.17-.7.14-1.33-.1-1.91-.24-.58-.61-.93-1.11-1.05-.53-.13-1.03,0-1.49.38-.46.39-.78.95-.96,1.68-.17.7-.13,1.35.1,1.94s.61.96,1.11,1.08c.52.13,1.01-.02,1.48-.43.47-.42.79-.98.97-1.7Z"/>
          </g>
          <g>
            <path class="st8" d="M80.73,105.83l-7.17-1.74.79-3.23,2.33.57,3.47-14.26-1.82-.44.7-2.89,4.4,1.07-4.17,17.15,2.25.55-.79,3.23Z"/>
            <path class="st8" d="M96.08,102.22c-.51,2.11-1.47,3.73-2.86,4.86-1.4,1.13-2.86,1.51-4.39,1.14-1.43-.35-2.46-1.21-3.09-2.59-.63-1.38-.76-3.08-.4-5.09l2.5.61c-.12.95,0,1.78.33,2.48.33.7.85,1.13,1.53,1.3.82.2,1.59-.02,2.32-.65.73-.63,1.23-1.51,1.5-2.65.28-1.17.25-2.18-.11-3.02-.36-.85-.96-1.37-1.81-1.58-1.09-.27-2.02.14-2.77,1.21l-2-1.17,3.96-10.37,7.17,1.74-.78,3.23-5.28-1.29-1.68,4.15c.79-.59,1.68-.76,2.66-.52,1.38.33,2.37,1.31,2.99,2.93.61,1.62.69,3.38.22,5.28Z"/>
            <path class="st8" d="M113.68,91.93l-12.56,19.27-1.69-.41,12.56-19.27,1.69.41ZM104.61,89.61c1,.24,1.73.94,2.21,2.1.48,1.16.55,2.42.21,3.8-.34,1.4-.98,2.49-1.93,3.28-.94.79-1.92,1.06-2.93.81s-1.75-.93-2.21-2.07c-.46-1.13-.52-2.4-.18-3.79.33-1.38.97-2.47,1.92-3.28.94-.81,1.91-1.09,2.91-.85ZM105.21,95.06c.17-.72.14-1.36-.09-1.94-.24-.58-.61-.93-1.13-1.05-.52-.13-1.02.01-1.49.42-.48.4-.8.96-.97,1.68-.17.72-.14,1.36.1,1.93.24.57.62.91,1.13,1.04.52.13,1.01,0,1.49-.4.47-.39.79-.95.97-1.67ZM113.39,108.89c-.33,1.36-.97,2.45-1.93,3.26-.96.82-1.93,1.1-2.91.87-1-.24-1.73-.94-2.2-2.09-.47-1.15-.54-2.42-.2-3.8.34-1.39.98-2.49,1.92-3.28.94-.79,1.91-1.06,2.92-.82,1.01.25,1.75.94,2.22,2.07.47,1.13.53,2.4.19,3.79ZM111.57,108.44c.17-.7.14-1.33-.1-1.91-.24-.58-.61-.93-1.11-1.05-.53-.13-1.03,0-1.49.39-.46.39-.78.95-.96,1.68-.17.7-.13,1.35.1,1.94.24.6.61.96,1.11,1.08.52.13,1.01-.02,1.48-.43.47-.42.79-.98.97-1.7Z"/>
          </g>
        </g>
        <g>
          <g>
            <path class="st0" d="M81.67,106.06l-7.17-1.74.79-3.23,2.33.57,3.47-14.26-1.82-.44.7-2.89,4.4,1.07-4.17,17.15,2.25.55-.79,3.23Z"/>
            <path class="st0" d="M97.02,102.45c-.51,2.11-1.47,3.73-2.86,4.86-1.4,1.13-2.86,1.51-4.39,1.14-1.43-.35-2.46-1.21-3.09-2.59-.63-1.38-.76-3.08-.4-5.09l2.5.61c-.11.95,0,1.78.33,2.48.34.7.85,1.14,1.53,1.3.82.2,1.59-.02,2.32-.65.73-.63,1.23-1.51,1.5-2.65.28-1.17.25-2.18-.11-3.03-.36-.85-.96-1.37-1.81-1.58-1.09-.27-2.02.14-2.77,1.21l-2-1.17,3.95-10.37,7.17,1.74-.79,3.23-5.28-1.29-1.68,4.15c.79-.59,1.68-.76,2.66-.52,1.38.33,2.37,1.31,2.99,2.93s.69,3.38.22,5.28Z"/>
            <path class="st0" d="M114.62,92.16l-12.56,19.27-1.68-.41,12.56-19.27,1.68.41ZM105.55,89.84c1,.24,1.73.94,2.21,2.1.48,1.15.55,2.42.21,3.8-.34,1.4-.98,2.49-1.93,3.28-.94.79-1.92,1.06-2.93.82-1.01-.25-1.75-.93-2.21-2.07-.46-1.13-.52-2.4-.18-3.79.34-1.38.97-2.47,1.92-3.28.94-.81,1.91-1.09,2.91-.85ZM106.15,95.29c.17-.72.14-1.36-.09-1.94-.24-.58-.61-.93-1.13-1.05-.52-.13-1.02.01-1.49.42-.48.41-.8.96-.97,1.68-.17.72-.14,1.36.1,1.93.24.57.62.91,1.13,1.04.52.13,1.01,0,1.49-.4.47-.39.79-.95.97-1.67ZM114.33,109.11c-.33,1.36-.97,2.45-1.93,3.26-.96.82-1.93,1.1-2.91.87-1-.24-1.73-.94-2.2-2.09-.47-1.15-.54-2.42-.2-3.8.34-1.39.98-2.49,1.91-3.28.94-.79,1.91-1.06,2.92-.82,1.01.25,1.75.94,2.22,2.07.47,1.13.53,2.4.19,3.79ZM112.51,108.67c.17-.7.14-1.33-.1-1.91-.24-.58-.61-.93-1.11-1.05-.53-.13-1.03,0-1.49.38-.46.39-.78.95-.96,1.68-.17.7-.13,1.35.1,1.94s.61.96,1.11,1.08c.52.13,1.01-.02,1.48-.43.47-.42.79-.98.97-1.7Z"/>
          </g>
          <g>
            <path class="st8" d="M80.73,105.83l-7.17-1.74.79-3.23,2.33.57,3.47-14.26-1.82-.44.7-2.89,4.4,1.07-4.17,17.15,2.25.55-.79,3.23Z"/>
            <path class="st8" d="M96.08,102.22c-.51,2.11-1.47,3.73-2.86,4.86-1.4,1.13-2.86,1.51-4.39,1.14-1.43-.35-2.46-1.21-3.09-2.59-.63-1.38-.76-3.08-.4-5.09l2.5.61c-.12.95,0,1.78.33,2.48.33.7.85,1.13,1.53,1.3.82.2,1.59-.02,2.32-.65.73-.63,1.23-1.51,1.5-2.65.28-1.17.25-2.18-.11-3.02-.36-.85-.96-1.37-1.81-1.58-1.09-.27-2.02.14-2.77,1.21l-2-1.17,3.96-10.37,7.17,1.74-.78,3.23-5.28-1.29-1.68,4.15c.79-.59,1.68-.76,2.66-.52,1.38.33,2.37,1.31,2.99,2.93.61,1.62.69,3.38.22,5.28Z"/>
            <path class="st8" d="M113.68,91.93l-12.56,19.27-1.69-.41,12.56-19.27,1.69.41ZM104.61,89.61c1,.24,1.73.94,2.21,2.1.48,1.16.55,2.42.21,3.8-.34,1.4-.98,2.49-1.93,3.28-.94.79-1.92,1.06-2.93.81s-1.75-.93-2.21-2.07c-.46-1.13-.52-2.4-.18-3.79.33-1.38.97-2.47,1.92-3.28.94-.81,1.91-1.09,2.91-.85ZM105.21,95.06c.17-.72.14-1.36-.09-1.94-.24-.58-.61-.93-1.13-1.05-.52-.13-1.02.01-1.49.42-.48.4-.8.96-.97,1.68-.17.72-.14,1.36.1,1.93.24.57.62.91,1.13,1.04.52.13,1.01,0,1.49-.4.47-.39.79-.95.97-1.67ZM113.39,108.89c-.33,1.36-.97,2.45-1.93,3.26-.96.82-1.93,1.1-2.91.87-1-.24-1.73-.94-2.2-2.09-.47-1.15-.54-2.42-.2-3.8.34-1.39.98-2.49,1.92-3.28.94-.79,1.91-1.06,2.92-.82,1.01.25,1.75.94,2.22,2.07.47,1.13.53,2.4.19,3.79ZM111.57,108.44c.17-.7.14-1.33-.1-1.91-.24-.58-.61-.93-1.11-1.05-.53-.13-1.03,0-1.49.39-.46.39-.78.95-.96,1.68-.17.7-.13,1.35.1,1.94.24.6.61.96,1.11,1.08.52.13,1.01-.02,1.48-.43.47-.42.79-.98.97-1.7Z"/>
          </g>
        </g>
        <g>
          <path class="st0" d="M48.62,30.37h-2.6c1.08-1.53,2.09-3.01,3.04-4.45-.38.14-.76.21-1.14.21-1.16,0-2.13-.46-2.91-1.38-.74-.89-1.11-1.92-1.11-3.1,0-1.34.46-2.48,1.38-3.41.92-.93,2.05-1.4,3.38-1.4,1.41,0,2.56.45,3.42,1.35.87.9,1.3,2.05,1.3,3.47,0,.44-.09.92-.26,1.42-.32.94-1.09,2.31-2.31,4.12-.7,1.03-1.43,2.1-2.2,3.19ZM51.17,21.64c0-.71-.23-1.33-.7-1.86-.47-.53-1.05-.79-1.75-.79-.77,0-1.39.24-1.85.71-.46.47-.69,1.1-.69,1.87s.23,1.35.7,1.83,1.07.72,1.8.72c.69,0,1.27-.24,1.76-.72.48-.48.73-1.06.73-1.75Z"/>
          <path class="st0" d="M59.44,30.37h-2.6c1.08-1.53,2.09-3.01,3.04-4.45-.38.14-.76.21-1.14.21-1.16,0-2.13-.46-2.91-1.38-.74-.89-1.11-1.92-1.11-3.1,0-1.34.46-2.48,1.38-3.41.92-.93,2.05-1.4,3.38-1.4,1.41,0,2.56.45,3.42,1.35.87.9,1.3,2.05,1.3,3.47,0,.44-.09.92-.26,1.42-.32.94-1.09,2.31-2.31,4.12-.7,1.03-1.43,2.1-2.2,3.19ZM61.98,21.64c0-.71-.23-1.33-.7-1.86-.47-.53-1.05-.79-1.75-.79-.77,0-1.39.24-1.85.71-.46.47-.69,1.1-.69,1.87s.23,1.35.7,1.83,1.07.72,1.8.72c.69,0,1.27-.24,1.76-.72.48-.48.73-1.06.73-1.75Z"/>
          <path class="st0" d="M70.25,30.37h-2.6c1.08-1.53,2.09-3.01,3.04-4.45-.38.14-.76.21-1.14.21-1.16,0-2.13-.46-2.91-1.38-.74-.89-1.11-1.92-1.11-3.1,0-1.34.46-2.48,1.38-3.41.92-.93,2.05-1.4,3.38-1.4,1.41,0,2.56.45,3.42,1.35.87.9,1.3,2.05,1.3,3.47,0,.44-.09.92-.26,1.42-.32.94-1.09,2.31-2.31,4.12-.7,1.03-1.43,2.1-2.2,3.19ZM72.8,21.64c0-.71-.23-1.33-.7-1.86-.47-.53-1.05-.79-1.75-.79-.77,0-1.39.24-1.85.71-.46.47-.69,1.1-.69,1.87s.23,1.35.7,1.83,1.07.72,1.8.72c.69,0,1.27-.24,1.76-.72.48-.48.73-1.06.73-1.75Z"/>
        </g>
      </g>
    </g>
  </g>
</svg>