<?xml version="1.0" encoding="UTF-8"?>
<svg id="Layer_1" xmlns="http://www.w3.org/2000/svg" version="1.1" xmlns:xlink="http://www.w3.org/1999/xlink" viewBox="0 0 187.53 119.15">
  <!-- Generator: Adobe Illustrator 30.2.1, SVG Export Plug-In . SVG Version: 2.1.1 Build 1)  -->
  <defs>
    <style>
      .st0 {
        fill: #cdcccc;
      }

      .st1 {
        fill: #342d28;
      }

      .st2 {
        fill: #ffd863;
      }

      .st3 {
        fill: #f2b907;
      }

      .st4 {
        fill: #232323;
      }

      .st5 {
        fill: #f0eece;
      }

      .st6 {
        fill: #ea9630;
      }

      .st7 {
        fill: #343434;
      }

      .st8 {
        fill: #efefef;
      }

      .st9 {
        fill: #dbdbdb;
      }

      .st10 {
        fill: #010101;
      }

      .st11 {
        fill: url(#linear-gradient);
      }

      .st12 {
        fill: #f7c634;
      }
    </style>
    <linearGradient id="linear-gradient" x1="124.29" y1="14.34" x2="68.63" y2="62.78" gradientUnits="userSpaceOnUse">
      <stop offset="0" stop-color="#232323"/>
      <stop offset=".16" stop-color="#fdfbe7"/>
      <stop offset=".46" stop-color="#232323"/>
      <stop offset=".73" stop-color="#fdfbe7"/>
      <stop offset="1" stop-color="#232323"/>
    </linearGradient>
  </defs>
  <path class="st5" d="M5.72,92.11l67.73,26.89c.27.11.56.16.85.14l104.55-4.97c2.2-.1,2.7-3.13.65-3.94l-55.94-21.92c-.24-.09-.49-.14-.74-.14H6.47c-2.25,0-2.84,3.11-.75,3.94Z"/>
  <path class="st1" d="M62.21,112.75c-4.41,0-8.04-4.65-9.81-12.35-7.7-3.04-17.41-6.3-24.91-8.71-1.57,1.9-3.23,2.4-4.49,2.43l-9.99.77c-.07,0-.14,0-.21,0-4.83,0-7.43-6.12-8.43-12.78l-2.64-2.23c-.59-.5-.94-1.23-.96-2-.03-1.23-.78-30.06-.78-33.33,0-.31.04-.63.11-.95.02-.09.07-.23.1-.34.05-.16.1-.31.17-.47.03-.08.09-.19.15-.3.06-.12.12-.23.19-.36.06-.1.11-.18.16-.25.11-.17.18-.27.25-.37.04-.06.1-.14.17-.21.11-.14.19-.24.28-.34,0,0,.39-.43.48-.52,0,0,.4-.4.51-.5l.19-.18,1.91,1.92-1.83-2,.48-.42c.13-.12.57-.48.57-.48.15-.12.28-.23.42-.34l.63-.48.84-.61c.14-.1.61-.43.61-.43l.71-.48c.15-.1.36-.24.56-.38.27-.18.71-.46.71-.46,2.61-1.68,5.13-3.08,6.17-3.64,1.97-2.42,11.54-13.92,17.55-17.53,1.82-1.09,3.73-1.95,5.83-2.63.83-.27,1.65-.49,2.48-.69l.12-.03c.8-.19,1.68-.37,2.6-.53,0,0,.1-.02.1-.02.46-.08.92-.15,1.4-.22.01,0,.09-.01.11-.02.43-.06.92-.13,1.42-.19.02,0,.04,0,.06,0,.52-.06,1.01-.12,1.5-.17l.18-.02c1.04-.11,2.13-.2,3.28-.28l.26-.02c.56-.04,1.14-.08,1.75-.12.39-.02.75-.04,1.11-.06l1.31-7.22c.23-1.29,1.36-2.23,2.67-2.23h32.33c.92,0,1.78.47,2.28,1.25l5.04,7.85c2.07.02,3.99.04,5.72.04,2.16,0,3.85-.02,5.18-.07.15,0,.29,0,.44,0,.34,0,.68.01,1.02.04l.28.02c.46.04.93.1,1.41.17l.18.03c1.03.18,2.04.44,3.07.77l.19.06c.51.17,1.01.35,1.52.55.01,0,.08.03.1.04,1.05.41,2.12.89,3.22,1.43l.11.05c.53.26,1.06.54,1.6.83,0,0,.02,0,.02,0,6.09,3.3,12.36,8.11,17.69,12.37,3.67,2.94,7.1,6.06,10.01,8.76,1.7-.92,4.13-1.26,5.97-1.26,1.18,0,2.91.14,4.42.81,1.84.81,3.14,2.45,3.57,4.49.43,2.05-.06,4.23-1.24,5.66l1.94,1.17.58.36c.74.45,1.47.91,2.22,1.37l.78.49c11.64,7.35,13.16,9.47,13.66,10.17,2.96,4.15,4.68,10.79,5.39,20.88.83,11.74.8,16.67-.12,19.55-.12.38-.33.73-.6,1.02-.37.4-3.91,3.9-14.21,4.91-1.76.17-5.05.46-9.34.81-1.89,2.05-3.82,2.55-5.2,2.57l-12.72.89c-.24.03-.47.04-.71.04-1.13,0-2.73-.32-4.39-1.7-14.15,1.05-37.68,2.71-45.58,2.71-3.22,0-6.64-.23-10.15-.68-.51-.07-1-.13-1.48-.2-.24-.04-.46-.07-.67-.1-2.13,2.95-4.43,3.67-6.12,3.7l-12.72.89c-.24.03-.47.04-.71.04Z"/>
  <g>
    <path class="st2" d="M150.41,41.41s-1.15-3.33,0-4.48,5.93-1.87,8.54-.73c2.6,1.15,2.5,4.69,1.25,6.04-1.25,1.35-5.41,2.71-6.56,2.91-1.15.21-3.23-3.75-3.23-3.75Z"/>
    <polygon class="st10" points="56.57 97.5 5.52 78.14 5.52 55.02 74.86 66.39 56.57 97.5"/>
    <path class="st4" d="M74.6,68.93h0c.3-.08.61-.13.93-.13,4.54,0,8.22,9.03,8.22,20.16s-3.68,20.16-8.22,20.16l-13.32.93v-40.32l12.39-.8Z"/>
    <ellipse class="st7" cx="62.21" cy="89.89" rx="8.22" ry="20.16"/>
    <path class="st0" d="M56.57,89.89c0,7.63,2.17,13.82,4.85,13.82s4.85-6.19,4.85-13.82-2.17-13.82-4.85-13.82-4.85,6.19-4.85,13.82Z"/>
    <path class="st8" d="M58.62,89.89c0,2.82.8,5.11,1.79,5.11s1.79-2.29,1.79-5.11-.8-5.11-1.79-5.11-1.79,2.29-1.79,5.11Z"/>
    <path class="st4" d="M156.42,64.28h0c.3-.08.61-.13.93-.13,4.54,0,8.22,9.03,8.22,20.16s-3.68,20.16-8.22,20.16l-13.32.93v-40.32l12.39-.8Z"/>
    <ellipse class="st7" cx="144.03" cy="85.24" rx="8.22" ry="20.16"/>
    <path class="st0" d="M138.39,85.24c0,7.63,2.17,13.82,4.85,13.82s4.85-6.19,4.85-13.82-2.17-13.82-4.85-13.82-4.85,6.19-4.85,13.82Z"/>
    <path class="st8" d="M140.44,85.24c0,2.82.8,5.11,1.79,5.11s1.79-2.29,1.79-5.11-.8-5.11-1.79-5.11-1.79,2.29-1.79,5.11Z"/>
    <path class="st4" d="M22.18,57.79h0c.23-.07.46-.11.7-.11,3.43,0,6.22,7.55,6.22,16.87s-2.78,16.87-6.22,16.87l-10.07.78v-33.74l9.37-.67Z"/>
    <path class="st7" d="M6.59,75.32c0,9.32,2.78,16.87,6.22,16.87s6.22-7.55,6.22-16.87-2.78-16.87-6.22-16.87-6.22,7.55-6.22,16.87Z"/>
    <path class="st0" d="M8.55,75.32c0,6.39,1.64,11.57,3.67,11.57s3.67-5.18,3.67-11.57-1.64-11.57-3.67-11.57-3.67,5.18-3.67,11.57Z"/>
    <path class="st8" d="M10.1,75.32c0,2.36.61,4.28,1.36,4.28s1.36-1.92,1.36-4.28-.61-4.28-1.36-4.28-1.36,1.92-1.36,4.28Z"/>
    <polygon class="st4" points="97.4 13.33 90.58 2.71 58.25 2.71 56.33 13.33 97.4 13.33"/>
    <path class="st12" d="M184.23,97.03s-2.92,3.12-12.49,4.06c-9.58.94-65.17,5.31-77.67,5.31s-23.53-3.54-23.53-3.54c0,0-2.24-21.13-4.58-28.32-2.34-7.18-9.21-8.12-11.56-3.28-2.34,4.84-2.19,19.36,0,27.02-14.37-5.78-36.7-12.49-36.7-12.49,0,0-1.56-17.33-4.37-23.11-2.81-5.78-6.17-4.22-6.79-.55-.62,3.67,0,18.27,0,18.27l-3.05-2.58s-.78-29.98-.78-33.26,13.59-10.46,13.59-10.46c0,0,10.93-13.59,17.18-17.33,6.25-3.75,13.59-4.53,31.08-5,17.49-.47,36.07.31,44.35,0,8.28-.31,20.46,8.9,29.05,15.77,8.59,6.87,15.88,14.84,18.48,16.08,2.6,1.25,20.51,12.03,22.9,15.38,2.39,3.36,4.16,9.19,4.89,19.49.73,10.31.83,15.93,0,18.53Z"/>
    <path class="st2" d="M50.5,15.51c-5.01-1.6-9.39-1.47-12.81-.76,5.61-2.05,13.09-2.62,26.86-2.99,17.49-.47,36.07.31,44.35,0,3.43-.13,7.52,1.38,11.75,3.67-.49.6-2.05,1.02-4.41,1.02-3.75,0-41.93.7-50.75.7s-10.93.23-14.99-1.64Z"/>
    <path class="st2" d="M65.75,51.95c-.83-1.87.6-7.44.6-7.44l82.38-.81s3.24.05,5.94-1.3c.72.58,1.32,1.01,1.77,1.22,2.09,1,13.99,8.11,19.87,12.63-.25,2.19-2.36,4.88-11.23,4.75-14.89-.21-59.76,2.71-69.34,2.71s-11.66-.52-18.74-4.06c-7.08-3.54-10.41-5.83-11.24-7.7Z"/>
    <path class="st8" d="M106.09,78.14s-7.26-12.34-9.29-12.73c-2.03-.39-21.24-1.33-24.83-3.83,3.51,9.37,5.15,10.23,12.57,12.34,7.42,2.11,21.55,4.22,21.55,4.22Z"/>
    <path class="st9" d="M95.26,67.91c-1.69-.32-15.24-1.03-21.83-2.69-.46-1.05-.94-2.24-1.46-3.63,3.59,2.5,22.8,3.44,24.83,3.83,2.03.39,9.29,12.73,9.29,12.73,0,0-1.33-.2-3.38-.53-2.29-3.68-6.07-9.43-7.45-9.7Z"/>
    <path class="st6" d="M71.97,61.58c1.32.92,4.78,1.63,8.7,2.18l1.43,9.44c-5.4-1.71-7.05-3.37-10.14-11.61Z"/>
    <path class="st8" d="M179.12,59.42c.49.68.94,1.47,1.38,2.37-.3,10.53-12.72,12.75-12.72,12.75.94-8.02.52-9.58,5.52-12.55,2.95-1.75,3.68-3.44,3.79-4.54.96.78,1.68,1.46,2.04,1.96Z"/>
    <path class="st9" d="M179.83,61.43c-.36-.51-1.08-1.18-2.04-1.96-.11,1.1-.85,2.79-3.79,4.54-4.49,2.67-4.61,4.2-5.27,10.31-.59.16-.96.22-.96.22.94-8.02.52-9.58,5.52-12.55,2.95-1.75,3.68-3.44,3.79-4.54.96.78,1.68,1.46,2.04,1.96.49.68.94,1.47,1.38,2.37,0,.21-.02.41-.04.61-.2-.34-.41-.67-.63-.97Z"/>
    <path class="st6" d="M177.09,57.46c.96.78,1.68,1.46,2.04,1.96.49.68.94,1.47,1.38,2.37-.07,2.52-.84,4.56-1.97,6.22-.44-2.78-1.25-5.49-2.66-8.06.85-.97,1.15-1.84,1.22-2.5Z"/>
    <path class="st4" d="M160.1,66.4l-47.07,2.02c-1.76.08-2.62,2.18-1.41,3.47l6.06,6.45c.41.44.99.67,1.59.65l38.77-1.77c.85-.04,1.59-.6,1.86-1.4l2.24-6.7c.46-1.37-.6-2.77-2.04-2.71Z"/>
    <path class="st4" d="M165.49,89.43l-50.54,2.55c-2.14.11-3.57,2.27-2.82,4.28l.8,2.17c.49,1.31,1.77,2.15,3.16,2.07l49.4-2.84c1.46-.08,2.68-1.16,2.94-2.6l.34-1.87c.37-2.02-1.24-3.85-3.29-3.74Z"/>
    <path class="st4" d="M103.9,98.28s-7.81-12.02-22.64-9.84c1.56,8.59,3.09,8.06,22.64,9.84Z"/>
    <path class="st4" d="M173.24,94.92s.62-8.98,9.68-11.63c-.31,7.96-.94,9.68-9.68,11.63Z"/>
    <path class="st4" d="M51.82,23.17c3.83,6.79,2.89,24.1,2.89,24.1l-17.64-4.92c1.14-10.65,5.94-20.6,7.74-24.01,3.46.85,5.96,2.97,7.01,4.83Z"/>
    <path class="st4" d="M18.9,37.27s6.04-12.6,14.99-17.28c3.29-1.72,6.31-2.22,8.92-1.99-4.5,6.64-7.86,17.54-9.44,23.31l-14.47-4.04Z"/>
    <path class="st11" d="M120.61,18.48l-62.36.99s.83,17.95,7.81,26.31c21.76.03,77.35-1.53,81.41-1.64s5.1-1.35,2.81-3.23c-2.29-1.87-20.3-17.49-23.11-19.78-2.81-2.29-4.9-2.68-6.56-2.65Z"/>
    <path class="st3" d="M9.83,37.89c10.63,3.4,44.34,14.21,53.42,17.71,10.83,4.16,10.83,24.78,12.49,36.59.95,6.71,5.1,11.05,8.51,13.55-7.93-1.02-13.72-2.88-13.72-2.88,0,0-2.24-21.13-4.58-28.32-2.34-7.18-9.21-8.12-11.56-3.28-2.34,4.84-2.19,19.36,0,27.02-14.37-5.78-36.7-12.49-36.7-12.49,0,0-1.56-17.33-4.37-23.11-2.81-5.78-6.17-4.22-6.79-.55-.62,3.67,0,18.27,0,18.27l-3.05-2.58s-.78-29.98-.78-33.26c0-1.69,3.62-4.42,7.12-6.67Z"/>
    <path class="st2" d="M181.21,65.08c-.26,1.16-.72,2.26-1.3,3.28-.13.26-.3.5-.45.76-.15.25-.31.5-.49.73l-.52.71-.58.66c-1.55,1.73-3.46,3.1-5.56,4.05-4.18,1.99-8.92,2.27-13.63,2.73-4.71.38-9.44.7-14.17.92-4.73.25-9.47.48-14.2.62-4.73.19-9.47.32-14.2.39-2.36.04-4.73.06-7.07,0-1.16-.03-2.3-.11-3.49-.21-1.18-.1-2.35-.2-3.53-.32-4.69-.5-9.37-1.16-13.95-2.25-2.29-.54-4.54-1.23-6.73-2.09-2.17-.88-4.31-1.97-6.02-3.63l1.24,1.29,1.4,1.13,1.51.98c.51.32,1.05.57,1.58.86,2.15,1.08,4.4,1.93,6.69,2.65,2.3.69,4.62,1.28,6.96,1.77,2.34.49,4.7.88,7.07,1.23,2.38.33,4.71.66,7.17.79,2.41.12,4.79.16,7.17.17,4.77,0,9.53-.11,14.28-.26,9.51-.38,19.01-.95,28.49-2.11,2.37-.33,4.73-.61,7.1-1.12l1.78-.42c.59-.16,1.16-.38,1.74-.56.29-.1.58-.19.87-.3l.84-.37c.55-.26,1.13-.47,1.65-.8,2.14-1.17,4.08-2.76,5.54-4.7,1.45-1.93,2.51-4.19,2.8-6.56Z"/>
    <path class="st2" d="M10.03,37.76l51.39,17.15L6.94,39.86c.98-.72,2.04-1.43,3.09-2.1Z"/>
    <polygon class="st2" points="52.94 89.42 16.88 78.63 53.19 91.88 52.94 89.42"/>
    <path class="st2" d="M57.39,47.21s-3.28-.39-3.8-1.53c-.52-1.15.42-6.87-4.95-6.77-5.36.1-10.31-.05-11.35,2.13-1.04,2.19,1.56,6.98,5.62,7.55,4.06.57,9.58-.62,10.2.36.62.99.83,2.45,2.19,2.45s2.24-.36,2.6-1.51c.36-1.15-.24-2.65-.52-2.69Z"/>
  </g>
</svg>