<?xml version="1.0" encoding="UTF-8"?>
<svg id="Layer_1" xmlns="http://www.w3.org/2000/svg" version="1.1" viewBox="0 0 120.58 134.09">
  <!-- Generator: Adobe Illustrator 30.2.1, SVG Export Plug-In . SVG Version: 2.1.1 Build 1)  -->
  <defs>
    <style>
      .st0 {
        fill: #342d28;
      }

      .st1 {
        fill: #2a2522;
      }

      .st2 {
        fill: #fcfdf6;
      }

      .st3 {
        fill: #f0efce;
      }

      .st4 {
        fill: #fdfbe7;
      }

      .st5 {
        fill: #f0eece;
      }

      .st6 {
        fill: #115d2e;
      }
    </style>
  </defs>
  <path class="st5" d="M120.58,127.21c0,3.8-26.99,6.88-60.29,6.88S0,131.01,0,127.21s26.99-6.88,60.29-6.88,60.29,3.08,60.29,6.88Z"/>
  <g>
    <path class="st0" d="M102.02,16.09L58.48,1.43c-3.98-1.34-8.29.8-9.63,4.78l-31.67,94.08c-1.34,3.98.8,8.29,4.78,9.63l43.55,14.66c3.98,1.34,8.29-.8,9.63-4.78l31.67-94.08c1.34-3.98-.8-8.29-4.78-9.63Z"/>
    <g>
      <path class="st0" d="M61.31,123.17l-42.31-14.24c-4.32-1.45-6.64-6.14-5.19-10.46L45.06,5.62c1.45-4.32,6.14-6.64,10.46-5.19l42.31,14.24c4.32,1.45,6.64,6.14,5.19,10.46l-31.25,92.85c-1.45,4.32-6.14,6.64-10.46,5.19Z"/>
      <rect class="st2" x="4.19" y="33.87" width="108.44" height="55.86" rx="6.07" ry="6.07" transform="translate(135.62 26.15) rotate(108.6)"/>
      <path class="st0" d="M82.46,17.52l-16.42-5.53c-1.7-.57-2.61-2.41-2.04-4.11h0c.57-1.7,2.41-2.61,4.11-2.04l16.42,5.53c1.7.57,2.61,2.41,2.04,4.11h0c-.57,1.7-2.41,2.61-4.11,2.04Z"/>
    </g>
    <g>
      <path class="st6" d="M78.31,58.59c-3.58,10.65-14.06,16.74-23.39,13.59-9.34-3.14-14-14.32-10.41-24.97,3.58-10.65,14.06-16.74,23.39-13.59,9.34,3.14,14,14.32,10.41,24.97Z"/>
      <path class="st4" d="M53.9,46.26c2.91,3.48,4.91,7.6,6.54,11.78l-4.17-1.4c5.46-4.28,11.44-8.01,18.27-9.65-.96,1.59-2.08,2.97-3.24,4.28-4.27,4.85-9.71,8.55-15.19,11.9-1.4-5.48-2.75-11.2-2.21-16.91h0Z"/>
    </g>
    <rect class="st6" x="23.54" y="84.62" width="48.07" height="18.78" rx="7.89" ry="7.89" transform="translate(32.48 -10.26) rotate(18.6)"/>
    <g>
      <path class="st3" d="M38.71,93.16c-.27.8-.67,1.42-1.19,1.86-.57.48-1.21.67-1.92.58l-.6,1.78-1.3-.44.58-1.72c-.67-.38-1.1-.9-1.3-1.57-.2-.67-.17-1.42.11-2.25l1.43.48c-.17.5-.17.92-.03,1.28.15.36.44.61.88.76.39.13.75.09,1.08-.12.33-.21.57-.54.72-1,.17-.51.08-.99-.26-1.46-.02-.04-.36-.4-1.02-1.07-1.08-1.1-1.44-2.18-1.08-3.24.25-.74.64-1.31,1.17-1.71.53-.4,1.13-.57,1.81-.51l.51-1.53,1.3.44-.51,1.53c.53.34.88.81,1.04,1.41.16.59.13,1.23-.1,1.92l-1.42-.48c.12-.37.12-.7-.01-1.01-.13-.31-.36-.52-.68-.63-.34-.11-.65-.1-.94.06-.29.15-.5.42-.63.81-.14.42-.05.83.26,1.25,0,0,.31.3.89.89.58.59.98,1.13,1.18,1.63.27.66.28,1.36.04,2.08Z"/>
      <path class="st3" d="M49.72,96.86c-.27.8-.67,1.42-1.19,1.86-.57.48-1.21.67-1.92.58l-.6,1.78-1.3-.44.58-1.72c-.67-.38-1.1-.9-1.3-1.57-.2-.67-.17-1.42.11-2.25l1.43.48c-.17.5-.17.92-.03,1.28.15.36.44.61.88.76.39.13.75.09,1.08-.12s.57-.54.72-1c.17-.5.08-.99-.26-1.46-.03-.04-.36-.4-1.02-1.07-1.08-1.1-1.44-2.18-1.08-3.24.25-.74.64-1.31,1.17-1.71.53-.39,1.13-.57,1.81-.51l.51-1.53,1.3.44-.51,1.53c.53.34.88.81,1.04,1.41.16.59.13,1.23-.1,1.92l-1.42-.48c.12-.37.12-.7-.01-1.01-.13-.31-.36-.52-.68-.63-.34-.11-.65-.1-.94.06-.29.15-.5.42-.63.81-.14.42-.05.83.26,1.25,0,0,.31.3.89.89.58.59.98,1.13,1.18,1.63.27.66.28,1.36.04,2.08Z"/>
      <path class="st3" d="M60.73,100.57c-.27.8-.67,1.42-1.19,1.86-.57.48-1.21.67-1.92.58l-.6,1.78-1.3-.44.58-1.72c-.67-.38-1.1-.9-1.3-1.57-.2-.67-.17-1.42.11-2.25l1.43.48c-.17.5-.17.92-.03,1.28.15.36.44.61.88.76.39.13.75.09,1.08-.12.33-.21.57-.54.72-1,.17-.51.08-.99-.26-1.46-.03-.04-.36-.4-1.02-1.07-1.08-1.1-1.44-2.18-1.08-3.24.25-.74.64-1.31,1.17-1.71.53-.39,1.13-.57,1.81-.51l.51-1.53,1.3.44-.51,1.53c.53.34.88.81,1.04,1.41.16.6.13,1.23-.1,1.92l-1.42-.48c.12-.37.12-.7-.01-1.01-.13-.31-.36-.52-.68-.63-.34-.11-.65-.1-.94.06-.29.15-.5.42-.63.81-.14.42-.05.83.26,1.25,0,0,.31.3.89.89.58.59.98,1.13,1.18,1.63.27.66.28,1.36.04,2.08Z"/>
    </g>
    <path class="st1" d="M93,56.46h0c-.82-.28-1.26-1.16-.98-1.98l7.74-22.99c.28-.82,1.16-1.26,1.98-.98h0c.82.28,1.26,1.16.98,1.98l-7.74,22.99c-.28.82-1.16,1.26-1.98.98Z"/>
  </g>
</svg>