<?xml version="1.0" encoding="UTF-8"?>
<svg id="Layer_1" xmlns="http://www.w3.org/2000/svg" version="1.1" xmlns:xlink="http://www.w3.org/1999/xlink" viewBox="0 0 119.39 134.89">
  <!-- Generator: Adobe Illustrator 30.2.1, SVG Export Plug-In . SVG Version: 2.1.1 Build 1)  -->
  <defs>
    <style>
      .st0 {
        fill: #342d28;
      }

      .st1 {
        fill: #dbd7b9;
      }

      .st2 {
        fill: #fdfbe7;
      }

      .st3 {
        fill: #115d2e;
      }

      .st4 {
        fill: url(#linear-gradient);
      }

      .st5 {
        fill: #f7c634;
      }
    </style>
    <linearGradient id="linear-gradient" x1="54.74" y1="49.12" x2="54.74" y2="28.76" gradientUnits="userSpaceOnUse">
      <stop offset="0" stop-color="#115d2e"/>
      <stop offset="1" stop-color="#1b6f3b"/>
    </linearGradient>
  </defs>
  <path class="st5" d="M58.31,28.3v4.41c0,1.71-1.18,3.14-2.77,3.54-.29-.02-.59-.05-.88-.05s-.6.03-.89.05c-1.59-.4-2.77-1.83-2.77-3.54v-4.41c0-2.01,1.64-3.65,3.66-3.65s3.65,1.64,3.65,3.65Z"/>
  <path class="st5" d="M64.17,47.61v1.57h-19.02v-1.57c0-4.9,3.72-8.94,8.47-9.45.33.06.68.1,1.04.1s.7-.04,1.03-.1c4.76.52,8.47,4.55,8.47,9.45Z"/>
  <path class="st4" d="M72.43,17.76v27.45c0,2.18-1.77,3.97-3.97,3.97h-2.39v-1.57c0-5-3.23-9.24-7.71-10.78,1.13-1.02,1.85-2.49,1.85-4.12v-4.41c0-3.06-2.49-5.55-5.55-5.55s-5.55,2.48-5.55,5.55v4.41c0,1.63.72,3.1,1.85,4.12-4.48,1.55-7.71,5.79-7.71,10.78v1.57h-2.24c-2.18,0-3.97-1.78-3.97-3.97v-27.45c0-2.19,1.78-3.97,3.97-3.97h27.45c2.19,0,3.97,1.77,3.97,3.97Z"/>
  <path class="st0" d="M119.39,85.04v41.17c0,4.79-3.89,8.68-8.67,8.68h-41.17c-4.78,0-8.67-3.89-8.67-8.68v-6.84H14.41c-3.17,0-5.76-2.59-5.76-5.76v-2.53h-2.89c-3.17,0-5.76-2.59-5.76-5.76V34.92c0-1.22.38-2.38,1.08-3.36L22.02,2.4c1.08-1.5,2.83-2.4,4.68-2.4h55.95c3.17,0,5.76,2.59,5.76,5.76v2.53h2.89c3.17,0,5.76,2.59,5.76,5.76v62.31h13.66c4.78,0,8.67,3.89,8.67,8.67ZM117.49,126.21v-41.17c0-3.74-3.05-6.78-6.78-6.78h-41.17c-3.73,0-6.77,3.04-6.77,6.78v41.17c0,3.74,3.04,6.78,6.77,6.78h41.17c3.73,0,6.78-3.04,6.78-6.78ZM95.15,76.37V14.05c0-2.13-1.73-3.86-3.86-3.86h-2.89v66.18h6.75ZM86.51,76.37V5.76c0-2.13-1.73-3.86-3.86-3.86H27.62v28.88c0,3.22-2.62,5.83-5.83,5.83H1.9v68.71c0,2.13,1.73,3.86,3.86,3.86h55.11v-24.14c0-4.78,3.89-8.67,8.67-8.67h16.97ZM60.87,117.47v-6.4H10.55v2.53c0,2.13,1.73,3.86,3.86,3.86h46.46ZM25.71,30.78V2.03c-.86.23-1.63.74-2.16,1.48L2.63,32.67c-.44.6-.67,1.31-.71,2.04h19.87c2.16,0,3.93-1.76,3.93-3.93Z"/>
  <path class="st3" d="M117.49,85.04v41.17c0,3.74-3.05,6.78-6.78,6.78h-41.17c-3.73,0-6.77-3.04-6.77-6.78v-41.17c0-3.74,3.04-6.78,6.77-6.78h41.17c3.73,0,6.78,3.04,6.78,6.78ZM84.94,124.74l23.12-23.12-8.79-8.79-14.32,14.33-5.24-5.24-8.79,8.79,14.03,14.03Z"/>
  <path class="st0" d="M108.06,101.63l-23.12,23.12-14.03-14.03,8.79-8.79,5.24,5.24,14.32-14.33,8.79,8.79ZM84.94,122.05l20.43-20.43-6.11-6.11-14.32,14.33-5.24-5.24-6.1,6.11,11.35,11.35Z"/>
  <polygon class="st5" points="105.37 101.63 84.94 122.05 73.59 110.71 79.7 104.6 84.94 109.84 99.26 95.52 105.37 101.63"/>
  <path class="st1" d="M95.15,14.05v62.31h-6.75V10.19h2.89c2.13,0,3.86,1.73,3.86,3.86Z"/>
  <path class="st2" d="M86.51,5.76v70.61h-16.97c-4.78,0-8.67,3.89-8.67,8.67v24.14H5.76c-2.13,0-3.86-1.73-3.86-3.86V36.61h19.89c3.21,0,5.83-2.61,5.83-5.83V1.9h55.03c2.13,0,3.86,1.73,3.86,3.86ZM74.32,45.21v-27.45c0-3.24-2.63-5.87-5.86-5.87h-27.45c-3.23,0-5.86,2.63-5.86,5.87v27.45c0,3.23,2.63,5.86,5.86,5.86h27.45c3.24,0,5.86-2.63,5.86-5.86ZM74.33,65.82c0-1.04-.85-1.9-1.9-1.9H15.81c-1.05,0-1.9.85-1.9,1.9s.85,1.9,1.9,1.9h56.62c1.04,0,1.9-.85,1.9-1.9ZM48.85,75.84c0-1.05-.85-1.9-1.9-1.9H15.81c-1.05,0-1.9.85-1.9,1.9s.85,1.9,1.9,1.9h31.14c1.04,0,1.9-.85,1.9-1.9ZM48.85,85.86c0-1.05-.85-1.9-1.9-1.9h-7.78c-1.05,0-1.9.85-1.9,1.9s.85,1.9,1.9,1.9h7.78c1.04,0,1.9-.85,1.9-1.9ZM48.85,95.88c0-1.05-.85-1.9-1.9-1.9H15.81c-1.05,0-1.9.85-1.9,1.9s.85,1.9,1.9,1.9h31.14c1.04,0,1.9-.85,1.9-1.9ZM33.28,85.86c0-1.05-.85-1.9-1.9-1.9h-15.57c-1.05,0-1.9.85-1.9,1.9s.85,1.9,1.9,1.9h15.57c1.05,0,1.9-.85,1.9-1.9Z"/>
  <path class="st0" d="M74.32,17.76v27.45c0,3.23-2.63,5.86-5.86,5.86h-27.45c-3.23,0-5.86-2.63-5.86-5.86v-27.45c0-3.24,2.63-5.87,5.86-5.87h27.45c3.24,0,5.86,2.63,5.86,5.87ZM72.43,45.21v-27.45c0-2.19-1.77-3.97-3.97-3.97h-27.45c-2.18,0-3.97,1.77-3.97,3.97v27.45c0,2.18,1.78,3.97,3.97,3.97h2.24v-1.57c0-5,3.23-9.24,7.71-10.78-1.13-1.02-1.85-2.49-1.85-4.12v-4.41c0-3.06,2.49-5.55,5.55-5.55s5.55,2.48,5.55,5.55v4.41c0,1.63-.72,3.1-1.85,4.12,4.48,1.55,7.71,5.79,7.71,10.78v1.57h2.39c2.19,0,3.97-1.78,3.97-3.97ZM64.17,49.18v-1.57c0-4.9-3.72-8.94-8.47-9.45-.33.06-.68.1-1.03.1s-.7-.04-1.04-.1c-4.76.52-8.47,4.55-8.47,9.45v1.57h19.02ZM58.31,32.71v-4.41c0-2.01-1.64-3.65-3.65-3.65s-3.66,1.64-3.66,3.65v4.41c0,1.71,1.18,3.14,2.77,3.54.29-.02.59-.05.89-.05s.59.03.88.05c1.59-.4,2.77-1.83,2.77-3.54Z"/>
  <path class="st0" d="M72.43,63.92c1.04,0,1.9.85,1.9,1.9s-.85,1.9-1.9,1.9H15.81c-1.05,0-1.9-.85-1.9-1.9s.85-1.9,1.9-1.9h56.62Z"/>
  <path class="st1" d="M60.87,111.08v6.4H14.41c-2.13,0-3.86-1.73-3.86-3.86v-2.53h50.32Z"/>
  <path class="st0" d="M46.95,73.94c1.04,0,1.9.85,1.9,1.9s-.85,1.9-1.9,1.9H15.81c-1.05,0-1.9-.85-1.9-1.9s.85-1.9,1.9-1.9h31.14Z"/>
  <path class="st0" d="M46.95,83.96c1.04,0,1.9.85,1.9,1.9s-.85,1.9-1.9,1.9h-7.78c-1.05,0-1.9-.85-1.9-1.9s.85-1.9,1.9-1.9h7.78Z"/>
  <path class="st0" d="M46.95,93.98c1.04,0,1.9.85,1.9,1.9s-.85,1.9-1.9,1.9H15.81c-1.05,0-1.9-.85-1.9-1.9s.85-1.9,1.9-1.9h31.14Z"/>
  <path class="st0" d="M31.38,83.96c1.05,0,1.9.85,1.9,1.9s-.85,1.9-1.9,1.9h-15.57c-1.05,0-1.9-.85-1.9-1.9s.85-1.9,1.9-1.9h15.57Z"/>
  <path class="st1" d="M25.71,2.03v28.75c0,2.16-1.76,3.93-3.93,3.93H1.92c.04-.73.27-1.43.71-2.04L23.56,3.51c.53-.74,1.3-1.25,2.16-1.48Z"/>
</svg>