<?xml version="1.0" encoding="UTF-8"?>
<svg id="Layer_1" xmlns="http://www.w3.org/2000/svg" version="1.1" xmlns:xlink="http://www.w3.org/1999/xlink" viewBox="0 0 107.03 134.89">
  <!-- Generator: Adobe Illustrator 30.2.1, SVG Export Plug-In . SVG Version: 2.1.1 Build 1)  -->
  <defs>
    <style>
      .st0 {
        fill: #342d28;
      }

      .st1 {
        fill: url(#linear-gradient1);
      }

      .st2 {
        fill: #fcfdf6;
      }

      .st3 {
        fill: #115d2e;
      }

      .st4 {
        fill: #f4df9c;
      }

      .st5 {
        fill: url(#linear-gradient);
      }
    </style>
    <linearGradient id="linear-gradient" x1="56.19" y1="98.01" x2="118.81" y2="30.57" gradientUnits="userSpaceOnUse">
      <stop offset="0" stop-color="#575756"/>
      <stop offset=".54" stop-color="#706f6f"/>
      <stop offset="1" stop-color="#575756"/>
    </linearGradient>
    <linearGradient id="linear-gradient1" x1="16.16" y1="60.85" x2="78.79" y2="-6.59" xlink:href="#linear-gradient"/>
  </defs>
  <g>
    <path class="st4" d="M103.17,34.74l-9.65,7.78v-10.34l4.6-3.71c.84-.67,1.89-.98,2.96-.87,1.07.12,2.03.65,2.7,1.48,1.39,1.73,1.12,4.27-.61,5.66Z"/>
    <path class="st4" d="M100.57,50.47c.11,1.34-.46,2.7-1.62,3.56l-5.08,3.75c-1.78,1.32-4.31.94-5.63-.85-.46-.62-.72-1.34-.78-2.07,0-.11,0-.21,0-.32,0-1.24.56-2.46,1.63-3.24l5.07-3.75c1.79-1.33,4.31-.95,5.63.84.46.63.72,1.35.78,2.08Z"/>
    <path class="st4" d="M99.75,76.26c1.32,1.78.94,4.31-.85,5.63l-3.57,2.64c-.54.4-1.14.64-1.77.74-1.44.22-2.94-.33-3.87-1.58-.46-.63-.72-1.34-.78-2.07-.1-1.34.47-2.7,1.63-3.57l3.57-2.64c1.79-1.32,4.32-.94,5.64.85Z"/>
    <path class="st2" d="M91.58,74.36l-2.43,1.8c-1.82,1.34-2.7,3.47-2.55,5.57,0,.02,0,.06,0,.08h-49.11V14.49h53.68v32.35l-3.48,2.57c-1.8,1.33-2.7,3.43-2.56,5.52.07,1.19.47,2.36,1.23,3.39,1.14,1.54,2.85,2.41,4.63,2.55l-2.71,2.01c-1.37,1.01-2.26,2.5-2.52,4.19-.25,1.68.17,3.37,1.19,4.74,1.01,1.37,2.5,2.26,4.18,2.51.16.02.31.02.46.03Z"/>
    <path class="st5" d="M91.16,87.41v4.7c0,3.14-2.56,5.71-5.71,5.71h-42.27c-3.14,0-5.71-2.56-5.71-5.71v-7.95h49.77c.16.32.34.62.56.92.86,1.17,2.06,1.95,3.35,2.32Z"/>
    <path class="st1" d="M91.16,8.06v4.07h-53.68v-4.07c0-3.14,2.56-5.71,5.71-5.71h42.27c3.14,0,5.71,2.56,5.71,5.71Z"/>
    <path class="st4" d="M88.82,70.41c-.52-.7-.79-1.53-.79-2.38,0-.2,0-.41.04-.61.16-1.07.72-2.01,1.58-2.65l5.08-3.75c.71-.53,1.55-.79,2.39-.79,1.24,0,2.46.56,3.24,1.63.64.86.9,1.92.75,2.99-.17,1.06-.73,2-1.59,2.64l-5.07,3.75c-.87.64-1.92.9-2.99.75-1.06-.16-2-.72-2.64-1.59Z"/>
    <path class="st0" d="M89.66,64.78c-.86.64-1.43,1.58-1.58,2.65-.03.2-.04.41-.04.61,0,.85.27,1.68.79,2.38.64.87,1.58,1.43,2.64,1.59,1.07.16,2.12-.11,2.99-.75l5.07-3.75c.86-.64,1.43-1.58,1.59-2.64.16-1.07-.11-2.13-.75-2.99-.79-1.07-2.01-1.63-3.24-1.63-.84,0-1.68.26-2.39.79l-5.08,3.75ZM86.35,58.33c-.75-1.03-1.16-2.21-1.23-3.39l2.34-.07c.06.73.32,1.45.78,2.07,1.32,1.78,3.85,2.16,5.63.85l5.08-3.75c1.15-.86,1.73-2.22,1.62-3.56l2.34-.07c.13,2.09-.76,4.19-2.56,5.52l-2.71,2c1.78.14,3.48,1.02,4.63,2.56,1.01,1.37,1.43,3.05,1.18,4.74s-1.14,3.17-2.51,4.18l-3.93,2.9c1.78.14,3.5,1.01,4.64,2.55,2.09,2.83,1.48,6.83-1.34,8.92l-3.57,2.64c-.88.66-1.87,1.03-2.89,1.16l-.27-2.31c.62-.1,1.23-.34,1.77-.74l3.57-2.64c1.78-1.32,2.16-3.85.85-5.63s-3.85-2.16-5.64-.85l-3.57,2.64c-1.15.86-1.73,2.22-1.63,3.57l-2.32.11c-.15-2.1.74-4.22,2.55-5.57l2.43-1.8c-.16,0-.31,0-.46-.03-1.68-.25-3.17-1.14-4.18-2.51-1.02-1.37-1.43-3.05-1.19-4.74.26-1.68,1.15-3.18,2.52-4.19l2.71-2.01c-1.78-.14-3.48-1.01-4.63-2.55Z"/>
    <path class="st4" d="M43.19,100.17h27.37c-2.98,3.26-6.54,6.01-10.43,8.01-4.05,2.08-8.41,3.38-12.96,3.87l-.39.04-5.61,5.27-24.2-24.21,3.38-3.85-.18-.62c-2.75-9.27-3.04-17.48-.87-24.39.2-.63.48-1.46.84-2.48.95-2.8,2.4-7.01,4.09-12.91,2-6.98,2.14-8.62,2.12-9.69-.02-.88-.1-1.69-.17-2.48-.21-2.11-.36-3.77.61-5.55.28-.52.81-1.48,1.7-1.76,1.54-.48,3.59,1.27,4.27,1.85,3.71,3.17,2.31,18-.73,31.29-.14.63.26,1.26.89,1.41.63.14,1.26-.26,1.41-.89.22-.97.51-2.27.81-3.81v32.82c0,4.45,3.61,8.06,8.05,8.06Z"/>
    <path class="st3" d="M42.04,121.53c.55.55.55,1.44,0,1.99l-8.05,8.05L3.33,100.91l8.05-8.05c.55-.55,1.44-.55,2,0l28.67,28.67Z"/>
    <path class="st0" d="M98.12,28.47l-4.6,3.71v10.34l9.65-7.78c1.73-1.39,2.01-3.93.61-5.66-.67-.84-1.63-1.37-2.7-1.48-1.07-.11-2.12.2-2.96.87ZM91.16,8.06c0-3.14-2.56-5.71-5.71-5.71h-42.27c-3.14,0-5.71,2.56-5.71,5.71v4.07h53.68v-4.07ZM37.48,84.16v7.95c0,3.14,2.56,5.71,5.71,5.71h42.27c3.14,0,5.71-2.56,5.71-5.71v-4.7c-1.29-.37-2.49-1.15-3.35-2.32-.22-.3-.41-.61-.56-.92h-49.77ZM73.65,100.17c-3.4,4.17-7.69,7.66-12.45,10.1-4.19,2.16-8.68,3.53-13.38,4.06l-4.98,4.68.85.85c1.47,1.47,1.47,3.86,0,5.32l-9.7,9.71L0,100.91l9.71-9.71c1.46-1.47,3.85-1.47,5.32,0l.28.28,2.42-2.76c-2.71-9.48-2.94-17.93-.67-25.13.2-.65.49-1.49.85-2.54.95-2.77,2.38-6.95,4.05-12.79,2.07-7.22,2.04-8.42,2.02-8.98-.02-.8-.09-1.57-.17-2.31-.21-2.21-.43-4.5.9-6.91.37-.69,1.27-2.31,3.06-2.87,2.76-.87,5.47,1.43,6.49,2.31.32.27.59.6.85.95V8.06c0-4.45,3.61-8.06,8.05-8.06h42.27c4.45,0,8.06,3.62,8.06,8.06v21.1l3.13-2.53c1.33-1.07,2.99-1.55,4.69-1.37s3.22,1.01,4.29,2.34,1.55,2.99,1.37,4.69-1.01,3.21-2.34,4.28l-10.16,8.19c2.56-.88,5.5-.05,7.19,2.24.75,1.03,1.16,2.21,1.23,3.4l-2.34.07c-.06-.73-.32-1.45-.78-2.08-1.32-1.78-3.84-2.16-5.63-.84l-5.07,3.75c-1.07.79-1.63,2.01-1.63,3.24,0,.11,0,.21,0,.32l-2.34.07c-.13-2.09.76-4.2,2.56-5.52l3.48-2.57V14.49h-53.68v67.32h49.11s0-.06,0-.08l2.32-.11c.06.72.32,1.43.78,2.07.93,1.25,2.43,1.81,3.87,1.58l.27,2.31c-.11.02-.22.03-.32.04v4.49c0,4.45-3.62,8.06-8.06,8.06h-11.8ZM43.19,100.17c-4.45,0-8.05-3.62-8.05-8.06v-32.82c-.31,1.53-.6,2.84-.81,3.81-.15.63-.78,1.03-1.41.89-.63-.15-1.03-.78-.89-1.41,3.04-13.3,4.44-28.13.73-31.29-.68-.58-2.73-2.33-4.27-1.85-.89.28-1.42,1.24-1.7,1.76-.98,1.78-.82,3.44-.61,5.55.07.79.15,1.6.17,2.48.02,1.07-.12,2.7-2.12,9.69-1.69,5.9-3.14,10.11-4.09,12.91-.36,1.02-.64,1.85-.84,2.48-2.17,6.91-1.88,15.11.87,24.39l.18.62-3.38,3.85,24.2,24.21,5.61-5.27.39-.04c4.55-.48,8.91-1.78,12.96-3.87,3.89-2,7.45-4.75,10.43-8.01h-27.37ZM42.04,121.53l-28.67-28.67c-.56-.55-1.45-.55-2,0l-8.05,8.05,30.66,30.66,8.05-8.05c.55-.55.55-1.44,0-1.99Z"/>
  </g>
  <g>
    <path class="st0" d="M11.67,99.53c-1.31,0-2.38,1.07-2.38,2.38s1.07,2.38,2.38,2.38,2.38-1.07,2.38-2.38-1.07-2.38-2.38-2.38Z"/>
    <path class="st0" d="M57.27,8.47h14.11c.65,0,1.18-.53,1.18-1.18s-.53-1.18-1.18-1.18h-14.11c-.65,0-1.18.53-1.18,1.18s.53,1.18,1.18,1.18Z"/>
    <path class="st0" d="M64.32,86.15c-2.74,0-4.97,2.23-4.97,4.97s2.23,4.97,4.97,4.97,4.97-2.23,4.97-4.97-2.23-4.97-4.97-4.97ZM64.32,93.73c-1.44,0-2.62-1.17-2.62-2.62s1.17-2.62,2.62-2.62,2.62,1.17,2.62,2.62-1.17,2.62-2.62,2.62Z"/>
  </g>
  <g>
    <g>
      <path class="st0" d="M45.09,32.31c-.65,0-1.18-.53-1.18-1.18v-5.72c0-1.84,1.49-3.33,3.32-3.33h5.72c.65,0,1.18.53,1.18,1.18s-.53,1.18-1.18,1.18h-5.72c-.54,0-.97.44-.97.98v5.72c0,.65-.53,1.18-1.18,1.18Z"/>
      <path class="st0" d="M52.96,62.9h-5.72c-1.83,0-3.32-1.49-3.32-3.32v-5.71c0-.65.53-1.18,1.18-1.18s1.18.53,1.18,1.18v5.71c0,.54.44.97.97.97h5.72c.65,0,1.18.53,1.18,1.18s-.53,1.18-1.18,1.18Z"/>
      <path class="st0" d="M83.55,32.31c-.65,0-1.18-.53-1.18-1.18v-5.72c0-.54-.44-.98-.97-.98h-5.72c-.65,0-1.18-.53-1.18-1.18s.53-1.18,1.18-1.18h5.72c1.83,0,3.32,1.49,3.32,3.33v5.72c0,.65-.53,1.18-1.18,1.18Z"/>
      <path class="st0" d="M81.41,62.9h-5.72c-.65,0-1.18-.53-1.18-1.18s.53-1.18,1.18-1.18h5.72c.54,0,.97-.44.97-.97v-5.71c0-.65.53-1.18,1.18-1.18s1.18.53,1.18,1.18v5.71c0,1.83-1.49,3.32-3.32,3.32Z"/>
    </g>
    <path class="st0" d="M59.66,37.84h-12.6v-12.6h12.6v12.6ZM49.42,35.49h7.9v-7.9h-7.9v7.9Z"/>
    <path class="st0" d="M81.58,37.84h-12.6v-12.6h12.6v12.6ZM71.33,35.49h7.9v-7.9h-7.9v7.9Z"/>
    <path class="st0" d="M59.66,59.75h-12.6v-12.6h12.6v12.6ZM49.42,57.4h7.9v-7.9h-7.9v7.9Z"/>
    <rect class="st0" x="51.01" y="29.19" width="4.7" height="4.7"/>
    <rect class="st0" x="72.93" y="29.19" width="4.7" height="4.7"/>
    <rect class="st0" x="51.01" y="51.1" width="4.7" height="4.7"/>
    <rect class="st0" x="49.02" y="38.63" width="6.21" height="1.6"/>
    <rect class="st0" x="55.39" y="40.22" width="1.6" height="4.75"/>
    <rect class="st0" x="60.76" y="43.02" width="1.6" height="6.56"/>
    <rect class="st0" x="60.76" y="34.76" width="1.6" height="5.47"/>
    <rect class="st0" x="59.72" y="42.24" width="1.6" height="7.07" transform="translate(106.28 -14.75) rotate(90)"/>
    <rect class="st0" x="63.02" y="55.62" width="1.6" height="4.82" transform="translate(121.84 -5.79) rotate(90)"/>
    <rect class="st0" x="58.95" y="37.28" width="1.6" height="4.3" transform="translate(99.17 -20.32) rotate(90)"/>
    <rect class="st0" x="62.57" y="34.54" width="3.02" height="1.72" transform="translate(99.47 -28.68) rotate(90)"/>
    <rect class="st0" x="60.77" y="31.06" width="1.58" height="1.72" transform="translate(93.48 -29.63) rotate(90)"/>
    <rect class="st0" x="66.51" y="31.06" width="1.58" height="1.72" transform="translate(99.23 -35.38) rotate(90)"/>
    <rect class="st0" x="64.36" y="36.42" width="5.89" height="1.72" transform="translate(104.58 -30.03) rotate(90)"/>
    <rect class="st0" x="62.64" y="42.16" width="5.89" height="1.72" transform="translate(108.6 -22.56) rotate(90)"/>
    <rect class="st0" x="64.36" y="44.24" width="5.89" height="1.72" transform="translate(112.41 -22.2) rotate(90)"/>
    <rect class="st0" x="73.62" y="41.73" width="5.03" height="1.72" transform="translate(118.73 -33.55) rotate(90)"/>
    <rect class="st0" x="67.79" y="39" width="2.47" height="1.72" transform="translate(108.89 -29.16) rotate(90)"/>
    <rect class="st0" x="73.25" y="45.35" width="2.47" height="1.72" transform="translate(120.7 -28.28) rotate(90)"/>
    <rect class="st0" x="70.61" y="51.07" width="7.75" height="1.72" transform="translate(126.42 -22.56) rotate(90)"/>
    <rect class="st0" x="62.35" y="41.3" width="3.63" height="1.72" transform="translate(128.34 84.32) rotate(180)"/>
    <rect class="st0" x="73.63" y="41.84" width="3.37" height="1.72" transform="translate(150.63 85.4) rotate(180)"/>
    <rect class="st0" x="71.57" y="50.94" width="6.27" height="1.72" transform="translate(149.41 103.61) rotate(180)"/>
    <rect class="st0" x="69.89" y="49.33" width="1.72" height="1.72" transform="translate(141.49 100.38) rotate(180)"/>
    <rect class="st0" x="68.16" y="47.86" width="1.72" height="1.72" transform="translate(138.05 97.44) rotate(180)"/>
    <rect class="st0" x="67.95" y="57.17" width="1.72" height="1.72" transform="translate(137.62 116.06) rotate(180)"/>
    <rect class="st0" x="77.2" y="57.17" width="1.72" height="1.72" transform="translate(156.11 116.06) rotate(180)"/>
    <rect class="st0" x="66.23" y="54.2" width="1.72" height="3.03" transform="translate(134.18 111.43) rotate(180)"/>
    <rect class="st0" x="69.67" y="54.14" width="1.72" height="3.03" transform="translate(141.06 111.31) rotate(180)"/>
    <rect class="st0" x="71.39" y="55.86" width="1.72" height="3.03" transform="translate(144.5 114.75) rotate(180)"/>
    <rect class="st0" x="62.35" y="49.58" width="5.81" height="1.72" transform="translate(130.52 100.88) rotate(180)"/>
    <rect class="st0" x="71.39" y="55.65" width="5.81" height="1.72" transform="translate(148.59 113.03) rotate(180)"/>
    <rect class="st0" x="60.51" y="51.3" width="1.84" height="7.53" transform="translate(122.87 110.12) rotate(180)"/>
    <rect class="st0" x="71.82" y="38.63" width="3.63" height="1.72" transform="translate(147.26 78.98) rotate(180)"/>
    <rect class="st0" x="62.85" y="27.55" width="3.15" height="4.03" transform="translate(93.99 -34.87) rotate(90)"/>
    <rect class="st0" x="63.62" y="24.88" width="1.41" height="7.62" transform="translate(93.01 -35.63) rotate(90)"/>
    <rect class="st0" x="55.39" y="41.81" width="5.37" height="1.69"/>
    <rect class="st0" x="49.92" y="38.63" width="3.66" height="4.07"/>
  </g>
</svg>